<svg width="76" height="76" viewBox="0 0 76 76" fill="none" xmlns="http://www.w3.org/2000/svg">
<path d="M31.2341 47.7502L30.2183 47.7391H29.7512C25.3358 47.7391 20.9574 45.5073 18.0435 41.7666C16.6273 39.9501 15.6485 37.8591 15.2074 35.7237C14.7217 33.377 14.8774 31.0451 15.6671 28.7947C16.4567 26.5444 17.8359 25.1579 19.7933 24.6055C22.1734 23.9344 25.2579 24.6351 28.9652 26.6853C31.59 28.1348 33.566 29.7401 33.6476 29.8105C33.7043 29.8565 33.7514 29.9133 33.7862 29.9775C33.821 30.0417 33.8428 30.1121 33.8504 30.1848C33.8579 30.2574 33.8511 30.3308 33.8303 30.4008C33.8095 30.4708 33.7751 30.5361 33.7291 30.5928L32.6725 31.8829C32.6267 31.94 32.5701 31.9875 32.5058 32.0225C32.4415 32.0575 32.3709 32.0793 32.2981 32.0868C32.1514 32.101 32.005 32.057 31.8903 31.9645C30.5369 30.8988 29.1014 29.9418 27.5972 29.1024C26.0883 28.2683 24.7055 27.69 23.4858 27.386C22.3217 27.0931 21.3282 27.056 20.5459 27.2784C19.4819 27.5787 18.7664 28.3499 18.2882 29.7104C17.669 31.4788 17.5504 33.3102 17.9285 35.1602C18.2844 36.8804 19.0815 38.5709 20.2345 40.0539C21.4839 41.6554 23.0965 42.9604 24.902 43.8205C26.7075 44.6806 28.7465 45.0884 30.6558 44.9142C30.7447 44.9064 30.8343 44.9202 30.9168 44.9543C30.9993 44.9885 31.0724 45.042 31.1298 45.1104C31.1873 45.1787 31.2274 45.2599 31.2469 45.3471C31.2663 45.4343 31.2645 45.5248 31.2415 45.6111C31.1637 45.9003 31.1748 46.2006 32.109 46.6863C32.2149 46.7422 32.3 46.8308 32.3515 46.9389C32.403 47.047 32.4182 47.1689 32.3949 47.2864C32.3716 47.4038 32.3109 47.5106 32.222 47.5909C32.1331 47.6711 32.0207 47.7205 31.9014 47.7317C31.7642 47.7465 31.5307 47.7502 31.2341 47.7502ZM21.6841 25.4656C21.1468 25.4599 20.6114 25.5298 20.0936 25.6732C18.5069 26.1181 17.3687 27.2933 16.7162 29.1581C15.9933 31.2156 15.8524 33.3473 16.2973 35.4976C16.7014 37.4662 17.6097 39.3977 18.9221 41.0771C21.6247 44.5508 25.6731 46.6232 29.7512 46.6232H30.3295C30.2249 46.4477 30.1545 46.254 30.1219 46.0523C28.2126 46.1153 26.2552 45.6927 24.4201 44.8178C22.4407 43.8628 20.7088 42.4633 19.3596 40.7286C18.0991 39.1159 17.2316 37.2622 16.8423 35.3752C16.4188 33.3663 16.556 31.2796 17.239 29.3434C17.5356 28.4982 17.9211 27.8345 18.4142 27.3118C18.9106 26.7829 19.5429 26.4008 20.2419 26.207C22.1549 25.6695 24.8835 26.3331 28.1348 28.1274C29.9365 29.121 31.4454 30.2146 32.1572 30.7559L32.5094 30.3259C31.213 29.3405 29.8491 28.4473 28.4277 27.6529C25.7955 26.1959 23.534 25.4656 21.6841 25.4656Z" fill="#1682FC"/>
<path d="M34.2408 30.7781C34.1532 30.7788 34.0668 30.7584 33.9887 30.7188C33.9119 30.6801 33.8452 30.6241 33.7938 30.5553C33.7423 30.4865 33.7075 30.4067 33.6921 30.3221C33.5364 29.4657 33.3473 28.1422 33.3473 26.7149C33.3436 22.0771 35.2936 20.1863 36.9286 19.4189L36.9693 19.4004C38.9787 18.5366 41.2253 18.5143 43.6536 19.3374C45.4813 19.9565 47.4129 21.0576 49.3963 22.6109C51.9803 24.6314 53.9822 26.8929 54.72 27.7715C54.7966 27.8618 54.8424 27.9743 54.8507 28.0925C54.859 28.2106 54.8293 28.3284 54.766 28.4285C54.7027 28.5286 54.6091 28.6059 54.4988 28.6491C54.3885 28.6923 54.2672 28.6992 54.1528 28.6687C53.2685 28.4343 52.3725 28.2462 51.4687 28.1052C51.3485 28.0869 51.2378 28.0296 51.1535 27.942C50.008 26.7483 48.8476 25.6917 47.6946 24.7945C45.9596 23.4376 44.3024 22.4849 42.7713 21.9695C41.014 21.3764 39.4273 21.3727 38.063 21.951C37.3809 22.2773 36.8878 22.8482 36.5578 23.6972C36.2538 24.4905 36.0944 25.4952 36.0944 26.6853C36.0907 27.5416 36.1723 28.4685 36.328 29.4398C36.3483 29.5638 36.326 29.6911 36.2648 29.8008C36.2035 29.9106 36.1069 29.9963 35.9906 30.0441C35.4605 30.2628 34.9563 30.489 34.4854 30.7225C34.409 30.7589 34.3254 30.7779 34.2408 30.7781ZM40.2392 19.8527C39.2659 19.8467 38.3018 20.041 37.4068 20.4236H37.4031C34.9674 21.5655 34.4595 24.472 34.4595 26.7112C34.464 27.6122 34.5333 28.5117 34.6671 29.4027L35.1639 29.1803C35.0437 28.3515 34.983 27.5153 34.9822 26.6778C34.9822 25.3506 35.1639 24.2125 35.5235 23.2931C35.961 22.1623 36.6394 21.3912 37.5959 20.9389L37.6144 20.9278C39.2419 20.2345 41.0956 20.2271 43.1272 20.913C44.777 21.4691 46.5416 22.4775 48.3805 23.9122C49.5297 24.8094 50.6864 25.8585 51.8246 27.0337C52.1249 27.0819 52.4251 27.1338 52.7217 27.1932C51.7541 26.1514 50.3528 24.7686 48.7141 23.4821C46.8271 22.0066 45.0031 20.9649 43.2977 20.3865C42.2337 20.0306 41.2105 19.8527 40.2392 19.8527Z" fill="#1682FC"/>
<path d="M52.9516 48.3212C49.6744 48.5881 46.6047 48.3842 43.8984 47.9616C36.2316 46.7715 31.4677 38.9083 34.0628 31.5938C34.2602 31.0258 34.5097 30.4772 34.808 29.9551C33.8886 30.3741 33.3844 30.6744 33.3844 30.6744C30.8226 33.7996 30.7225 39.9501 30.7819 46.297C30.7819 46.297 39.5979 50.9163 50.8681 50.008C51.792 49.9317 52.6584 49.5281 53.3112 48.8699C53.567 48.6104 53.8117 48.3434 54.0416 48.0691C53.6927 48.2065 53.3254 48.2915 52.9516 48.3212Z" fill="#E0E1E2"/>
<path d="M35.3121 47.8577C35.2668 47.8573 35.2231 47.8405 35.1891 47.8106C35.1551 47.7807 35.133 47.7395 35.1267 47.6946C35.0563 47.0903 34.997 46.486 34.9488 45.8928C34.9462 45.8687 34.9486 45.8442 34.9556 45.821C34.9627 45.7977 34.9743 45.7762 34.9899 45.7575C35.0054 45.7388 35.0246 45.7235 35.0462 45.7123C35.0678 45.7012 35.0914 45.6945 35.1156 45.6926C35.14 45.6906 35.1645 45.6934 35.1878 45.7009C35.211 45.7084 35.2326 45.7204 35.2512 45.7363C35.2698 45.7521 35.2851 45.7715 35.2962 45.7933C35.3073 45.8151 35.3139 45.8388 35.3158 45.8632C35.364 46.4489 35.4233 47.0532 35.4975 47.6501C35.5027 47.6992 35.4886 47.7483 35.4581 47.7871C35.4277 47.8259 35.3832 47.8512 35.3343 47.8577H35.3121ZM35.0081 43.8427C34.9602 43.8427 34.9141 43.8242 34.8796 43.791C34.845 43.7579 34.8247 43.7126 34.8227 43.6647C34.8116 43.2495 34.8042 42.8343 34.8042 42.4302C34.8042 42.0965 34.8079 41.7592 34.8153 41.4292C34.8172 41.381 34.8375 41.3354 34.8719 41.3016C34.9064 41.2678 34.9524 41.2485 35.0007 41.2476H35.0081C35.0325 41.2485 35.0564 41.2543 35.0785 41.2645C35.1006 41.2747 35.1205 41.2892 35.137 41.3071C35.1536 41.325 35.1664 41.346 35.1748 41.3688C35.1832 41.3917 35.187 41.416 35.1861 41.4404C35.1786 41.7629 35.1749 42.0965 35.1749 42.4302C35.1749 42.8306 35.1823 43.2421 35.1935 43.6536C35.1945 43.7022 35.1764 43.7492 35.1431 43.7845C35.1098 43.8199 35.064 43.8408 35.0155 43.8427H35.0081ZM35.1267 39.3976H35.1119C35.0875 39.3958 35.0638 39.3891 35.042 39.378C35.0202 39.3669 35.0008 39.3516 34.985 39.333C34.9691 39.3144 34.9571 39.2928 34.9496 39.2696C34.9422 39.2463 34.9393 39.2218 34.9414 39.1974C35.0081 38.4411 35.1008 37.696 35.2157 36.9767C35.2193 36.9528 35.2277 36.9297 35.2403 36.909C35.2529 36.8883 35.2696 36.8703 35.2893 36.8562C35.309 36.842 35.3313 36.8319 35.355 36.8265C35.3786 36.8211 35.4031 36.8205 35.427 36.8247C35.4511 36.8284 35.4743 36.8367 35.4952 36.8493C35.5161 36.8619 35.5343 36.8785 35.5487 36.8981C35.5632 36.9177 35.5736 36.94 35.5795 36.9637C35.5853 36.9874 35.5864 37.012 35.5827 37.0361C35.4678 37.7442 35.3788 38.4856 35.3121 39.2308C35.3083 39.277 35.287 39.32 35.2526 39.351C35.2181 39.3821 35.1731 39.3987 35.1267 39.3976ZM35.8348 35.0119H35.7903C35.7425 34.9996 35.7013 34.969 35.6756 34.9268C35.65 34.8845 35.6419 34.8339 35.6532 34.7857C35.8348 34.0443 36.0461 33.3176 36.2797 32.6355C36.2965 32.5892 36.3307 32.5513 36.375 32.5298C36.4193 32.5084 36.4703 32.505 36.517 32.5206C36.563 32.5366 36.6008 32.5701 36.6223 32.6138C36.6438 32.6575 36.6473 32.7079 36.6319 32.7541C36.3983 33.4288 36.1907 34.1406 36.0165 34.8747C36.0058 34.9145 35.9821 34.9496 35.9492 34.9745C35.9163 34.9993 35.8761 35.0125 35.8348 35.0119ZM37.2918 30.8189C37.2649 30.818 37.2384 30.8117 37.214 30.8004C37.1917 30.79 37.1717 30.7754 37.1552 30.7572C37.1386 30.7391 37.1258 30.7179 37.1176 30.6948C37.1093 30.6717 37.1057 30.6471 37.1069 30.6226C37.1082 30.5981 37.1144 30.5741 37.125 30.552C37.7478 29.247 38.252 28.6242 38.2742 28.5982C38.2894 28.5792 38.3081 28.5633 38.3295 28.5517C38.3508 28.54 38.3743 28.5327 38.3985 28.5303C38.4227 28.5279 38.4472 28.5304 38.4704 28.5376C38.4936 28.5448 38.5152 28.5566 38.5338 28.5723C38.5528 28.5874 38.5686 28.6062 38.5803 28.6275C38.592 28.6489 38.5992 28.6723 38.6016 28.6965C38.6041 28.7207 38.6016 28.7452 38.5944 28.7684C38.5872 28.7916 38.5754 28.8132 38.5597 28.8318C38.5523 28.8429 38.0592 29.4583 37.4586 30.7114C37.4443 30.7436 37.4208 30.7708 37.3912 30.7899C37.3616 30.809 37.327 30.8191 37.2918 30.8189Z" fill="#1682FC"/>
<path d="M36.7024 32.7949C36.6608 32.7943 36.6207 32.7797 36.5884 32.7535C36.5561 32.7272 36.5336 32.6909 36.5245 32.6503C36.5184 32.6267 36.5172 32.6021 36.5209 32.578C36.5245 32.5539 36.533 32.5308 36.5458 32.51C36.5586 32.4893 36.5755 32.4713 36.5954 32.4572C36.6153 32.4431 36.6378 32.4331 36.6616 32.4279C36.669 32.4242 37.518 32.2277 38.8489 31.9645C38.8728 31.9591 38.8976 31.9586 38.9217 31.963C38.9458 31.9674 38.9687 31.9766 38.9891 31.9901C39.0096 32.0036 39.0271 32.0211 39.0406 32.0416C39.0541 32.062 39.0633 32.085 39.0677 32.1091C39.0765 32.1572 39.0664 32.2068 39.0395 32.2476C39.0125 32.2884 38.9708 32.3171 38.9231 32.3278C37.5959 32.591 36.7543 32.7875 36.7469 32.7875L36.7024 32.7949ZM41.077 31.9237C41.0314 31.9229 40.9876 31.9052 40.9542 31.8741C40.9207 31.843 40.8999 31.8006 40.8958 31.7552C40.8917 31.7097 40.9045 31.6643 40.9318 31.6276C40.9591 31.591 40.9989 31.5657 41.0437 31.5567C41.7888 31.4269 42.5303 31.3083 43.2458 31.2045C43.2699 31.2008 43.2945 31.2019 43.3182 31.2078C43.3419 31.2136 43.3642 31.224 43.3838 31.2385C43.4034 31.253 43.42 31.2712 43.4326 31.292C43.4452 31.3129 43.4535 31.3361 43.4571 31.3602C43.4636 31.4087 43.451 31.4579 43.4219 31.4973C43.3929 31.5367 43.3497 31.5633 43.3014 31.5715C42.5859 31.6753 41.8482 31.794 41.1067 31.92L41.077 31.9237ZM56.2214 31.7643C56.1956 31.7638 56.1703 31.7575 56.1473 31.7458C55.6468 31.5233 55.0314 31.3417 54.3196 31.2082C54.2945 31.2049 54.2704 31.1964 54.2488 31.1835C54.2271 31.1705 54.2083 31.1532 54.1935 31.1327C54.1788 31.1122 54.1684 31.0889 54.163 31.0642C54.1576 31.0395 54.1572 31.014 54.1621 30.9892C54.1669 30.9644 54.1767 30.9408 54.1909 30.9199C54.2052 30.8991 54.2235 30.8813 54.2449 30.8678C54.2662 30.8543 54.2901 30.8453 54.3151 30.8414C54.34 30.8374 54.3655 30.8386 54.39 30.8449C55.1278 30.9821 55.7728 31.1711 56.2993 31.4084C56.3433 31.4294 56.3775 31.4665 56.3948 31.5121C56.4121 31.5577 56.411 31.6082 56.392 31.6531C56.3775 31.6862 56.3536 31.7144 56.3233 31.7342C56.293 31.754 56.2576 31.7644 56.2214 31.7643ZM45.4813 31.2823C45.4322 31.2853 45.3839 31.2686 45.347 31.2359C45.3102 31.2032 45.2878 31.1573 45.2848 31.1081C45.2819 31.0589 45.2986 31.0106 45.3313 30.9738C45.3639 30.9369 45.4099 30.9146 45.4591 30.9116C46.2302 30.8226 46.9754 30.7522 47.6835 30.6966C47.7091 30.6915 47.7356 30.6918 47.7611 30.6977C47.7866 30.7035 47.8106 30.7147 47.8314 30.7304C47.8523 30.7462 47.8696 30.7662 47.8822 30.7891C47.8948 30.812 47.9024 30.8374 47.9045 30.8634C47.9066 30.8895 47.9032 30.9157 47.8945 30.9404C47.8857 30.965 47.8718 30.9876 47.8538 31.0065C47.8357 31.0254 47.8138 31.0402 47.7896 31.0501C47.7653 31.0599 47.7393 31.0646 47.7131 31.0636C47.0087 31.1192 46.2673 31.1934 45.5036 31.2823H45.4813ZM52.1471 30.9709H52.136C51.7096 30.9487 51.2573 30.9376 50.7865 30.9376L49.9264 30.9487C49.9019 30.9497 49.8775 30.9457 49.8546 30.937C49.8317 30.9284 49.8108 30.9151 49.7931 30.8982C49.7755 30.8812 49.7614 30.8608 49.7518 30.8383C49.7422 30.8158 49.7373 30.7915 49.7373 30.767C49.7363 30.7185 49.7544 30.6715 49.7877 30.6361C49.821 30.6008 49.8668 30.5799 49.9153 30.578L50.7865 30.5668C51.261 30.5668 51.7245 30.578 52.1545 30.6002C52.1787 30.6011 52.2025 30.6069 52.2244 30.6172C52.2463 30.6274 52.266 30.642 52.2822 30.6599C52.2984 30.6779 52.3109 30.6989 52.3189 30.7217C52.3269 30.7446 52.3302 30.7688 52.3287 30.793C52.3269 30.8402 52.307 30.8849 52.2732 30.918C52.2395 30.9511 52.1943 30.97 52.1471 30.9709Z" fill="#1682FC"/>
<path d="M48.8253 47.3239C48.5435 47.3239 48.2618 47.3239 47.98 47.3165C47.9557 47.316 47.9316 47.3107 47.9093 47.3009C47.887 47.2912 47.8669 47.2771 47.85 47.2596C47.8331 47.242 47.8199 47.2213 47.811 47.1986C47.8022 47.1759 47.7979 47.1517 47.7983 47.1274C47.7988 47.103 47.8041 47.079 47.8139 47.0567C47.8236 47.0344 47.8377 47.0143 47.8552 46.9974C47.8728 46.9805 47.8935 46.9673 47.9162 46.9584C47.9389 46.9496 47.9631 46.9452 47.9874 46.9457C48.2655 46.9532 48.5472 46.9532 48.8253 46.9532C49.2813 46.9532 49.7447 46.9457 50.2007 46.9272H50.2081C50.2573 46.9262 50.3048 46.9448 50.3403 46.9789C50.3757 47.0129 50.3962 47.0597 50.3972 47.1089C50.3982 47.158 50.3796 47.2056 50.3455 47.241C50.3114 47.2765 50.2647 47.297 50.2155 47.2979C49.7558 47.3165 49.2887 47.3239 48.8253 47.3239ZM45.763 47.1941H45.7482C45.0104 47.1311 44.2616 47.0421 43.5275 46.9346C43.4789 46.9282 43.4348 46.9027 43.4049 46.8638C43.375 46.8248 43.3618 46.7757 43.3681 46.727C43.3755 46.6781 43.4017 46.634 43.4412 46.6042C43.4807 46.5743 43.5303 46.5612 43.5794 46.5676C44.3098 46.6751 45.0512 46.7604 45.7779 46.8234C45.8267 46.8281 45.8718 46.8516 45.9036 46.889C45.9355 46.9263 45.9515 46.9746 45.9484 47.0236C45.9447 47.0701 45.9235 47.1136 45.8891 47.1452C45.8548 47.1768 45.8097 47.1943 45.763 47.1941ZM52.4251 47.1385C52.3792 47.1379 52.3351 47.1207 52.301 47.09C52.2669 47.0593 52.2451 47.0173 52.2397 46.9717C52.2371 46.9473 52.2394 46.9227 52.2465 46.8992C52.2535 46.8757 52.2651 46.8539 52.2806 46.8349C52.2961 46.816 52.3152 46.8003 52.3368 46.7888C52.3585 46.7772 52.3821 46.7701 52.4065 46.7678C53.1406 46.6899 53.8746 46.5861 54.5939 46.4601C54.6401 46.4556 54.6863 46.4686 54.7234 46.4966C54.7605 46.5246 54.7857 46.5654 54.7941 46.6111C54.8025 46.6568 54.7934 46.7039 54.7687 46.7432C54.744 46.7826 54.7054 46.8112 54.6606 46.8234C53.9302 46.9532 53.1851 47.057 52.4436 47.1348L52.4251 47.1385ZM41.3624 46.5528H41.3254C40.595 46.4008 39.861 46.2265 39.1492 46.0337C39.1235 46.0296 39.0991 46.0201 39.0773 46.0059C39.0556 45.9917 39.0371 45.9731 39.023 45.9512C39.0089 45.9294 38.9996 45.9049 38.9956 45.8792C38.9916 45.8536 38.9931 45.8274 38.9998 45.8023C39.0066 45.7772 39.0186 45.7539 39.035 45.7337C39.0514 45.7136 39.0718 45.6971 39.095 45.6854C39.1182 45.6737 39.1435 45.6669 39.1695 45.6656C39.1954 45.6643 39.2213 45.6685 39.2456 45.6778C39.9499 45.8669 40.6766 46.0374 41.3995 46.1894C41.4234 46.1943 41.446 46.2038 41.4662 46.2174C41.4864 46.2311 41.5037 46.2485 41.5171 46.2689C41.5305 46.2892 41.5398 46.3119 41.5445 46.3358C41.5491 46.3597 41.549 46.3843 41.5441 46.4082C41.5342 46.449 41.511 46.4855 41.4781 46.5116C41.4452 46.5378 41.4045 46.5523 41.3624 46.5528ZM37.0657 45.3924L37.0063 45.3812C35.6828 44.9327 34.9414 44.5842 34.9117 44.5731C34.8894 44.5627 34.8695 44.5481 34.8529 44.5299C34.8364 44.5118 34.8236 44.4906 34.8153 44.4675C34.807 44.4443 34.8034 44.4198 34.8047 44.3953C34.806 44.3708 34.8121 44.3468 34.8227 44.3247C34.8327 44.3025 34.847 44.2826 34.8648 44.2661C34.8826 44.2496 34.9035 44.2368 34.9263 44.2285C34.9491 44.2202 34.9733 44.2166 34.9976 44.2178C35.0218 44.2191 35.0456 44.2251 35.0674 44.2357C35.0748 44.2394 35.8237 44.5879 37.125 45.0291C37.1686 45.0416 37.206 45.0697 37.2303 45.108C37.2546 45.1464 37.2639 45.1923 37.2566 45.237C37.2493 45.2818 37.2258 45.3224 37.1906 45.351C37.1554 45.3796 37.111 45.3943 37.0657 45.3924Z" fill="#1682FC"/>
<path d="M47.9023 50.6827C46.2314 50.6809 44.5623 50.5744 42.9048 50.3639C40.7211 50.0851 38.562 49.6389 36.4466 49.0292C32.8209 47.9838 30.615 46.8382 30.5224 46.79C30.433 46.7442 30.358 46.6747 30.3056 46.589C30.2533 46.5033 30.2257 46.4048 30.2258 46.3043C30.1961 43.2458 30.1998 40.0242 30.5483 37.2103C30.9376 34.0739 31.7272 31.8199 32.9544 30.3221C32.9957 30.2714 33.046 30.2287 33.1026 30.1961C33.2027 30.1367 35.6496 28.702 39.5867 27.6751C41.864 27.0762 44.2027 26.7416 46.5565 26.6778C49.4263 26.6036 52.2905 26.9686 55.05 27.7603C55.1596 27.7919 55.2567 27.8567 55.328 27.9457C56.785 29.7326 57.8564 33.5994 57.9305 37.3438C57.975 39.5756 57.6896 41.6776 57.0779 43.5943C56.3661 45.8224 55.2316 47.728 53.7042 49.2628C52.9579 50.014 51.968 50.4741 50.9126 50.5604C49.919 50.6419 48.9156 50.6827 47.9023 50.6827ZM31.3343 45.9522C32.0461 46.2895 33.9998 47.1682 36.784 47.9689C38.841 48.5611 40.9406 48.9937 43.0642 49.2628C45.6374 49.5912 48.2375 49.6546 50.8236 49.4519C51.6158 49.387 52.3586 49.0412 52.9183 48.4768C54.3196 47.0718 55.3614 45.3145 56.0176 43.2569C56.5922 41.4589 56.8628 39.4755 56.8184 37.366C56.7627 34.4669 55.9731 30.6372 54.5717 28.7799C51.9728 28.0541 49.28 27.7204 46.5825 27.79C44.3138 27.8508 42.0597 28.173 39.8648 28.7502C36.4763 29.6325 34.2074 30.8523 33.7514 31.1044C32.6948 32.439 32.009 34.4817 31.6531 37.3475C31.3231 39.9908 31.312 43.0345 31.3343 45.9522Z" fill="#2E3A58"/>
</svg>
