<svg width="49" height="49" viewBox="0 0 49 49" fill="none" xmlns="http://www.w3.org/2000/svg">
<path d="M18.5761 44.5021L17.4187 44.4851H16.8864C11.8554 44.4851 6.86653 41.0619 3.54628 35.3245C1.93262 32.5382 0.817417 29.3311 0.314733 26.0558C-0.238643 22.4564 -0.061225 18.8798 0.838538 15.4282C1.7383 11.9766 3.30972 9.84994 5.54012 9.00268C8.25208 7.97347 11.7666 9.04817 15.9909 12.1927C18.9816 14.416 21.2332 16.8782 21.3261 16.9862C21.3907 17.0568 21.4444 17.1438 21.4841 17.2423C21.5237 17.3408 21.5486 17.4488 21.5572 17.5602C21.5658 17.6716 21.5581 17.7842 21.5343 17.8916C21.5106 17.999 21.4715 18.099 21.419 18.186L20.2151 20.1649C20.1629 20.2524 20.0984 20.3252 20.0251 20.3789C19.9519 20.4326 19.8714 20.4661 19.7885 20.4776C19.6213 20.4992 19.4545 20.4319 19.3238 20.29C17.7818 18.6554 16.1461 17.1876 14.4321 15.9001C12.7129 14.6207 11.1372 13.7337 9.74746 13.2674C8.42105 12.8182 7.28895 12.7613 6.39764 13.1025C5.18528 13.5631 4.37 14.7458 3.82507 16.8327C3.11963 19.545 2.98445 22.3541 3.41532 25.1915C3.82085 27.83 4.72906 30.4229 6.0428 32.6974C7.46637 35.1539 9.30391 37.1555 11.3611 38.4747C13.4183 39.7939 15.7417 40.4194 17.9171 40.1521C18.0185 40.1402 18.1205 40.1613 18.2145 40.2137C18.3086 40.2661 18.3918 40.3482 18.4573 40.4531C18.5228 40.5579 18.5685 40.6825 18.5907 40.8162C18.6128 40.9499 18.6107 41.0888 18.5846 41.2211C18.4959 41.6647 18.5085 42.1253 19.573 42.8702C19.6937 42.9559 19.7906 43.0918 19.8493 43.2577C19.908 43.4235 19.9254 43.6104 19.8988 43.7906C19.8722 43.9708 19.8031 44.1346 19.7018 44.2577C19.6005 44.3808 19.4724 44.4565 19.3365 44.4737C19.1802 44.4964 18.9141 44.5021 18.5761 44.5021ZM7.69448 10.3219C7.08231 10.3132 6.47227 10.4204 5.88228 10.6403C4.07431 11.3227 2.77746 13.1252 2.034 15.9854C1.21027 19.1413 1.04975 22.4109 1.55666 25.709C2.0171 28.7284 3.05204 31.6909 4.54742 34.2668C7.62689 39.5949 12.2398 42.7735 16.8864 42.7735H17.5454C17.4262 42.5043 17.346 42.2072 17.3088 41.8978C15.1334 41.9945 12.903 41.3462 10.812 40.0043C8.55663 38.5396 6.58325 36.3931 5.04588 33.7323C3.60964 31.2588 2.62117 28.4156 2.17762 25.5213C1.69507 22.44 1.85144 19.2394 2.62962 16.2697C2.96755 14.9733 3.40688 13.9554 3.9687 13.1537C4.53434 12.3425 5.25478 11.7563 6.05125 11.4592C8.23096 10.6346 11.34 11.6525 15.0447 14.4047C17.0976 15.9286 18.8169 17.606 19.628 18.4362L20.0293 17.7766C18.5521 16.2652 16.998 14.8953 15.3784 13.6768C12.3792 11.4421 9.80238 10.3219 7.69448 10.3219Z" fill="#1682FC"/>
<path d="M22.0021 18.4704C21.9023 18.4713 21.8038 18.4401 21.7148 18.3794C21.6274 18.32 21.5514 18.2342 21.4927 18.1286C21.4341 18.023 21.3944 17.9006 21.3769 17.771C21.1995 16.4574 20.984 14.4274 20.984 12.2382C20.9798 5.12467 23.2017 2.22467 25.0646 1.04761L25.1111 1.01917C27.4006 -0.305728 29.9605 -0.339847 32.7274 0.922508C34.81 1.87212 37.0108 3.56094 39.2707 5.9435C42.215 9.04252 44.4961 12.5111 45.3368 13.8588C45.4241 13.9973 45.4763 14.1698 45.4857 14.3511C45.4952 14.5323 45.4614 14.7129 45.3892 14.8665C45.3171 15.0201 45.2104 15.1387 45.0847 15.2049C44.959 15.2712 44.8209 15.2817 44.6904 15.2349C43.6828 14.8755 42.662 14.587 41.6321 14.3706C41.4952 14.3426 41.369 14.2546 41.273 14.1204C39.9678 12.2894 38.6456 10.6688 37.3318 9.29271C35.3549 7.21153 33.4666 5.75016 31.722 4.95977C29.7197 4.04996 27.9118 4.04428 26.3572 4.93133C25.58 5.43173 25.0182 6.30742 24.6422 7.60957C24.2958 8.82644 24.1142 10.3674 24.1142 12.1927C24.11 13.5062 24.2029 14.9278 24.3803 16.4176C24.4035 16.6079 24.3781 16.803 24.3083 16.9714C24.2385 17.1397 24.1284 17.2712 23.9959 17.3445C23.3918 17.68 22.8173 18.0268 22.2809 18.3851C22.1937 18.4408 22.0985 18.4699 22.0021 18.4704ZM28.8369 1.7129C27.7279 1.70376 26.6293 2.00183 25.6096 2.58859H25.6053C22.83 4.33996 22.2513 8.79801 22.2513 12.2325C22.2564 13.6145 22.3354 14.9941 22.4878 16.3608L23.0539 16.0196C22.917 14.7484 22.8478 13.4658 22.8469 12.1813C22.8469 10.1457 23.0539 8.39997 23.4636 6.98977C23.9621 5.25545 24.7351 4.07271 25.825 3.37898L25.8461 3.36192C27.7006 2.29859 29.8127 2.28721 32.1276 3.33918C34.0073 4.19212 36.0181 5.73879 38.1133 7.93938C39.4228 9.31546 40.7408 10.9247 42.0376 12.7272C42.3798 12.8011 42.722 12.8808 43.0599 12.9717C41.9574 11.3739 40.3606 9.25291 38.4935 7.27977C36.3434 5.01663 34.265 3.41879 32.3219 2.53173C31.1095 1.98584 29.9436 1.7129 28.8369 1.7129Z" fill="#1682FC"/>
<path d="M43.3217 45.3779C39.5874 45.7873 36.0898 45.4746 33.0061 44.8263C24.2703 43.001 18.8422 30.9404 21.7992 19.7214C22.0241 18.8502 22.3083 18.0089 22.6482 17.2081C21.6006 17.8506 21.0261 18.3112 21.0261 18.3112C18.1072 23.1047 17.9931 32.5383 18.0607 42.2732C18.0607 42.2732 28.106 49.3583 40.9476 47.9652C42.0004 47.848 42.9875 47.229 43.7314 46.2195C44.0229 45.8214 44.3017 45.412 44.5636 44.9912C44.1661 45.202 43.7476 45.3324 43.3217 45.3779Z" fill="#E0E1E2"/>
<path d="M23.2228 44.6671C23.1711 44.6664 23.1214 44.6407 23.0826 44.5948C23.0439 44.5489 23.0186 44.4858 23.0116 44.4169C22.9313 43.49 22.8637 42.5632 22.8088 41.6534C22.8059 41.6163 22.8085 41.5788 22.8166 41.5432C22.8246 41.5075 22.8379 41.4744 22.8556 41.4458C22.8733 41.4171 22.8952 41.3936 22.9198 41.3765C22.9444 41.3594 22.9713 41.3491 22.9989 41.3463C23.0266 41.3432 23.0546 41.3475 23.0811 41.359C23.1076 41.3705 23.1322 41.3889 23.1534 41.4132C23.1746 41.4375 23.192 41.4672 23.2046 41.5006C23.2173 41.5341 23.2249 41.5705 23.227 41.6079C23.2819 42.5063 23.3495 43.4332 23.434 44.3487C23.44 44.4239 23.4239 44.4993 23.3892 44.5588C23.3544 44.6183 23.3038 44.6571 23.2481 44.6671H23.2228ZM22.8764 38.5089C22.8218 38.5089 22.7693 38.4805 22.7299 38.4296C22.6906 38.3788 22.6673 38.3093 22.6652 38.2359C22.6525 37.5991 22.644 36.9622 22.644 36.3424C22.644 35.8306 22.6483 35.3132 22.6567 34.8071C22.6589 34.7331 22.6819 34.6631 22.7212 34.6113C22.7605 34.5595 22.813 34.5299 22.8679 34.5285H22.8764C22.9041 34.5299 22.9314 34.5387 22.9566 34.5544C22.9818 34.5701 23.0045 34.5922 23.0233 34.6197C23.0421 34.6472 23.0568 34.6794 23.0663 34.7144C23.0759 34.7495 23.0803 34.7868 23.0791 34.8241C23.0707 35.3189 23.0665 35.8306 23.0665 36.3424C23.0665 36.9565 23.0749 37.5877 23.0876 38.2189C23.0887 38.2933 23.0681 38.3654 23.0302 38.4196C22.9923 38.4739 22.9401 38.5059 22.8848 38.5089H22.8764ZM23.0116 31.691H22.9947C22.9669 31.6881 22.9398 31.6779 22.915 31.6609C22.8902 31.6439 22.8681 31.6204 22.85 31.5919C22.832 31.5634 22.8183 31.5303 22.8098 31.4946C22.8012 31.4589 22.798 31.4213 22.8003 31.3839C22.8764 30.2239 22.982 29.081 23.1129 27.9779C23.117 27.9411 23.1266 27.9057 23.141 27.874C23.1554 27.8422 23.1743 27.8146 23.1968 27.7929C23.2192 27.7712 23.2447 27.7557 23.2716 27.7474C23.2986 27.7392 23.3265 27.7382 23.3537 27.7447C23.3812 27.7503 23.4076 27.7631 23.4314 27.7824C23.4552 27.8017 23.4759 27.8271 23.4924 27.8572C23.5089 27.8873 23.5208 27.9215 23.5274 27.9578C23.5341 27.9942 23.5353 28.0319 23.5311 28.0688C23.4002 29.1549 23.2988 30.2922 23.2228 31.4351C23.2185 31.506 23.1942 31.572 23.1549 31.6196C23.1157 31.6671 23.0644 31.6927 23.0116 31.691ZM23.8184 24.9641H23.7677C23.7131 24.9453 23.6662 24.8985 23.637 24.8336C23.6078 24.7688 23.5986 24.6911 23.6114 24.6173C23.8184 23.48 24.0592 22.3655 24.3253 21.3192C24.3444 21.2483 24.3834 21.1901 24.4339 21.1572C24.4844 21.1243 24.5424 21.1192 24.5956 21.143C24.6481 21.1675 24.6912 21.2189 24.7157 21.2859C24.7402 21.353 24.7441 21.4303 24.7266 21.5012C24.4605 22.5361 24.2239 23.6279 24.0254 24.7537C24.0132 24.8148 23.9862 24.8686 23.9487 24.9067C23.9112 24.9449 23.8654 24.965 23.8184 24.9641ZM25.4785 18.533C25.4478 18.5316 25.4176 18.5219 25.3898 18.5045C25.3644 18.4887 25.3417 18.4662 25.3228 18.4384C25.304 18.4106 25.2894 18.378 25.28 18.3426C25.2705 18.3071 25.2664 18.2695 25.2679 18.2319C25.2693 18.1943 25.2763 18.1575 25.2884 18.1235C25.9981 16.122 26.5726 15.1667 26.5979 15.1269C26.6152 15.0976 26.6366 15.0734 26.6609 15.0555C26.6852 15.0376 26.7119 15.0265 26.7395 15.0227C26.7671 15.019 26.795 15.0228 26.8214 15.0339C26.8479 15.0449 26.8725 15.063 26.8936 15.0871C26.9153 15.1102 26.9334 15.1391 26.9467 15.1718C26.96 15.2045 26.9682 15.2405 26.971 15.2777C26.9737 15.3148 26.9709 15.3523 26.9627 15.3879C26.9545 15.4235 26.9411 15.4566 26.9232 15.4851C26.9147 15.5022 26.3529 16.4461 25.6686 18.3681C25.6522 18.4174 25.6255 18.4593 25.5918 18.4885C25.558 18.5178 25.5187 18.5332 25.4785 18.533Z" fill="#1682FC"/>
<path d="M24.8069 21.5637C24.7595 21.5627 24.7137 21.5403 24.677 21.5001C24.6402 21.4599 24.6145 21.4042 24.6041 21.3419C24.5972 21.3057 24.5958 21.268 24.6 21.231C24.6042 21.194 24.6139 21.1585 24.6285 21.1267C24.643 21.0949 24.6622 21.0673 24.6849 21.0457C24.7076 21.024 24.7333 21.0087 24.7604 21.0008C24.7688 20.9951 25.7362 20.6937 27.2527 20.29C27.2799 20.2817 27.3081 20.2809 27.3356 20.2877C27.363 20.2944 27.3892 20.3086 27.4124 20.3293C27.4357 20.35 27.4557 20.3769 27.471 20.4082C27.4864 20.4396 27.4969 20.4748 27.5019 20.5117C27.512 20.5855 27.5005 20.6616 27.4698 20.7242C27.4391 20.7867 27.3915 20.8308 27.3372 20.8472C25.8249 21.2509 24.866 21.5523 24.8576 21.5523L24.8069 21.5637ZM29.7915 20.2274C29.7394 20.2261 29.6896 20.1991 29.6515 20.1513C29.6134 20.1036 29.5897 20.0387 29.585 19.9689C29.5803 19.8991 29.5948 19.8295 29.6259 19.7733C29.657 19.7171 29.7024 19.6784 29.7534 19.6645C30.6025 19.4655 31.4474 19.2835 32.2626 19.1243C32.2901 19.1186 32.3181 19.1203 32.3451 19.1293C32.3721 19.1382 32.3975 19.1543 32.4198 19.1764C32.4422 19.1986 32.4611 19.2265 32.4755 19.2586C32.4898 19.2906 32.4993 19.3261 32.5034 19.3631C32.5108 19.4375 32.4964 19.5129 32.4633 19.5734C32.4302 19.6338 32.381 19.6746 32.326 19.6872C31.5107 19.8464 30.6701 20.0284 29.8253 20.2217L29.7915 20.2274ZM47.0475 19.9829C47.0181 19.9822 46.9892 19.9724 46.963 19.9545C46.3927 19.6133 45.6915 19.3347 44.8804 19.13C44.8519 19.1249 44.8245 19.1119 44.7998 19.092C44.7751 19.0721 44.7537 19.0456 44.7368 19.0141C44.72 18.9827 44.7082 18.9469 44.702 18.9091C44.6958 18.8712 44.6955 18.8321 44.701 18.794C44.7064 18.756 44.7176 18.7198 44.7339 18.6878C44.7501 18.6558 44.771 18.6286 44.7954 18.6079C44.8197 18.5872 44.8469 18.5734 44.8753 18.5673C44.9038 18.5613 44.9328 18.5631 44.9607 18.5727C45.8013 18.7831 46.5364 19.0731 47.1362 19.437C47.1863 19.4692 47.2253 19.5262 47.245 19.5961C47.2647 19.666 47.2635 19.7435 47.2418 19.8123C47.2253 19.8632 47.1981 19.9064 47.1636 19.9367C47.1291 19.9671 47.0887 19.9831 47.0475 19.9829ZM34.8099 19.2437C34.7538 19.2482 34.6988 19.2226 34.6568 19.1725C34.6148 19.1224 34.5893 19.0518 34.586 18.9764C34.5826 18.901 34.6016 18.8269 34.6389 18.7704C34.6761 18.7139 34.7285 18.6796 34.7845 18.6751C35.6632 18.5386 36.5122 18.4306 37.3191 18.3453C37.3483 18.3374 37.3784 18.338 37.4075 18.3469C37.4365 18.3558 37.4639 18.373 37.4877 18.3971C37.5115 18.4213 37.5312 18.452 37.5455 18.4872C37.5599 18.5223 37.5685 18.5612 37.5709 18.6012C37.5733 18.6412 37.5694 18.6814 37.5595 18.7192C37.5495 18.757 37.5337 18.7916 37.5131 18.8206C37.4925 18.8496 37.4675 18.8724 37.4399 18.8875C37.4123 18.9026 37.3826 18.9096 37.3529 18.9082C36.5503 18.9935 35.7054 19.1072 34.8352 19.2437H34.8099ZM42.405 18.766H42.3924C41.9066 18.7319 41.3912 18.7149 40.8548 18.7149L39.8747 18.7319C39.8468 18.7335 39.819 18.7274 39.7929 18.7141C39.7668 18.7008 39.743 18.6805 39.7229 18.6545C39.7027 18.6284 39.6867 18.5972 39.6758 18.5626C39.6649 18.5281 39.6593 18.4909 39.6593 18.4533C39.6581 18.3788 39.6787 18.3068 39.7167 18.2525C39.7546 18.1983 39.8068 18.1663 39.8621 18.1633L40.8548 18.1462C41.3955 18.1462 41.9235 18.1633 42.4135 18.1974C42.4411 18.1989 42.4681 18.2077 42.4931 18.2234C42.5181 18.2392 42.5405 18.2615 42.559 18.289C42.5775 18.3165 42.5917 18.3488 42.6008 18.3838C42.6099 18.4189 42.6137 18.456 42.612 18.4931C42.6099 18.5655 42.5873 18.6342 42.5488 18.6849C42.5103 18.7356 42.4589 18.7647 42.405 18.766Z" fill="#1682FC"/>
<path d="M38.6201 43.8482C38.299 43.8482 37.978 43.8482 37.6569 43.8369C37.6292 43.8361 37.6019 43.828 37.5764 43.8131C37.551 43.7981 37.528 43.7765 37.5088 43.7496C37.4896 43.7227 37.4745 43.6909 37.4644 43.6561C37.4543 43.6213 37.4494 43.5842 37.45 43.5469C37.4505 43.5095 37.4565 43.4727 37.4676 43.4385C37.4788 43.4043 37.4948 43.3733 37.5148 43.3475C37.5348 43.3216 37.5584 43.3013 37.5842 43.2877C37.6101 43.2741 37.6377 43.2675 37.6654 43.2682C37.9822 43.2796 38.3033 43.2796 38.6201 43.2796C39.1397 43.2796 39.6677 43.2682 40.1873 43.2398H40.1957C40.2517 43.2383 40.3059 43.2668 40.3463 43.319C40.3867 43.3713 40.41 43.443 40.4112 43.5184C40.4123 43.5938 40.3911 43.6667 40.3523 43.7211C40.3135 43.7755 40.2602 43.8069 40.2042 43.8084C39.6804 43.8369 39.1481 43.8482 38.6201 43.8482ZM35.1309 43.6492H35.114C34.2733 43.5525 33.42 43.4161 32.5836 43.2512C32.5282 43.2413 32.478 43.2022 32.4439 43.1425C32.4099 43.0828 32.3948 43.0074 32.402 42.9327C32.4104 42.8577 32.4403 42.79 32.4853 42.7443C32.5303 42.6986 32.5869 42.6785 32.6428 42.6882C33.475 42.8531 34.3198 42.9839 35.1478 43.0806C35.2034 43.0878 35.2548 43.1239 35.2911 43.1812C35.3273 43.2385 35.3456 43.3125 35.3421 43.3876C35.3378 43.459 35.3137 43.5256 35.2745 43.5741C35.2354 43.6226 35.1841 43.6494 35.1309 43.6492ZM42.7218 43.5639C42.6695 43.563 42.6193 43.5366 42.5804 43.4895C42.5416 43.4424 42.5167 43.3779 42.5106 43.308C42.5077 43.2707 42.5103 43.2329 42.5183 43.1969C42.5263 43.1609 42.5395 43.1274 42.5572 43.0983C42.5749 43.0692 42.5966 43.0451 42.6213 43.0275C42.6459 43.0098 42.6729 42.9988 42.7007 42.9953C43.5371 42.8759 44.3735 42.7167 45.193 42.5233C45.2457 42.5164 45.2983 42.5364 45.3406 42.5793C45.3828 42.6222 45.4116 42.6849 45.4211 42.755C45.4307 42.825 45.4204 42.8973 45.3922 42.9576C45.364 43.0179 45.3201 43.0618 45.269 43.0806C44.4369 43.2796 43.5878 43.4388 42.7429 43.5582L42.7218 43.5639ZM30.1167 42.6655H30.0744C29.2423 42.4323 28.4059 42.1651 27.5948 41.8694C27.5656 41.863 27.5377 41.8485 27.513 41.8267C27.4882 41.8049 27.4671 41.7763 27.4511 41.7429C27.435 41.7094 27.4244 41.6718 27.4198 41.6324C27.4153 41.5931 27.4169 41.5529 27.4247 41.5144C27.4324 41.476 27.4461 41.4401 27.4647 41.4093C27.4834 41.3784 27.5067 41.3531 27.5331 41.3351C27.5595 41.3171 27.5884 41.3068 27.618 41.3048C27.6475 41.3028 27.677 41.3092 27.7046 41.3235C28.5072 41.6135 29.3352 41.8751 30.1589 42.1082C30.1861 42.1157 30.2119 42.1303 30.2349 42.1512C30.2579 42.1721 30.2776 42.1989 30.2929 42.23C30.3082 42.2612 30.3188 42.2961 30.3241 42.3328C30.3294 42.3694 30.3292 42.4071 30.3237 42.4437C30.3124 42.5064 30.2859 42.5622 30.2484 42.6024C30.211 42.6426 30.1646 42.6648 30.1167 42.6655ZM25.2208 40.8857L25.1532 40.8686C23.6451 40.1806 22.8003 39.6461 22.7665 39.629C22.7411 39.6132 22.7184 39.5907 22.6995 39.5629C22.6807 39.5351 22.6661 39.5025 22.6567 39.467C22.6472 39.4316 22.6431 39.394 22.6446 39.3564C22.646 39.3188 22.653 39.282 22.6651 39.248C22.6765 39.2141 22.6928 39.1835 22.713 39.1582C22.7333 39.1329 22.7571 39.1133 22.7831 39.1006C22.8091 39.0879 22.8367 39.0823 22.8643 39.0842C22.892 39.086 22.919 39.0954 22.9439 39.1116C22.9524 39.1172 23.8057 39.6518 25.2884 40.3284C25.338 40.3477 25.3807 40.3908 25.4084 40.4496C25.436 40.5084 25.4467 40.5788 25.4384 40.6474C25.43 40.7161 25.4033 40.7783 25.3632 40.8222C25.3231 40.8661 25.2724 40.8887 25.2208 40.8857Z" fill="#1682FC"/>
<path d="M37.5682 49C35.6644 48.9973 33.7626 48.8339 31.874 48.511C29.3858 48.0834 26.9256 47.399 24.5153 46.4639C20.384 44.8604 17.8706 43.1033 17.765 43.0294C17.6632 42.9592 17.5777 42.8525 17.5181 42.721C17.4584 42.5896 17.4269 42.4385 17.4271 42.2845C17.3933 37.5933 17.3975 32.6519 17.7946 28.336C18.2381 23.5254 19.1379 20.0682 20.5361 17.7709C20.5832 17.6932 20.6405 17.6277 20.7051 17.5776C20.8191 17.4866 23.6071 15.286 28.0933 13.7109C30.6881 12.7924 33.3528 12.2791 36.0348 12.1813C39.3048 12.0674 42.5684 12.6274 45.7126 13.8417C45.8375 13.8902 45.9481 13.9895 46.0294 14.126C47.6895 16.8668 48.9103 22.7976 48.9948 28.5407C49.0455 31.9639 48.7202 35.188 48.0232 38.1278C47.2122 41.5453 45.9196 44.468 44.1792 46.8221C43.3288 47.9744 42.2009 48.6801 40.9983 48.8123C39.8662 48.9374 38.7229 49 37.5682 49ZM18.6901 41.7443C19.5012 42.2617 21.7273 43.6094 24.8997 44.8376C27.2436 45.7459 29.6359 46.4094 32.0556 46.8221C34.9876 47.3259 37.9502 47.4231 40.8969 47.1121C41.7995 47.0126 42.646 46.4823 43.2836 45.6166C44.8804 43.4615 46.0674 40.7662 46.8151 37.6104C47.4699 34.8525 47.7782 31.8104 47.7275 28.5749C47.6642 24.1282 46.7644 18.2543 45.1676 15.4054C42.2063 14.2922 39.1381 13.7805 36.0644 13.8872C33.4794 13.9804 30.911 14.4746 28.4101 15.3599C24.5491 16.7133 21.9639 18.5841 21.4443 18.9707C20.2404 21.0178 19.4589 24.1509 19.0534 28.5464C18.6774 32.6007 18.6648 37.2692 18.6901 41.7443Z" fill="#2E3A58"/>
</svg>
