<svg width="64" height="64" viewBox="0 0 64 64" fill="none" xmlns="http://www.w3.org/2000/svg">
<g clip-path="url(#clip0_123_688)">
<path d="M32 64C49.6731 64 64 49.6731 64 32C64 14.3269 49.6731 0 32 0C14.3269 0 0 14.3269 0 32C0 49.6731 14.3269 64 32 64Z" fill="#273B7A"/>
<path d="M34.2564 63.9196C50.1355 62.8132 62.821 50.1232 63.9205 34.2421L46.6976 17.0192L33.275 39.4612L16.9222 46.5855L34.2564 63.9196Z" fill="#121149"/>
<path d="M44.0493 48H19.9505C17.7686 48 15.9998 46.2312 15.9998 44.0495V19.9508C15.9998 17.7689 17.7685 16 19.9505 16H44.0493C46.2311 16 47.9998 17.7688 47.9998 19.9508V44.0495C48 46.2312 46.2313 48 44.0493 48Z" fill="#EAA22F"/>
<path d="M44.0493 16H32V48H44.0493C46.2311 48 47.9997 46.2312 47.9997 44.0495V19.9505C48 17.7688 46.2313 16 44.0493 16Z" fill="#FF5419"/>
<path d="M32 44.4984C38.9027 44.4984 44.4984 38.9027 44.4984 32C44.4984 25.0974 38.9027 19.5016 32 19.5016C25.0974 19.5016 19.5016 25.0974 19.5016 32C19.5016 38.9027 25.0974 44.4984 32 44.4984Z" fill="#FFC61B"/>
<path d="M32 19.5012V44.4993C38.9028 44.4993 44.4984 38.9033 44.4984 32.0003C44.4984 25.0972 38.9028 19.5012 32 19.5012Z" fill="#EAA22F"/>
<path d="M32.0002 33.0776C31.6285 33.0776 31.2747 32.8847 31.0765 32.5544L27.0764 25.8876C26.7701 25.3774 26.9356 24.7156 27.4459 24.4096C27.9561 24.1032 28.6177 24.2691 28.9239 24.7791L30.9225 28.1104V26.6669C30.9225 26.0717 31.4047 25.5894 32 25.5894C32.5952 25.5894 33.0775 26.0716 33.0775 26.6669V32.0004C33.0775 32.4846 32.7545 32.9095 32.2877 33.0386C32.1924 33.065 32.0956 33.0776 32.0002 33.0776Z" fill="#59595B"/>
<path d="M32.0003 25.5892L32 33.0776H32.0003C32.0958 33.0776 32.1925 33.0649 32.2879 33.0384C32.7546 32.9091 33.0776 32.4844 33.0776 32.0001V26.6666C33.0776 26.0715 32.5954 25.5892 32.0003 25.5892Z" fill="#272525"/>
</g>
<defs>
<clipPath id="clip0_123_688">
<rect width="64" height="64" fill="white"/>
</clipPath>
</defs>
</svg>
