<svg width="66" height="76" viewBox="0 0 66 76" fill="none" xmlns="http://www.w3.org/2000/svg">
<path d="M26.8125 51.1673H39.1875V41.6918H49.5V30.3213H39.1875V20.8459H26.8125V30.3213H16.5V41.6918H26.8125V51.1673ZM33 75.8034C23.4437 73.5924 15.5547 68.5547 9.33281 60.6901C3.11094 52.8255 0 44.0923 0 34.4905V11.3705L33 0L66 11.3705V34.4905C66 44.0923 62.8891 52.8255 56.6672 60.6901C50.4453 68.5547 42.5563 73.5924 33 75.8034ZM33 67.844C40.15 65.7594 46.0625 61.5902 50.7375 55.3365C55.4125 49.0827 57.75 42.134 57.75 34.4905V16.582L33 8.05411L8.25 16.582V34.4905C8.25 42.134 10.5875 49.0827 15.2625 55.3365C19.9375 61.5902 25.85 65.7594 33 67.844Z" fill="#4891DA"/>
</svg>
