<svg width="49" height="49" viewBox="0 0 49 49" fill="none" xmlns="http://www.w3.org/2000/svg">
<g clip-path="url(#clip0_113_167)">
<path d="M24.4999 47.9791C37.4671 47.9791 47.9791 37.4672 47.9791 24.5C47.9791 11.5328 37.4671 1.02081 24.4999 1.02081C11.5327 1.02081 1.02075 11.5328 1.02075 24.5C1.02075 37.4672 11.5327 47.9791 24.4999 47.9791Z" fill="#EAEAEA"/>
<path d="M24.4999 1.02081C23.8109 1.02081 23.132 1.05654 22.4583 1.11269C28.2976 1.63798 33.7291 4.32892 37.6847 8.65634C41.6403 12.9838 43.8338 18.6345 43.8338 24.4974C43.8338 30.3603 41.6403 36.0111 37.6847 40.3385C33.7291 44.6659 28.2976 47.3569 22.4583 47.8822C23.132 47.9383 23.8109 47.974 24.4999 47.974C30.6664 47.8831 36.5494 45.3697 40.878 40.9769C45.2065 36.584 47.6329 30.6645 47.6329 24.4974C47.6329 18.3303 45.2065 12.4108 40.878 8.01799C36.5494 3.62516 30.6664 1.11174 24.4999 1.02081Z" fill="#BACECE"/>
<path d="M24.4999 47.9791C37.4671 47.9791 47.9791 37.4672 47.9791 24.5C47.9791 11.5328 37.4671 1.02081 24.4999 1.02081C11.5327 1.02081 1.02075 11.5328 1.02075 24.5C1.02075 37.4672 11.5327 47.9791 24.4999 47.9791Z" stroke="#281A3B" stroke-width="2.66667" stroke-linecap="round" stroke-linejoin="round"/>
<path d="M29.0938 29.6041H36.5611C37.0169 29.6028 37.4537 29.4211 37.776 29.0988C38.0982 28.7765 38.2799 28.3398 38.2813 27.884V22.1418C38.2813 21.6852 38.1002 21.2471 37.7778 20.9237C37.4553 20.6003 37.0178 20.418 36.5611 20.4166H29.0938V12.9543C29.0938 12.4977 28.9127 12.0596 28.5903 11.7362C28.2678 11.4128 27.8303 11.2305 27.3736 11.2291H21.6315C21.1739 11.2291 20.7351 11.4109 20.4116 11.7344C20.088 12.058 19.9062 12.4968 19.9062 12.9543V20.4166H12.4389C11.9822 20.418 11.5447 20.6003 11.2222 20.9237C10.8998 21.2471 10.7187 21.6852 10.7188 22.1418V27.884C10.7201 28.3398 10.9018 28.7765 11.224 29.0988C11.5463 29.4211 11.9831 29.6028 12.4389 29.6041H19.9062V37.0715C19.9076 37.5273 20.0893 37.964 20.4115 38.2863C20.7338 38.6086 21.1706 38.7903 21.6264 38.7916H27.3685C27.8252 38.7916 28.2633 38.6106 28.5866 38.2881C28.91 37.9657 29.0924 37.5282 29.0938 37.0715V29.6041Z" fill="#575072"/>
<path d="M29.0938 29.6041H36.5611C37.0169 29.6028 37.4537 29.4211 37.776 29.0988C38.0982 28.7765 38.2799 28.3398 38.2813 27.884V22.1418C38.2813 21.6852 38.1002 21.2471 37.7778 20.9237C37.4553 20.6003 37.0178 20.418 36.5611 20.4166H29.0938V12.9543C29.0938 12.4977 28.9127 12.0596 28.5903 11.7362C28.2678 11.4128 27.8303 11.2305 27.3736 11.2291H21.6315C21.1739 11.2291 20.7351 11.4109 20.4116 11.7344C20.088 12.058 19.9062 12.4968 19.9062 12.9543V20.4166H12.4389C11.9822 20.418 11.5447 20.6003 11.2222 20.9237C10.8998 21.2471 10.7187 21.6852 10.7188 22.1418V27.884C10.7201 28.3398 10.9018 28.7765 11.224 29.0988C11.5463 29.4211 11.9831 29.6028 12.4389 29.6041H19.9062V37.0715C19.9076 37.5273 20.0893 37.964 20.4115 38.2863C20.7338 38.6086 21.1706 38.7903 21.6264 38.7916H27.3685C27.8252 38.7916 28.2633 38.6106 28.5866 38.2881C28.91 37.9657 29.0924 37.5282 29.0938 37.0715V29.6041Z" fill="#F47C6D"/>
<path d="M29.0938 29.6041H36.5611C37.0169 29.6028 37.4537 29.4211 37.776 29.0988C38.0982 28.7765 38.2799 28.3398 38.2813 27.884V22.1418C38.2813 21.6852 38.1002 21.2471 37.7778 20.9237C37.4553 20.6003 37.0178 20.418 36.5611 20.4166H29.0938V12.9543C29.0938 12.4977 28.9127 12.0596 28.5903 11.7362C28.2678 11.4128 27.8303 11.2305 27.3736 11.2291H21.6315C21.1739 11.2291 20.7351 11.4109 20.4116 11.7344C20.088 12.058 19.9063 12.4968 19.9063 12.9543V20.4166H12.4389C11.9822 20.418 11.5447 20.6003 11.2222 20.9237C10.8998 21.2471 10.7187 21.6852 10.7188 22.1418V27.884C10.7201 28.3398 10.9018 28.7765 11.224 29.0988C11.5463 29.4211 11.9831 29.6028 12.4389 29.6041H19.9063V37.0715C19.9076 37.5273 20.0893 37.964 20.4115 38.2863C20.7338 38.6086 21.1706 38.7903 21.6264 38.7916H27.3685C27.8252 38.7916 28.2633 38.6106 28.5866 38.2881C28.91 37.9657 29.0924 37.5282 29.0938 37.0715V29.6041Z" stroke="#281A3B" stroke-width="2.66667" stroke-linecap="round" stroke-linejoin="round"/>
</g>
<defs>
<clipPath id="clip0_113_167">
<rect width="49" height="49" fill="white"/>
</clipPath>
</defs>
</svg>
