<svg width="64" height="64" viewBox="0 0 64 64" fill="none" xmlns="http://www.w3.org/2000/svg">
<path d="M63.4367 53.2583L35.358 6.69203C34.6484 5.51516 33.3742 4.79553 31.9999 4.79553C30.6256 4.79553 29.3514 5.51503 28.6417 6.69203L0.563244 53.2583C-0.167006 54.4694 -0.188631 55.98 0.506869 57.2114C1.20237 58.4429 2.50699 59.2044 3.92124 59.2044H60.0786C61.4929 59.2044 62.7975 58.4428 63.493 57.2114C64.1886 55.9799 64.167 54.4694 63.4367 53.2583Z" fill="#FF9900"/>
<path d="M31.9999 4.79565C30.6256 4.79565 29.3514 5.51515 28.6417 6.69215L0.563244 53.2583C-0.167006 54.4694 -0.188631 55.98 0.506869 57.2114C1.20237 58.4429 2.50699 59.2044 3.92124 59.2044H31.9999V4.79565Z" fill="#FFDC35"/>
<path d="M55.6657 54.0989H8.38847C7.9396 54.0989 7.5246 53.8602 7.29872 53.4724C7.07285 53.0844 7.07035 52.6056 7.29185 52.2154L30.9037 10.6285C31.1277 10.2341 31.5461 9.99024 31.9996 9.99011H32.0001C32.4534 9.99011 32.8718 10.2334 33.096 10.6275L56.7615 52.2142C56.9836 52.6046 56.9813 53.0836 56.7556 53.4719C56.5299 53.8601 56.1147 54.0989 55.6657 54.0989ZM10.5545 51.577H53.4973L32.0016 13.8029L10.5545 51.577Z" fill="#F20013"/>
<path d="M32.0415 51.577H10.5545L32.0015 13.803L32.0003 9.99036H31.9996C31.5461 9.99048 31.1276 10.2342 30.9038 10.6287L7.29202 52.2152C7.07039 52.6056 7.07302 53.0844 7.29889 53.4722C7.52477 53.8602 7.93977 54.0987 8.38864 54.0987H32.0416V51.5769H32.0415V51.577Z" fill="#FF4B00"/>
<path d="M34.9205 47.1105C34.9205 48.6535 33.6033 50.0082 32.0605 50.0082C30.4047 50.0082 29.1627 48.6535 29.1627 47.1105C29.1627 45.53 30.4046 44.2127 32.0605 44.2127C33.6032 44.2127 34.9205 45.5298 34.9205 47.1105ZM34.2055 39.9602C34.2055 41.1268 32.926 41.616 32.0227 41.616C30.8185 41.616 29.8025 41.1267 29.8025 39.9602C29.8025 35.482 29.2757 29.0467 29.2757 24.5685C29.2757 23.1008 30.48 22.2728 32.0228 22.2728C33.4905 22.2728 34.7325 23.1007 34.7325 24.5685C34.7322 29.0467 34.2055 35.482 34.2055 39.9602Z" fill="#533F29"/>
</svg>
