<svg width="152" height="179" viewBox="0 0 152 179" fill="none" xmlns="http://www.w3.org/2000/svg">
<g clip-path="url(#clip0_176_200)">
<path d="M131.882 173.721C132.463 173.758 132.785 173.033 132.345 172.61L132.301 172.435C132.307 172.421 132.313 172.407 132.318 172.393C132.907 170.986 134.901 170.996 135.485 172.405C136.002 173.656 136.662 174.909 136.824 176.232C136.897 176.816 136.864 177.41 136.735 177.983C137.948 175.325 138.587 172.422 138.587 169.503C138.587 168.769 138.547 168.036 138.465 167.304C138.398 166.706 138.305 166.111 138.185 165.522C137.535 162.336 136.129 159.302 134.101 156.768C133.126 156.233 132.313 155.397 131.821 154.396C131.645 154.034 131.507 153.646 131.441 153.25C131.552 153.264 131.86 151.569 131.776 151.465C131.931 151.23 132.207 151.113 132.376 150.883C133.216 149.741 134.373 149.941 134.978 151.493C136.268 152.146 136.281 153.23 135.489 154.272C134.985 154.935 134.916 155.832 134.474 156.541C134.519 156.6 134.566 156.656 134.612 156.715C135.446 157.787 136.167 158.941 136.775 160.152C136.604 158.806 136.857 157.184 137.29 156.138C137.782 154.947 138.705 153.943 139.518 152.913C140.494 151.676 142.496 152.216 142.668 153.784C142.669 153.8 142.671 153.815 142.673 153.83C142.552 153.898 142.434 153.971 142.318 154.048C141.659 154.485 141.887 155.509 142.668 155.63L142.685 155.633C142.642 156.069 142.567 156.501 142.458 156.926C143.501 160.97 141.25 162.443 138.036 162.509C137.965 162.546 137.896 162.582 137.825 162.617C138.15 163.537 138.41 164.48 138.603 165.436C138.776 166.281 138.896 167.135 138.963 167.992C139.047 169.074 139.04 170.162 138.949 171.242L138.954 171.203C139.185 170.014 139.829 168.903 140.764 168.133C142.157 166.985 144.125 166.562 145.628 165.64C146.351 165.196 147.278 165.77 147.152 166.611L147.146 166.651C146.922 166.742 146.704 166.848 146.493 166.967C146.372 167.035 146.254 167.108 146.138 167.184C145.479 167.621 145.707 168.646 146.488 168.767L146.506 168.769C146.518 168.771 146.529 168.773 146.542 168.775C146.158 169.689 145.623 170.537 144.954 171.269C144.302 174.799 141.502 175.134 138.507 174.106H138.505C138.178 175.537 137.699 176.934 137.084 178.266H132.009C131.991 178.21 131.974 178.151 131.958 178.095C132.427 178.124 132.9 178.096 133.362 178.011C132.986 177.547 132.609 177.08 132.233 176.617C132.223 176.608 132.216 176.599 132.209 176.589C132.018 176.352 131.825 176.117 131.634 175.88L131.634 175.879C131.622 175.151 131.709 174.425 131.882 173.721Z" fill="#F2F2F2"/>
<path d="M21.8539 173.721C21.272 173.758 20.9505 173.033 21.3907 172.61L21.4345 172.435C21.4287 172.421 21.4229 172.407 21.4171 172.393C20.8286 170.986 18.8343 170.996 18.2509 172.405C17.7331 173.656 17.0738 174.909 16.9114 176.232C16.8387 176.816 16.8714 177.41 17.0006 177.983C15.7872 175.325 15.1486 172.422 15.1486 169.503C15.1486 168.769 15.1887 168.036 15.2705 167.304C15.3379 166.706 15.4306 166.111 15.5507 165.522C16.2001 162.336 17.6064 159.302 19.6347 156.768C20.6098 156.233 21.4229 155.397 21.9141 154.396C22.0906 154.034 22.2288 153.646 22.2943 153.25C22.1834 153.264 21.8759 151.569 21.9596 151.465C21.805 151.23 21.5282 151.113 21.3593 150.883C20.5193 149.741 19.362 149.941 18.7579 151.493C17.4673 152.146 17.4548 153.23 18.2467 154.272C18.7505 154.935 18.8197 155.832 19.2618 156.541C19.2163 156.6 19.169 156.656 19.1235 156.715C18.2895 157.787 17.5682 158.941 16.9601 160.152C17.132 158.806 16.8783 157.184 16.4457 156.138C15.9533 154.947 15.0304 153.943 14.2177 152.913C13.2415 151.676 11.2397 152.216 11.0677 153.784C11.066 153.8 11.0644 153.815 11.0628 153.83C11.1835 153.898 11.3018 153.971 11.4173 154.048C12.0762 154.485 11.8485 155.509 11.0678 155.63L11.0501 155.633C11.0937 156.069 11.1683 156.501 11.2775 156.926C10.2348 160.97 12.4858 162.443 15.6998 162.509C15.7708 162.546 15.8399 162.582 15.9109 162.617C15.5852 163.537 15.3251 164.48 15.1323 165.436C14.9595 166.281 14.8394 167.135 14.7721 167.992C14.6884 169.074 14.6957 170.162 14.7866 171.242L14.7812 171.203C14.5502 170.014 13.9062 168.903 12.9711 168.133C11.5782 166.985 9.61018 166.562 8.10744 165.64C7.38406 165.196 6.4571 165.77 6.58335 166.611L6.5895 166.651C6.81325 166.742 7.03154 166.848 7.24257 166.967C7.36329 167.035 7.48155 167.108 7.59707 167.184C8.256 167.621 8.02827 168.646 7.24752 168.767L7.22983 168.769C7.2171 168.771 7.20618 168.773 7.19346 168.775C7.57731 169.689 8.11213 170.537 8.78158 171.269C9.4335 174.799 12.2335 175.134 15.2287 174.106H15.2305C15.558 175.537 16.0364 176.934 16.6513 178.266H21.7267C21.7449 178.21 21.7613 178.151 21.7777 178.095C21.3083 178.124 20.8354 178.096 20.3733 178.011C20.7499 177.547 21.1264 177.08 21.503 176.617C21.5121 176.608 21.5194 176.599 21.5266 176.589C21.7176 176.352 21.9105 176.117 22.1015 175.88L22.1016 175.879C22.1135 175.151 22.0264 174.425 21.8539 173.721Z" fill="#F2F2F2"/>
<path d="M0 178.664C0 178.85 0.149285 179 0.335185 179H151.665C151.851 179 152 178.85 152 178.664C152 178.477 151.851 178.328 151.665 178.328H0.335185C0.149285 178.328 0 178.477 0 178.664Z" fill="#CCCCCC"/>
<path d="M109.105 172.198L112.094 172.172L113.417 160.338L109.005 160.376L109.105 172.198Z" fill="#A0616A"/>
<path d="M118.094 175.868L113.32 172.62L113.302 170.474L112.275 170.543L109.092 170.763L108.312 170.815L107.746 178.398L109.989 178.378L110.371 176.252L111.411 178.367L117.355 178.317C118.093 178.31 118.686 177.703 118.68 176.965C118.676 176.525 118.457 176.115 118.094 175.868Z" fill="#2F2E41"/>
<path d="M93.8952 172.198L96.8845 172.172L98.2077 160.338L93.7958 160.376L93.8952 172.198Z" fill="#A0616A"/>
<path d="M102.885 175.868L98.1103 172.62L98.0922 170.474L97.0655 170.543L93.8831 170.763L93.1028 170.815L92.5366 178.398L94.7792 178.378L95.1613 176.252L96.2018 178.367L102.145 178.317C102.884 178.31 103.477 177.703 103.47 176.965C103.467 176.525 103.248 176.115 102.885 175.868Z" fill="#2F2E41"/>
<path d="M117.47 14.627C116.596 16.1022 117.079 18.009 118.55 18.8859C119.224 19.2877 119.988 19.4005 120.702 19.2662L120.705 19.2693L124.545 23.4892L129.058 21.8492L123.138 15.3654L123.117 15.3874C122.912 14.6415 122.432 13.9704 121.716 13.5438C120.246 12.6669 118.344 13.1518 117.47 14.627Z" fill="#A0616A"/>
<path d="M120.835 76.5203L108.718 76.904L97.2384 79.4626C97.2384 79.4626 98.3863 80.8697 94.5599 84.7075C94.5599 84.7075 89.4579 93.6624 93.0293 102.361L94.0301 125.113C94.0301 125.113 94.8839 126.915 94.1144 127.031C93.345 127.147 93.4002 128.496 94.2176 129.375C95.0349 130.254 94.2932 131.094 94.2932 131.094C95.8678 132.147 94.7064 134.983 94.5599 137.157C94.5599 137.157 90.0972 161.686 93.5069 169.493L98.0134 169.775L105.639 137.44L109.356 102.617L111.141 136.901C111.141 136.901 104.31 160.433 108.624 169.775L113.504 169.493L121.855 136.901C121.855 136.901 123.261 122.099 124.182 109.299C124.25 108.363 123.862 106.25 124.376 106.529C124.89 106.808 123.593 104.583 124.523 104.283C125.454 103.983 123.889 101.667 124.671 101.836C125.454 102.006 124.17 83.4167 124.045 81.6667C123.535 74.5028 120.835 76.5203 120.835 76.5203Z" fill="#2F2E41"/>
<path d="M114.484 46.2851C113.196 46.2852 111.953 45.7843 110.998 44.8459C109.716 43.5871 109.208 41.7927 109.639 40.0461C110.136 38.0346 111.779 36.5539 113.826 36.2735L130.79 33.9501L122.076 21.6629L126.977 19.1678L139.691 33.8082C140.58 34.8324 140.876 36.2194 140.482 37.5187C140.088 38.8181 139.073 39.8051 137.765 40.1593L115.811 46.1072C115.37 46.2266 114.925 46.2851 114.484 46.2851Z" fill="#E6E6E6"/>
<path d="M125.052 81.6393L94.3519 83.0518C93.5087 81.7675 93.737 79.8365 94.9179 77.4184C99.3763 68.2885 95.9903 51.0164 93.7125 42.0228C93.0734 39.4994 94.789 36.9908 97.372 36.7317L100.267 36.4414L102.942 28.2493H112.313L116.201 32.7039L122.799 36.7239C121.598 49.1306 116.481 66.65 123.771 75.4358C125.365 77.3574 125.817 79.4354 125.052 81.6393Z" fill="#E6E6E6"/>
<path d="M107.055 27.064C106.345 27.3274 105.618 27.5749 104.862 27.7597C103.879 27.9999 103.324 28.1112 102.376 27.7421C102.343 27.7291 102.311 27.7163 102.281 27.7037C98.7387 26.2218 96.2266 22.6876 96.1492 18.5417C96.1444 18.4745 96.1444 18.4038 96.1444 18.3349C96.1444 18.0006 96.1587 17.668 96.1918 17.3406C96.2345 16.8857 96.3056 16.4394 96.4067 16.0035L96.3972 16.0017C95.6294 15.2142 95.3339 14.1355 95.4319 13.0517C95.5567 11.6353 96.3514 10.2085 97.628 9.40549C98.5775 8.80928 99.6598 8.41123 100.821 8.2751C101.123 8.24064 101.428 8.22169 101.739 8.22169H104.621C105.232 8.08039 105.84 7.98217 106.43 7.93564H106.435C112.234 7.45316 116.808 11.3096 116.382 16.0017C116.379 16.0069 116.374 16.0121 116.371 16.0172C116.247 16.2188 116.138 16.4101 116.042 16.5928C115.949 16.7634 115.87 16.9271 115.802 17.0822C115.273 18.2815 117.788 36.8888 116.886 37.1714C116.372 37.3317 114.303 23.4854 114.674 26.1184C115.141 29.4217 109.727 26.0734 107.055 27.064Z" fill="#2F2E41"/>
<path d="M107.132 25.7745C110.899 25.7745 113.953 22.7112 113.953 18.9325C113.953 15.1537 110.899 12.0905 107.132 12.0905C103.364 12.0905 100.31 15.1537 100.31 18.9325C100.31 22.7112 103.364 25.7745 107.132 25.7745Z" fill="#A0616A"/>
<path d="M113.064 16.0392C112.95 16.0994 112.838 16.1549 112.724 16.2103C112.606 16.2674 112.487 16.3244 112.367 16.3783C110.084 17.4162 108.225 17.5319 107.096 16.0392C107.065 15.258 106.891 14.4815 106.577 13.7605C106.635 14.5592 106.417 15.3737 105.975 16.0392H103.703C101.363 17.5968 100.162 19.0278 101.786 24.1413C101.892 24.4772 102.617 36.4124 102.824 37.3299C99.2822 35.9671 96.2266 21.4981 96.1492 17.6856C96.1444 17.6238 96.1444 17.5588 96.1444 17.4954C96.1444 17.188 96.1587 16.8822 96.1918 16.5811C96.2345 16.1628 96.3056 15.7524 96.4067 15.3515L96.3972 15.3499C95.6294 14.6257 95.3339 13.6338 95.4319 12.637C96.0228 11.8606 96.7575 11.1982 97.5996 10.688C98.3532 10.3204 99.1479 10.0225 99.9726 9.79427C99.9932 9.78952 100.011 9.78476 100.031 9.78001C100.281 9.71187 100.537 9.65008 100.793 9.59619C101.316 9.48686 101.846 9.40445 102.39 9.35376C102.429 9.35217 102.467 9.349 102.502 9.349C102.725 9.349 102.932 9.4108 103.112 9.51696C103.113 9.51696 103.114 9.51855 103.117 9.51855C103.248 9.59619 103.365 9.6992 103.456 9.82279C103.613 10.0225 103.703 10.2728 103.703 10.5454H106.234C106.327 10.5454 106.42 10.5485 106.513 10.5533C110.038 10.6943 112.871 12.206 113.053 15.6811C113.061 15.8015 113.064 15.9188 113.064 16.0392Z" fill="#2F2E41"/>
<path d="M98.0999 16.3142C100.582 16.3142 102.594 14.2961 102.594 11.8067C102.594 9.31723 100.582 7.29913 98.0999 7.29913C95.6178 7.29913 93.6057 9.31723 93.6057 11.8067C93.6057 14.2961 95.6178 16.3142 98.0999 16.3142Z" fill="#2F2E41"/>
<path d="M104.27 9.72179C103.759 12.158 101.24 13.6151 98.8305 13.019C96.4206 12.423 94.9487 9.98043 95.543 7.56338C96.1372 5.14633 99.062 5.84314 100.983 4.26613C103.699 2.03522 104.959 6.43636 104.27 9.72179Z" fill="#2F2E41"/>
<path d="M112.539 61.3692C112.186 59.69 110.543 58.6158 108.869 58.9699C108.101 59.1322 107.464 59.568 107.029 60.1522L107.024 60.1518L101.349 59.6566L99.1375 63.9286L107.871 64.6767L107.872 64.6462C108.527 65.0553 109.333 65.2232 110.147 65.0509C111.821 64.6968 112.893 63.0484 112.539 61.3692Z" fill="#A0616A"/>
<path d="M86.5398 65.047C84.9178 65.047 83.4334 64.2285 82.5639 62.8531C81.6895 61.4696 81.5887 59.7616 82.2942 58.2843L91.5632 38.8785C92.3383 37.2557 93.8682 36.1952 95.6559 36.0418C97.4404 35.8876 99.1307 36.6724 100.17 38.1396C101.366 39.829 101.413 42.0444 100.29 43.7836L90.9811 58.1948L105.951 59.5848L104.64 64.9386L86.5688 65.0469L86.5398 65.047Z" fill="#E6E6E6"/>
<path d="M121.394 21.4547C121.394 21.4492 121.394 21.4441 121.395 21.4397C121.405 21.3666 121.484 21.3528 121.51 21.3482C121.647 21.324 122.41 21.3422 122.515 21.5394C122.547 21.5998 122.742 21.5836 122.884 21.5718C122.984 21.5635 123.088 21.5549 123.178 21.5624C125.48 21.7536 127.252 21.7196 128.304 21.464C129.101 21.2705 129.767 20.7741 130.181 20.0664C130.594 19.3607 130.704 18.5395 130.481 17.7502L129.852 15.4907C129.635 14.7103 129.125 14.0657 128.417 13.6759C127.704 13.2834 126.881 13.1982 126.1 13.4358C124.643 13.8794 122.537 15.2049 121.027 16.2386C120.965 16.2809 120.878 16.3264 120.793 16.3704C120.721 16.4079 120.619 16.4611 120.571 16.4963C120.581 16.5202 120.576 16.5416 120.574 16.5501C120.558 16.6162 120.494 16.6275 120.413 16.6417C120.362 16.6505 120.244 16.6712 120.224 16.7043C120.221 16.7091 120.224 16.72 120.226 16.726C120.249 16.796 120.218 16.8327 120.197 16.8481C120.137 16.894 120.078 16.8541 119.971 16.7817C119.89 16.7265 119.7 16.5972 119.64 16.637C119.625 16.6473 119.552 16.7208 119.641 17.1589C119.667 17.2836 119.642 17.3952 119.57 17.4815C119.397 17.6902 119.002 17.6859 118.985 17.6856L117.919 17.5862C115.95 17.4023 114.036 18.1159 112.665 19.5442L112.649 19.5611L111.622 19.8264L112.406 22.8757L113.461 22.6031L113.487 22.6153C115.089 23.3471 116.976 23.0113 119.257 21.5886L119.904 21.1847L119.928 21.1846C120.354 21.1839 120.881 21.2084 120.97 21.3294C120.984 21.3486 120.992 21.3707 120.992 21.3933C121.057 21.428 121.264 21.4545 121.394 21.4547Z" fill="#6C63FF"/>
<path d="M110.832 23.3898C110.863 23.5114 110.987 23.5848 111.108 23.5535L112.589 23.1708C112.71 23.1394 112.783 23.0151 112.752 22.8934L111.875 19.4827C111.844 19.3611 111.72 19.2877 111.599 19.319L110.118 19.7017C109.997 19.7331 109.924 19.8574 109.955 19.9791L110.832 23.3898Z" fill="#3F3D56"/>
<path d="M110.748 22.6153C111.215 22.6153 111.593 22.2359 111.593 21.7679C111.593 21.2998 111.215 20.9204 110.748 20.9204C110.282 20.9204 109.904 21.2998 109.904 21.7679C109.904 22.2359 110.282 22.6153 110.748 22.6153Z" fill="#3F3D56"/>
<path d="M62.7216 174.349L58.8514 174.348L57.0104 159.376L62.7224 159.377L62.7216 174.349Z" fill="#FFB6B6"/>
<path d="M62.8578 178.398L50.9565 178.398V178.247C50.9567 175.681 53.0306 173.601 55.5889 173.601H55.5891L57.7631 171.947L61.8191 173.601L62.858 173.601L62.8578 178.398Z" fill="#2F2E41"/>
<path d="M47.2306 174.349L43.3605 174.348L41.5194 159.376L47.2314 159.377L47.2306 174.349Z" fill="#FFB6B6"/>
<path d="M47.3669 178.398L35.4656 178.398V178.247C35.4657 175.681 37.5396 173.601 40.0979 173.601H40.0982L42.2721 171.947L46.3281 173.601L47.3671 173.601L47.3669 178.398Z" fill="#2F2E41"/>
<path d="M46.8524 11.7606C48.0408 13.0683 47.9471 15.0947 46.6432 16.2866C46.0457 16.8327 45.2979 17.1056 44.5485 17.1188L44.5463 17.1225L37.7395 28.8143L32.9222 26.4616L41.281 13.6864L41.3067 13.7043C41.3598 12.9082 41.7053 12.1306 42.3397 11.5507C43.6436 10.3588 45.664 10.4528 46.8524 11.7606Z" fill="#FFB6B6"/>
<path d="M43.0909 75.4246C43.0909 75.4246 37.0889 118.772 40.5737 127.219L41.0565 164.791H47.6259L53.3338 129.258C53.3338 129.258 52.753 128.384 53.9146 127.219C55.0762 126.054 55.0762 127.219 55.0762 126.054C55.0762 124.889 51.8818 120.811 51.8818 120.811L54.7053 104.209L57.0285 164.791L63.1269 164.5C63.1269 164.5 68.9349 144.986 68.0637 135.957C68.0637 135.957 67.4829 129.84 67.4829 128.966C67.4829 128.093 66.6117 126.636 67.4829 125.763C68.3541 124.889 68.6003 122.692 68.1868 122.334C67.7733 121.976 67.7733 120.353 67.7733 120.353L74.1621 96.928V78.9892L43.0909 75.4246Z" fill="#2F2E41"/>
<path d="M63.7077 21.4919L54.9957 22.3657L50.7792 27.9693L45.7029 31.7023V62.6145L46.7524 69.7748C44.4703 71.4199 41.2235 74.1508 42.5276 77.1195C42.5276 77.1195 67.3319 85.1794 74.3015 78.1891L73.7207 60.5206L75.4801 36.2284C75.8288 31.4133 72.7708 27.0101 68.1467 25.6691L64.4714 24.6033L63.7077 21.4919Z" fill="#E6E6E6"/>
<path d="M72.6072 94.4712C74.344 94.1607 75.501 92.4968 75.1914 90.7548C75.0496 89.9566 74.6224 89.2831 74.0363 88.8147L74.0368 88.8104L75.1994 72.5998L70.1301 70.0841L69.36 89.539L69.3913 89.5404C68.9497 90.2041 68.7511 91.0318 68.9018 91.8794C69.2114 93.6213 70.8704 94.7817 72.6072 94.4712Z" fill="#FFB6B6"/>
<path d="M75.4811 78.532L69.848 78.8145L67.7142 67.3557L62.9214 35.6642C62.6448 33.8353 63.1582 31.9671 64.3298 30.5386C65.5014 29.1101 67.2301 28.2446 69.0725 28.164C72.5538 28.0089 75.526 30.6198 75.8382 34.1008L78.1664 60.0682L75.4811 78.532Z" fill="#E6E6E6"/>
<path d="M45.9932 31.3948L46.574 43.6277L33.252 43.9459C28.3926 44.062 25.3441 38.7236 27.9026 34.5785L34.9733 22.0803L39.5694 26.1637L36.1197 34.5986L45.9932 31.3948Z" fill="#E6E6E6"/>
<path d="M57.6232 19.3427C62.1159 19.3427 65.7579 15.6899 65.7579 11.1839C65.7579 6.67786 62.1159 3.02502 57.6232 3.02502C53.1305 3.02502 49.4884 6.67786 49.4884 11.1839C49.4884 15.6899 53.1305 19.3427 57.6232 19.3427Z" fill="#FFB6B6"/>
<path d="M65.7217 16.7577C64.8345 17.8707 64.0769 18.5232 62.8545 18.9893C62.8348 18.8198 62.8235 18.6475 62.8264 18.4752C62.6573 18.7068 62.4912 18.9385 62.3194 19.1701C61.5589 19.4046 60.6295 19.5882 59.4268 19.7746L58.8353 17.9639C58.7424 17.1447 59.2831 16.3904 59.8859 15.8283C60.4886 15.269 61.1928 14.7887 61.6068 14.0769C62.0208 13.365 62.0152 12.3029 61.3251 11.8565C60.6464 11.413 59.7141 11.7774 58.948 11.5147C58.0636 11.2125 57.6496 10.1277 57.796 9.20115C57.9425 8.27459 58.503 7.47514 59.0466 6.71525C57.7791 7.26893 55.8611 7.33956 53.9937 7.00905C54.0613 6.4243 53.9205 5.81131 53.5684 5.33954C53.5346 5.8791 53.2839 6.39887 52.8896 6.76329C51.0955 6.28023 49.49 5.42148 48.7578 4.26327C49.0817 4.17853 49.4056 4.09095 49.7295 4.00621C49.6365 3.33955 49.5436 2.67569 49.4506 2.01186C49.8449 2.20677 50.2421 2.40452 50.6392 2.59943C50.7152 2.37343 50.8307 2.1757 50.9772 2.00055C51.3123 1.89322 51.6588 1.82823 52.0108 1.80282C52.1235 1.79716 52.239 1.79151 52.3545 1.79151C52.5235 1.79151 52.6981 1.79716 52.8671 1.81694C52.6558 1.62485 52.4418 1.43557 52.2305 1.24067C52.2052 1.21807 52.1827 1.19547 52.1573 1.17286C52.5432 1.0062 52.96 0.87908 53.3543 0.768907C55.0781 0.288676 56.8637 -0.194365 58.6325 0.0796389C59.7624 0.254959 60.8865 0.82806 61.6198 1.6828C62.2744 2.44583 63.1986 2.89798 64.1823 3.09768C64.655 3.19364 65.1128 3.40575 65.4936 3.70113C65.2542 3.85649 65.0007 3.9921 64.7359 4.09944C65.2373 4.22091 65.7358 4.34238 66.2372 4.46667C66.7047 5.08532 67.023 5.82261 67.2652 6.56272C68.3862 9.97234 67.9581 13.9554 65.7217 16.7577Z" fill="#2F2E41"/>
<path d="M37.4421 14.7746C37.4426 14.7803 37.4427 14.7855 37.4423 14.7901C37.4371 14.8661 37.3573 14.8862 37.3311 14.8929C37.192 14.9282 36.4065 14.9676 36.2836 14.7727C36.2461 14.7131 36.0465 14.7446 35.9009 14.7676C35.7987 14.7838 35.693 14.8005 35.5999 14.7996C33.2185 14.7781 31.3983 14.948 30.336 15.2908C29.5317 15.5504 28.8839 16.1116 28.5118 16.8708C28.141 17.6278 28.0899 18.4807 28.3789 19.2753L29.1966 21.5507C29.479 22.3367 30.0517 22.9607 30.8095 23.3076C31.5723 23.657 32.4247 23.682 33.2094 23.3782C34.6742 22.8111 36.7397 21.288 38.2145 20.1101C38.2748 20.0619 38.3611 20.0085 38.4447 19.9568C38.5161 19.9127 38.6171 19.8503 38.6636 19.8105C38.6512 19.7867 38.6545 19.7642 38.6559 19.7554C38.6676 19.6862 38.7329 19.6697 38.8155 19.6489C38.8667 19.636 38.9866 19.6057 39.0045 19.5702C39.0071 19.565 39.0036 19.554 39.0009 19.548C38.9716 19.4778 39.0013 19.4377 39.0211 19.4203C39.0802 19.3685 39.1436 19.405 39.2585 19.4713C39.3463 19.5219 39.5519 19.6404 39.6102 19.595C39.6252 19.5832 39.6939 19.5021 39.5695 19.0584C39.534 18.9321 39.5507 18.8154 39.6178 18.7212C39.7799 18.4935 40.1874 18.4678 40.2046 18.4668L41.3085 18.4879C43.3461 18.5273 45.2611 17.6477 46.5624 16.0748L46.5779 16.0562L47.613 15.7053L46.5765 12.6295L45.5129 12.99L45.4846 12.9795C43.7819 12.3489 41.8668 12.8378 39.6296 14.4742L38.9944 14.9389L38.9702 14.9407C38.5318 14.9739 37.9882 14.9888 37.8876 14.8711C37.8716 14.8525 37.8619 14.8304 37.8599 14.8071C37.7906 14.7763 37.5758 14.7649 37.4421 14.7746Z" fill="#6C63FF"/>
<path d="M48.1565 11.981C48.1151 11.8583 47.9821 11.7923 47.8597 11.8337L46.3664 12.3399C46.2441 12.3814 46.1782 12.5149 46.2196 12.6375L47.3789 16.0779C47.4202 16.2006 47.5533 16.2667 47.6756 16.2252L49.1689 15.719C49.2913 15.6776 49.3571 15.5441 49.3158 15.4214L48.1565 11.981Z" fill="#3F3D56"/>
<path d="M48.3649 14.5162C48.846 14.5162 49.236 14.125 49.236 13.6424C49.236 13.1598 48.846 12.7686 48.3649 12.7686C47.8837 12.7686 47.4937 13.1598 47.4937 13.6424C47.4937 14.125 47.8837 14.5162 48.3649 14.5162Z" fill="#3F3D56"/>
</g>
<defs>
<clipPath id="clip0_176_200">
<rect width="152" height="179" fill="white"/>
</clipPath>
</defs>
</svg>
