<svg width="64" height="64" viewBox="0 0 64 64" fill="none" xmlns="http://www.w3.org/2000/svg">
<g clip-path="url(#clip0_123_722)">
<path d="M32 64C49.6731 64 64 49.6731 64 32C64 14.3269 49.6731 0 32 0C14.3269 0 0 14.3269 0 32C0 49.6731 14.3269 64 32 64Z" fill="#273B7A"/>
<path d="M32.2185 63.9972C49.786 63.8794 63.992 49.6076 63.9997 32.0142L47.9601 16.1297L45.2614 15.4344L39.1844 11.1616L22.2044 12.0942L11.5292 23.9465V40.4587L15.4165 46.4376L16.0869 47.8655L32.2185 63.9972Z" fill="#121149"/>
<path d="M20.5256 44.8797H30.3728L33.6551 22.4434H17.2433L20.5256 44.8797Z" fill="#EAA22F"/>
<path d="M33.6551 22.4434H25.3199V44.8797H30.3729L33.6551 22.4434Z" fill="#E09112"/>
<path d="M32.9359 27.3599H17.9626L19.2393 36.085H31.6594L32.9359 27.3599Z" fill="#C92F00"/>
<path d="M34.017 19.8981H16.8793V23.3258H34.017V19.8981Z" fill="#C92F00"/>
<path d="M32.9359 27.3599H25.3199V36.0852H31.6594L32.9359 27.3599Z" fill="#930000"/>
<path d="M34.0191 19.8981H25.3199V23.3258H34.0191V19.8981Z" fill="#930000"/>
<path d="M48.4275 39.5821H27.8608C27.8608 35.7959 30.9302 32.7266 34.7163 32.7266H41.5718C45.3581 32.7266 48.4275 35.7959 48.4275 39.5821Z" fill="#FEE187"/>
<path d="M31.2885 46.4376H44.9996C46.8927 46.4376 48.4273 44.9029 48.4273 43.0099H27.8606C27.8606 44.9029 29.3953 46.4376 31.2885 46.4376Z" fill="#FEE187"/>
<path d="M48.4275 39.5821C48.4275 35.7957 45.3581 32.7266 41.572 32.7266H37.9619V39.5821H48.4275Z" fill="#FFC61B"/>
<path d="M37.9619 43.0098V46.4375H44.9997C46.8929 46.4375 48.4275 44.9028 48.4275 43.0098H37.9619Z" fill="#FFC61B"/>
<path d="M47.7987 43.5812H28.4895C27.3965 43.5812 26.5105 42.6951 26.5105 41.6022V40.9899C26.5105 39.8969 27.3966 39.0109 28.4895 39.0109H47.7987C48.8918 39.0109 49.7777 39.897 49.7777 40.9899V41.6022C49.7777 42.6951 48.8918 43.5812 47.7987 43.5812Z" fill="#D35933"/>
<path d="M47.7987 39.0109H37.9619V43.5811H47.7987C48.8917 43.5811 49.7777 42.695 49.7777 41.6021V40.9897C49.7777 39.8967 48.8917 39.0109 47.7987 39.0109Z" fill="#B54324"/>
<path d="M32 9.48145C19.5834 9.48145 9.48151 19.5833 9.48151 31.9999C9.48151 44.4166 19.5834 54.5184 32 54.5184C44.4166 54.5184 54.5185 44.4166 54.5185 31.9999C54.5185 19.5833 44.4166 9.48145 32 9.48145ZM32 11.8518C37.1293 11.8518 41.8161 13.7796 45.3769 16.9472L16.9473 45.3768C13.7796 41.8161 11.8519 37.1292 11.8519 31.9999C11.8519 20.8902 20.8903 11.8518 32 11.8518ZM32 52.1481C26.8708 52.1481 22.1839 50.2203 18.6231 47.0527L47.0528 18.6231C50.2204 22.1838 52.1481 26.8707 52.1481 31.9999C52.1481 43.1097 43.1098 52.1481 32 52.1481Z" fill="white"/>
<path d="M32 9.48145C31.9761 9.48145 31.9521 9.48232 31.9282 9.48232V11.8527C31.9521 11.8527 31.9761 11.8518 32 11.8518C37.1292 11.8518 41.8161 13.7796 45.3769 16.9472L31.9282 30.3958V33.7477L47.0527 18.6232C50.2203 22.1837 52.1481 26.8706 52.1481 31.9998C52.1481 43.1096 43.1097 52.1479 32 52.1479C31.9758 52.1479 31.9523 52.1465 31.9282 52.1462V54.5174C31.9521 54.5174 31.9761 54.5183 32 54.5183C44.4166 54.5183 54.5185 44.4164 54.5185 31.9998C54.5185 19.5832 44.4166 9.48145 32 9.48145Z" fill="#D0D1D3"/>
</g>
<defs>
<clipPath id="clip0_123_722">
<rect width="64" height="64" fill="white"/>
</clipPath>
</defs>
</svg>
