<svg width="67" height="53" viewBox="0 0 67 53" fill="none" xmlns="http://www.w3.org/2000/svg">
<path d="M0.583344 16.625V6.75002C0.583344 4.9396 1.22796 3.38978 2.5172 2.10054C3.80643 0.811305 5.35626 0.166687 7.16668 0.166687H59.8333C61.6438 0.166687 63.1936 0.811305 64.4828 2.10054C65.7721 3.38978 66.4167 4.9396 66.4167 6.75002V16.625H59.8333V6.75002H7.16668V16.625H0.583344ZM7.16668 52.8334C5.35626 52.8334 3.80643 52.1887 2.5172 50.8995C1.22796 49.6103 0.583344 48.0604 0.583344 46.25V36.375H7.16668V46.25H59.8333V36.375H66.4167V46.25C66.4167 48.0604 65.7721 49.6103 64.4828 50.8995C63.1936 52.1887 61.6438 52.8334 59.8333 52.8334H7.16668ZM26.9167 42.9584C27.5201 42.9584 28.0962 42.8075 28.6448 42.5058C29.1934 42.204 29.6049 41.7514 29.8792 41.1479L40.0833 20.7396L43.7042 27.9813C43.9785 28.5847 44.3899 29.0373 44.9385 29.3391C45.4872 29.6408 46.0632 29.7917 46.6667 29.7917H66.4167V23.2084H48.724L43.0458 11.8521C42.7715 11.2486 42.3601 10.8235 41.8115 10.5766C41.2629 10.3297 40.6868 10.2063 40.0833 10.2063C39.4799 10.2063 38.9038 10.3297 38.3552 10.5766C37.8066 10.8235 37.3951 11.2486 37.1208 11.8521L26.9167 32.2604L23.2958 25.0188C23.0215 24.4153 22.6101 23.9627 22.0615 23.661C21.5129 23.3592 20.9368 23.2084 20.3333 23.2084H0.583344V29.7917H18.2761L23.9542 41.1479C24.2285 41.7514 24.6399 42.204 25.1886 42.5058C25.7372 42.8075 26.3132 42.9584 26.9167 42.9584Z" fill="#4891DA"/>
</svg>
