<svg width="64" height="64" viewBox="0 0 64 64" fill="none" xmlns="http://www.w3.org/2000/svg">
<g clip-path="url(#clip0_123_708)">
<path d="M32 64C49.6731 64 64 49.6731 64 32C64 14.3269 49.6731 0 32 0C14.3269 0 0 14.3269 0 32C0 49.6731 14.3269 64 32 64Z" fill="#263A7A"/>
<path d="M63.7515 35.9999L53.689 25.5629L53.3336 25.582L50.1107 22.3591L50.6094 32.2511H29.5694L19.6774 22.3591L16.5011 30.0049L16.4345 29.9383L10.2816 38.4063L36.0129 63.75C50.4816 61.9398 61.947 50.4704 63.7515 35.9999Z" fill="#121149"/>
<path d="M45.5261 28.619H18.4738V35.3821H45.5261V28.619Z" fill="white"/>
<path d="M45.5261 32H18.4738V35.3815H45.5261V32Z" fill="#D0D1D3"/>
<path d="M18.474 42.1445H15.0924C14.1586 42.1445 13.4016 41.3875 13.4016 40.4537V23.5461C13.4016 22.6123 14.1586 21.8553 15.0924 21.8553H18.4739C19.4076 21.8553 20.1646 22.6123 20.1646 23.5461V40.4537C20.1647 41.3875 19.4077 42.1445 18.474 42.1445Z" fill="#FFC91B"/>
<path d="M13.4016 32V40.4539C13.4016 41.3876 14.1586 42.1446 15.0924 42.1446H18.4739C19.4076 42.1446 20.1646 41.3876 20.1646 40.4539V32H13.4016Z" fill="#EAA22F"/>
<path d="M12.352 38.7631H11.07C10.4901 38.7631 10.0201 38.2931 10.0201 37.7133V26.2868C10.0201 25.7069 10.4901 25.2369 11.07 25.2369H12.352C12.9319 25.2369 13.4019 25.7069 13.4019 26.2868V37.7133C13.4016 38.2931 12.9316 38.7631 12.352 38.7631Z" fill="#FF7F4F"/>
<path d="M10.0203 32V37.7132C10.0203 38.2929 10.4903 38.7631 11.0701 38.7631H12.3521C12.932 38.7631 13.402 38.2931 13.402 37.7132V32H10.0203Z" fill="#D35933"/>
<path d="M45.526 21.8555H48.9075C49.8413 21.8555 50.5983 22.6125 50.5983 23.5462V40.4538C50.5983 41.3876 49.8413 42.1446 48.9075 42.1446H45.526C44.5923 42.1446 43.8353 41.3876 43.8353 40.4538V23.5461C43.8353 22.6125 44.5923 21.8555 45.526 21.8555Z" fill="#FFC91B"/>
<path d="M43.8353 32V40.4539C43.8353 41.3876 44.5923 42.1446 45.526 42.1446H48.9075C49.8413 42.1446 50.5983 41.3876 50.5983 40.4539V32H43.8353Z" fill="#EAA22F"/>
<path d="M51.648 25.2369H52.93C53.5099 25.2369 53.9799 25.7069 53.9799 26.2868V37.7133C53.9799 38.2931 53.5099 38.7631 52.93 38.7631H51.648C51.0681 38.7631 50.5981 38.2931 50.5981 37.7133V26.2868C50.5984 25.7069 51.0684 25.2369 51.648 25.2369Z" fill="#FF7F4F"/>
<path d="M50.5984 32V37.7132C50.5984 38.2929 51.0684 38.7631 51.6483 38.7631H52.9303C53.5101 38.7631 53.9801 38.2931 53.9801 37.7132V32H50.5984Z" fill="#D35933"/>
</g>
<defs>
<clipPath id="clip0_123_708">
<rect width="64" height="64" fill="white"/>
</clipPath>
</defs>
</svg>
