<svg width="49" height="49" viewBox="0 0 49 49" fill="none" xmlns="http://www.w3.org/2000/svg">
<path d="M38.8401 26.1992C38.8401 26.1992 38.3196 23.8274 40.9878 22.8775C41.9057 22.5508 42.6974 22.6461 43.4589 23.387C43.8493 23.7762 44.1505 24.2835 44.3326 24.859C44.5148 25.4345 44.5717 26.0584 44.4978 26.6692C44.3929 27.4712 43.9565 28.3036 43.2991 28.3919C43.6558 28.7224 43.9358 29.1618 44.1113 29.6665C44.2867 30.1711 44.3516 30.7233 44.2994 31.2683C44.1846 32.3527 43.7468 33.1257 42.7343 33.7349C40.9514 34.8075 39.5343 33.7349 39.5343 33.7349" fill="white"/>
<path d="M24.2139 39.9879C23.9675 39.902 23.686 40.4089 23.6078 40.7081C23.4593 41.2757 23.4375 41.8817 23.5444 42.4632C23.6514 43.0446 23.8832 43.5802 24.2159 44.0144C24.5486 44.4485 24.9699 44.7652 25.436 44.9316C25.9021 45.098 26.3961 45.108 26.8664 44.9605C26.4754 45.6981 26.7432 46.7186 27.219 47.3775C27.5851 47.8731 28.05 48.243 28.5679 48.4508C29.0859 48.6586 29.639 48.6971 30.1727 48.5626C31.2338 48.2788 31.9036 47.5873 32.2478 46.2537C32.592 44.9202 32.2858 43.3559 32.2858 43.3559" fill="white"/>
<path d="M9.66145 19.7701L29.1534 34.8079L37.6934 28.0177C37.2053 26.978 36.3286 25.1106 35.6753 23.72C35.7904 23.7489 35.8921 23.7693 35.9771 23.7805C36.6115 23.858 37.2711 23.8727 37.8649 23.5877C38.4588 23.3028 38.9748 22.658 39.0289 21.8777C39.0389 21.7341 39.0381 21.217 38.683 20.951C37.7602 20.2601 36.9405 19.9212 36.0163 19.2329C34.7579 18.2956 33.4614 17.3154 32.6229 15.83L30.3972 11.8853L30.0934 11.4108L27.611 7.52364C27.308 7.04938 26.9957 6.56467 26.5759 6.25112C26.0117 5.82951 25.3241 5.76686 24.6658 5.69664C21.7895 5.39005 18.6773 4.90443 15.9058 3.91096C14.034 3.12737 12.7584 2.40719 11.512 1.13043C11.512 1.13043 7.29181 0.0838331 6.73739 4.16943C6.63437 4.92804 6.48723 5.80152 6.34982 6.74717C5.74808 10.895 5.33328 16.4314 9.66145 19.7701Z" fill="#FCE0CD"/>
<path d="M32.3679 16.012C33.2888 17.6268 34.7026 18.7309 36.0751 19.6955C36.8251 20.2225 37.6319 20.6142 38.3784 21.1493C38.5135 21.218 38.6251 21.342 38.6942 21.5002C38.7079 21.5505 38.7191 21.6017 38.7278 21.6537C38.7477 21.7703 38.7269 21.5931 38.7332 21.7003C38.7354 21.7387 38.7368 21.7772 38.736 21.8156C38.7146 22.1577 38.5938 22.4789 38.3957 22.7208C37.7767 23.5279 36.8101 23.5152 35.9776 23.4159C35.8993 23.4166 35.8244 23.4551 35.7691 23.523C35.7137 23.591 35.6824 23.683 35.6818 23.7791C35.6835 23.8748 35.7151 23.966 35.7703 24.0337C35.8254 24.1014 35.8997 24.1403 35.9776 24.1423C36.8428 24.2453 37.7974 24.2198 38.5212 23.5489C39.053 23.0563 39.4911 22.1839 39.2729 21.3424C39.1331 20.8012 38.7525 20.5646 38.3699 20.3112C37.9795 20.0526 37.5766 19.8247 37.1782 19.5858C36.3931 19.1053 35.6362 18.5585 34.9127 17.9493C34.1462 17.3146 33.4124 16.5822 32.8782 15.6453C32.8372 15.564 32.7723 15.5052 32.697 15.4809C32.6217 15.4567 32.5417 15.4689 32.4735 15.515C32.4063 15.5642 32.3575 15.6439 32.3376 15.7368C32.3178 15.8298 32.3285 15.9286 32.3674 16.012H32.3679Z" fill="#211916"/>
<path d="M28.3435 21.5883C28.3435 21.5883 26.8215 24.664 28.7819 28.9703C30.7423 33.2767 39.5493 32.2836 39.5493 32.2836C42.2252 31.5939 42.1402 28.4333 41.957 27.3619C41.6047 25.3009 39.9593 24.2415 39.1146 24.5335C39.5295 23.5314 40.1524 21.062 38.4311 19.3074C36.6096 17.4505 34.3221 18.4434 34.0177 19.8008C33.593 18.6562 31.6682 18.618 30.5116 19.1566C29.2083 19.7635 28.71 20.5953 28.3435 21.5883Z" fill="white"/>
<path d="M11.3038 1.38796C12.2242 2.30883 13.2537 3.05183 14.3567 3.59132C14.9923 3.92004 15.644 4.19939 16.3082 4.42771C16.9973 4.65713 17.6934 4.85386 18.3935 5.02592C19.8408 5.38154 21.3043 5.63351 22.771 5.83205C23.4891 5.92936 24.2084 6.00669 24.9275 6.08795C25.5525 6.15862 26.2021 6.27863 26.6917 6.80268C26.967 7.11854 27.2173 7.46561 27.4394 7.83929L28.2294 9.07595L29.8844 11.6669C29.9401 11.7345 30.0153 11.7724 30.0936 11.7724C30.1719 11.7724 30.247 11.7345 30.3027 11.6669C30.3564 11.5976 30.3864 11.5057 30.3864 11.4101C30.3864 11.3144 30.3564 11.2225 30.3027 11.1533L28.8365 8.85667C28.3837 8.148 27.9492 7.41102 27.4666 6.73246C27.0228 6.08712 26.4117 5.64896 25.736 5.49156C25.0582 5.33009 24.3557 5.30285 23.6697 5.22008C22.2193 5.04544 20.772 4.82329 19.337 4.50777C17.9256 4.19754 16.5157 3.82043 15.1699 3.20512C13.93 2.63824 12.7453 1.91686 11.7228 0.87465C11.6663 0.808916 11.5914 0.772278 11.5136 0.772278C11.4358 0.772278 11.3609 0.808916 11.3044 0.87465C11.2496 0.943166 11.2189 1.03539 11.2189 1.13146C11.2189 1.22752 11.2496 1.31975 11.3044 1.38826L11.3038 1.38796Z" fill="#211916"/>
<path d="M39.639 32.6986C40.38 32.5028 41.0976 32.0677 41.5791 31.3312C41.9616 30.7362 42.2069 30.026 42.2894 29.2748C42.3618 28.6738 42.3566 28.0626 42.274 27.4637C42.1354 26.5183 41.7295 25.6633 41.1279 25.0494C40.5748 24.4879 39.7811 24.0064 39.0468 24.2482L39.3808 24.7817C39.9477 23.4009 40.0984 21.6835 39.4629 20.2964C38.6573 18.538 36.8066 17.5623 35.2263 18.1725C34.5901 18.4181 33.9382 18.9422 33.7433 19.7692L34.2838 19.6825C33.9011 18.6926 32.7989 18.4756 32.0055 18.4792C30.969 18.4698 29.9611 18.8966 29.1497 19.6887C28.7624 20.0924 28.4471 20.5899 28.2235 21.1501C28.051 21.5655 28.5607 21.9335 28.7343 21.5167C28.8989 21.1004 29.1202 20.7217 29.3887 20.3969C29.7367 20.0045 30.1453 19.7018 30.5903 19.5066C31.351 19.1545 32.1818 19.1002 32.9687 19.3509C33.1487 19.4065 33.3198 19.4992 33.4747 19.625C33.6054 19.7279 33.709 19.875 33.7732 20.0487C33.8866 20.342 34.2475 20.243 34.3137 19.9618C34.3209 19.9315 34.3288 19.9013 34.3371 19.871C34.3642 19.7728 34.3104 19.9334 34.3474 19.8389C34.3708 19.7793 34.397 19.7215 34.4262 19.6658C34.4872 19.5544 34.5602 19.4535 34.6432 19.366C34.8228 19.1794 35.027 19.0318 35.247 18.9294C35.8423 18.6638 36.492 18.6447 37.0969 18.8751C37.813 19.1399 38.4328 19.6998 38.8521 20.4603C39.1829 21.0959 39.3339 21.8477 39.2815 22.5993C39.2604 22.9486 39.2071 23.2938 39.1228 23.6284C39.0841 23.7868 39.0388 23.9421 38.9897 24.0961C38.9869 24.1051 38.9527 24.2049 38.9794 24.1281C38.9664 24.1653 38.953 24.2025 38.9393 24.2393C38.9172 24.2984 38.8942 24.357 38.8703 24.4151C38.8425 24.4777 38.8301 24.5489 38.8346 24.62C38.8391 24.691 38.8603 24.759 38.8957 24.8155C38.9311 24.872 38.9791 24.9147 39.0339 24.9383C39.0887 24.9619 39.1479 24.9655 39.2043 24.9486C39.2306 24.9399 39.2572 24.9334 39.2836 24.9257C39.3408 24.9086 39.2836 24.9235 39.3006 24.9216C39.3644 24.9146 39.4285 24.9125 39.4925 24.9154C39.5194 24.9169 39.5462 24.92 39.5731 24.9224C39.6314 24.9278 39.5899 24.9238 39.5772 24.9224C39.5912 24.9248 39.6053 24.9274 39.6192 24.9306C39.6916 24.9469 39.7634 24.9658 39.8345 24.9911C40.1149 25.0923 40.3781 25.2548 40.6114 25.4708C41.1695 25.9791 41.5536 26.7241 41.689 27.561C41.6959 27.6035 41.7021 27.6463 41.7078 27.689C41.7112 27.714 41.714 27.7391 41.7173 27.7647C41.7252 27.8244 41.7103 27.6854 41.7173 27.7704C41.7279 27.8891 41.7378 28.0074 41.7432 28.1266C41.7559 28.4019 41.7514 28.6779 41.7299 28.9523C41.727 28.9901 41.7234 29.028 41.7199 29.0656C41.7197 29.0828 41.7178 29.0999 41.7144 29.1165C41.7044 29.1943 41.6939 29.2718 41.6814 29.3489C41.6556 29.5074 41.6227 29.664 41.5828 29.8181C41.5492 29.9536 41.5075 30.0859 41.4582 30.2139C41.3983 30.3697 41.329 30.5198 41.251 30.6629C41.1693 30.8136 41.0751 30.9533 40.9698 31.08C40.8581 31.2204 40.7341 31.3451 40.6001 31.452C40.2581 31.7184 39.8786 31.9041 39.481 31.9995C39.1091 32.0977 39.2665 32.798 39.6383 32.6998L39.639 32.6986Z" fill="#D7D7D7"/>
<path d="M38.2333 40.5741C38.3994 40.9201 38.5396 41.2839 38.6523 41.661C39.1543 43.04 39.6381 44.4373 39.9439 45.9002C40.0491 46.403 40.1327 46.9384 40.0104 47.4354C39.8882 47.9324 39.4952 48.3653 39.0773 48.2868C38.8276 48.2496 38.5878 48.145 38.3749 47.9805C37.8406 47.4678 37.0511 46.4394 36.2278 45.2629C36.4239 45.2246 36.4829 47.1253 36.0003 47.6176C35.4269 48.2025 34.5925 47.5946 34.2997 47.341C34.1126 47.1791 32.7772 45.2375 31.6884 43.601C31.7095 43.925 31.7202 44.247 31.5445 44.4754C31.1008 45.0518 30.0516 44.3655 29.8192 44.1158C29.5217 43.7968 28.7101 42.9399 28.0155 42.1728L26.4011 40.5741L39.1871 35.3079L40.7583 38.4234C41.285 39.568 41.7632 40.7453 42.1908 41.9506C42.2724 42.2127 42.3343 42.4834 42.3756 42.7593C42.427 43.1423 42.2841 44.0125 41.8125 44.2878C41.4912 44.4752 40.902 44.103 40.6197 43.8372C40.1178 43.3656 38.9785 42.1156 38.6004 41.4951" fill="#FCE0CD"/>
<path d="M1.32011 21.3176C2.2515 22.2838 3.32522 22.725 4.29272 23.7184C5.94675 25.4151 9.4346 30.2235 9.79715 30.6934C11.1316 32.6283 12.962 33.4061 15.1037 34.9218C16.3047 35.492 18.3497 36.6217 19.0128 36.9961C20.6781 38.1775 22.272 38.9962 23.789 39.7979C24.8141 40.2519 27.9647 41.7023 29.7331 42.3121C30.586 42.6063 32.3636 42.5927 32.6399 42.5745C33.1524 42.5409 33.6574 42.2513 33.8494 41.7312C33.9357 41.4987 34.1061 40.7728 33.698 40.1574C34.4812 40.335 35.2916 40.4567 36.0055 40.6039C36.7678 40.7613 37.7982 40.783 38.2333 40.5434C38.5601 40.3635 39.1859 39.8341 39.1863 39.3944C39.1871 38.4579 38.4803 37.9709 38.0471 37.8102L32.7481 35.8443C33.0129 35.9702 33.2394 36.0784 33.4038 36.1586C34.1953 36.5589 35.6621 36.9593 36.5514 37.3596C38.2708 37.8761 39.9673 38.3697 41.7347 38.2877C41.9524 38.3003 42.1686 38.2381 42.359 38.1081C42.6108 37.8976 42.696 37.484 42.6813 37.1103C42.6539 36.4165 41.9723 35.2909 41.4911 34.9256C40.4043 34.1899 39.2641 33.5803 38.0852 33.1045C39.0567 33.4279 40.2171 33.6532 40.7585 32.7047C41.1559 32.0086 40.8833 31.1602 40.4341 30.5137C39.6947 29.4497 36.1588 27.1694 35.8129 27.0524C34.4133 26.0459 33.4136 25.2484 32.3358 24.4279C30.6333 23.1319 28.2401 21.299 26.6624 20.075C25.5128 18.8123 25.0148 17.9661 23.902 16.5724C26.2149 16.4652 28.3101 16.3582 30.6241 16.2514C31.3812 16.2163 32.1668 16.1725 32.8393 15.744C33.5118 15.3154 34.0359 14.3838 33.8621 13.4783C33.5969 12.0918 32.1237 11.8183 30.9684 11.6965C28.5823 11.4431 26.261 10.6104 24.139 9.2468C23.097 8.57611 22.0981 7.77467 20.9759 7.34096C16.6163 5.65605 12.0381 9.90977 7.47767 8.85425C5.97115 8.44309 4.53241 7.62243 3.12571 6.8113C3.12571 6.8113 1.33194 5.89697 0.500119 11.004C-0.331701 16.1111 -0.170266 19.7715 1.32011 21.3176Z" fill="#FCE0CD"/>
<path d="M23.8877 16.9366C25.5503 16.8598 27.2128 16.7801 28.8751 16.6977C29.6928 16.6585 30.5159 16.6512 31.3315 16.5689C32.0809 16.4932 32.8402 16.2955 33.4301 15.6882C33.9465 15.1566 34.2811 14.3262 34.1654 13.491C34.1098 13.1613 33.993 12.8518 33.8242 12.5864C33.6553 12.3211 33.439 12.1072 33.1919 11.9612C32.6743 11.6283 32.093 11.4938 31.5187 11.4039C30.8338 11.2966 30.1478 11.2397 29.4665 11.0921C27.9373 10.7637 26.4495 10.1915 25.0409 9.39014C23.6437 8.59127 22.363 7.44298 20.8676 6.92241C18.1645 5.98144 15.3866 7.17574 12.7678 7.97173C11.4369 8.37623 10.0776 8.71415 8.69952 8.65453C7.18142 8.5887 5.74576 7.87927 4.37627 7.12292C4.00744 6.91923 3.64119 6.70873 3.27507 6.49793C3.20684 6.45194 3.12686 6.43982 3.05158 6.46405C2.9763 6.48829 2.91144 6.54705 2.87037 6.62823C2.83142 6.71157 2.82071 6.81037 2.84056 6.90332C2.86041 6.99627 2.90923 7.0759 2.97648 7.12504C4.39537 7.94222 5.85383 8.81388 7.39904 9.20401C8.73636 9.54162 10.1348 9.38061 11.4641 9.07114C12.8066 8.75864 14.1163 8.27333 15.4445 7.88335C16.7159 7.51002 18.0192 7.2175 19.3319 7.32888C19.9923 7.38514 20.6424 7.55944 21.2618 7.84628C21.944 8.18975 22.6046 8.59439 23.2384 9.05691C24.5712 9.98899 25.9866 10.7303 27.457 11.2663C28.1831 11.5224 28.9216 11.7224 29.6681 11.8651C30.3235 11.9904 30.9867 12.0292 31.6415 12.1511C32.5226 12.315 33.9028 12.8123 33.5482 14.2418C33.3634 14.9866 32.7939 15.4536 32.2124 15.6581C31.4853 15.9137 30.7029 15.8851 29.9537 15.9194C28.3361 15.9956 26.7187 16.0734 25.1013 16.1528C24.6969 16.1719 24.2925 16.1909 23.8882 16.2097C23.5087 16.2272 23.5069 16.9536 23.8882 16.936L23.8877 16.9366Z" fill="#211916"/>
<path d="M27.8058 42.4296C28.3973 43.0827 28.9931 43.733 29.6009 44.3633C29.825 44.5847 30.0773 44.7593 30.3477 44.8799C30.6611 45.0518 31.01 45.1007 31.3469 45.0199C31.558 44.9544 31.7408 44.7926 31.8582 44.5673C31.9787 44.2847 32.0238 43.9628 31.9872 43.647C31.9854 43.5514 31.9537 43.4603 31.8986 43.3927C31.8435 43.325 31.7693 43.286 31.6914 43.2839C31.6132 43.2846 31.5383 43.3232 31.483 43.3911C31.4277 43.459 31.3963 43.551 31.3957 43.647C31.4129 43.7915 31.4105 43.9385 31.3886 44.082C31.3746 44.1547 31.3409 44.2194 31.2931 44.2655C31.2452 44.3117 31.186 44.3365 31.1252 44.3359C31.0948 44.3337 31.0643 44.3337 31.034 44.3359C30.9985 44.3354 30.963 44.3325 30.9277 44.3273C30.6214 44.2637 30.3303 44.1178 30.0752 43.8999C30.0533 43.8818 30.0316 43.8633 30.0104 43.8438C30.0822 43.9102 30.0055 43.8347 29.9919 43.8202L29.8346 43.6531C29.684 43.4929 29.5337 43.3325 29.3834 43.172C28.9945 42.7566 28.6079 42.3379 28.2238 41.916C27.9415 41.6042 27.5214 42.1163 27.8055 42.4296H27.8058Z" fill="#211916"/>
<path d="M30.8236 42.8395C31.6936 44.1611 32.57 45.4783 33.4731 46.7668C33.7025 47.0946 33.9261 47.4746 34.2235 47.7152C34.8027 48.183 35.6728 48.5182 36.241 47.8399C36.5088 47.5203 36.5943 47.0211 36.6398 46.5839C36.6913 46.1717 36.6815 45.7515 36.6108 45.3437C36.5201 44.8897 35.9495 45.0822 36.0404 45.5368C36.0462 45.5656 36.0673 45.7195 36.0613 45.6597C36.0692 45.7378 36.0736 45.8166 36.0755 45.8952C36.0809 46.0774 36.0763 46.26 36.0617 46.4415C36.0383 46.7367 35.9898 47.0795 35.8428 47.304C35.876 47.2534 35.8142 47.3357 35.8127 47.337C35.79 47.3594 35.7662 47.38 35.7414 47.3988C35.6789 47.4452 35.6095 47.476 35.5373 47.4896C35.3984 47.5108 35.2573 47.4944 35.1241 47.4415C34.9972 47.3964 34.8746 47.3348 34.7582 47.2579C34.6987 47.2192 34.6404 47.1779 34.5833 47.1341C34.5526 47.1106 34.4627 47.0636 34.4496 47.0253C34.4654 47.0718 34.5141 47.0985 34.4683 47.0388C34.4546 47.0209 34.4397 47.0044 34.4256 46.987C34.3714 46.9197 34.3195 46.8493 34.2679 46.7791C34.1257 46.5857 33.9869 46.3884 33.8489 46.1906C33.4435 45.6101 33.0448 45.0223 32.6479 44.433C32.1763 43.7333 31.708 43.0302 31.243 42.3239C31.1873 42.2564 31.1122 42.2185 31.0339 42.2185C30.9556 42.2185 30.8805 42.2564 30.8248 42.3239C30.771 42.3931 30.741 42.4851 30.741 42.5807C30.741 42.6764 30.771 42.7684 30.8248 42.8376L30.8236 42.8395Z" fill="#211916"/>
<path d="M33.7042 41.985C34.8614 43.8478 36.0658 45.7009 37.4046 47.3735C37.6325 47.6665 37.8742 47.9428 38.1286 48.2008C38.4879 48.5548 39.0835 48.791 39.5308 48.5757C40.0583 48.3213 40.3375 47.6768 40.3649 47.0064C40.3951 46.2664 40.1752 45.4978 39.9917 44.8033C39.7757 43.9862 39.514 43.1893 39.2382 42.4002C39.1688 42.2019 39.0985 42.0039 39.0272 41.8064C38.9955 41.7186 38.964 41.6309 38.9319 41.5434C38.8862 41.4187 38.9073 41.4759 38.9169 41.5041C38.904 41.4664 38.8923 41.4284 38.8799 41.3903C38.7753 41.0431 38.6445 40.7088 38.4893 40.3915C38.2855 39.998 37.7733 40.3621 37.9785 40.758C38.231 41.2451 38.3874 41.8114 38.5759 42.3383C38.8054 42.9795 39.0253 43.6258 39.221 44.2838C39.4241 44.9396 39.5899 45.6118 39.7173 46.2958C39.8063 46.8053 39.8427 47.4672 39.4536 47.8113C39.3838 47.871 39.3035 47.9094 39.2192 47.9235C39.135 47.9375 39.0492 47.9268 38.969 47.8921C38.8032 47.8527 38.6461 47.7698 38.5086 47.6492C38.2736 47.4062 38.0491 47.1483 37.836 46.8766C37.2364 46.129 36.6743 45.3353 36.1231 44.5337C35.4684 43.5812 34.8324 42.6097 34.2151 41.6191C34.1738 41.5382 34.1089 41.4797 34.0338 41.4555C33.9586 41.4313 33.8787 41.4432 33.8104 41.4888C33.743 41.5378 33.6941 41.6174 33.6743 41.7104C33.6544 41.8034 33.6652 41.9023 33.7043 41.9856L33.7042 41.985Z" fill="#211916"/>
<path d="M40.502 38.6062C40.8304 39.3334 41.1475 40.0687 41.4457 40.8156C41.5901 41.1767 41.7315 41.5404 41.8591 41.9108C41.9161 42.0759 41.965 42.245 42.0056 42.4172C42.0278 42.5119 42.048 42.6075 42.0652 42.7038C42.0742 42.754 42.0838 42.8049 42.0899 42.8551C42.0795 42.7627 42.0889 42.8594 42.0886 42.8802C42.0928 43.157 42.0358 43.43 41.9236 43.6702C41.7995 43.9258 41.6748 44.0146 41.4615 43.9513C41.3197 43.907 41.1834 43.8395 41.0562 43.7507C40.9974 43.711 40.9396 43.6687 40.8837 43.6231C40.8632 43.6066 40.843 43.5898 40.8231 43.5724C40.8031 43.555 40.7861 43.5399 40.7685 43.5231C40.7938 43.547 40.7924 43.5456 40.7644 43.5188C40.5683 43.3301 40.3786 43.1313 40.1911 42.9299C39.9354 42.6554 39.6843 42.3737 39.441 42.0824C39.3247 41.9431 39.2098 41.8014 39.099 41.6554C39.0527 41.5948 39.007 41.5327 38.9625 41.4695C38.9456 41.4456 38.9289 41.4215 38.9123 41.3972C38.9054 41.3871 38.8346 41.2761 38.8722 41.3367C38.8309 41.2558 38.766 41.1973 38.6908 41.1731C38.6156 41.1489 38.5358 41.1608 38.4675 41.2064C38.4001 41.2555 38.3513 41.3351 38.3314 41.4281C38.3115 41.5211 38.3223 41.62 38.3614 41.7033C38.756 42.3015 39.1977 42.8504 39.6799 43.3422C40.1427 43.845 40.6201 44.3981 41.2242 44.6242C41.3892 44.699 41.5677 44.717 41.7404 44.6761C41.9132 44.6352 42.0735 44.537 42.204 44.3922C42.4264 44.1237 42.5769 43.7784 42.6353 43.4022C42.7817 42.5714 42.4645 41.7742 42.1864 41.0367C41.8275 40.085 41.4278 39.1557 41.0136 38.2388C40.8287 37.8302 40.3178 38.196 40.5028 38.6055L40.502 38.6062Z" fill="#211916"/>
<path d="M24.2924 39.6378C23.7942 39.5116 23.4351 40.1543 23.3086 40.6668C23.1653 41.273 23.1497 41.9139 23.2631 42.5295C23.3744 43.1473 23.6136 43.7195 23.9575 44.1906C24.3015 44.6618 24.7385 45.016 25.2265 45.2191C25.7804 45.4508 26.3768 45.4826 26.9449 45.3107L26.6109 44.7771C26.2549 45.4789 26.3592 46.3509 26.6696 47.047C26.9847 47.7155 27.4598 48.2485 28.0303 48.5735C29.1148 49.2109 30.4918 49.1564 31.4755 48.2581C31.9855 47.7776 32.3563 47.1086 32.5334 46.3498C32.647 45.9027 32.0762 45.7112 31.9629 46.1568C31.8405 46.6797 31.6046 47.1519 31.2805 47.5228C30.9406 47.8751 30.5319 48.1126 30.0945 48.2118C29.5931 48.3364 29.0735 48.2912 28.5914 48.081C28.1093 47.8708 27.6828 47.5036 27.3576 47.0187C27.0304 46.5042 26.8191 45.7404 27.1216 45.1439C27.1497 45.0813 27.1623 45.0101 27.1579 44.9389C27.1536 44.8676 27.1323 44.7995 27.0969 44.7429C27.0614 44.6862 27.0133 44.6435 26.9584 44.62C26.9034 44.5964 26.8441 44.5931 26.7877 44.6103C26.4073 44.7285 26.0092 44.7313 25.6277 44.6185C25.2462 44.5057 24.8928 44.2806 24.598 43.9627C24.3031 43.6448 24.0756 43.2436 23.9352 42.7937C23.7947 42.3438 23.7454 41.8587 23.7916 41.3802C23.8059 41.1432 23.8535 40.911 23.9325 40.6941C23.9694 40.6034 24.0157 40.5189 24.0703 40.4429C24.098 40.4059 24.1276 40.3838 24.1532 40.3521C24.1854 40.312 24.1817 40.3508 24.1352 40.339C24.5067 40.4332 24.6651 39.7337 24.2924 39.6385V39.6378Z" fill="#D7D7D7"/>
<path d="M41.0663 23.2277C41.4973 23.0107 41.9739 22.9706 42.425 23.1133C42.874 23.2806 43.2759 23.599 43.5851 24.0324C44.1438 24.8001 44.3984 25.9722 44.1352 26.964C44.0133 27.4228 43.7244 27.9605 43.299 28.0287C43.2353 28.0315 43.1739 28.0593 43.1239 28.1081C43.0739 28.1568 43.038 28.2239 43.0213 28.2996C43.0046 28.3752 43.0081 28.4554 43.0312 28.5285C43.0543 28.6015 43.0959 28.6635 43.1498 28.7055C43.4609 28.9947 43.7041 29.3797 43.8549 29.8216C44.0057 30.2635 44.0587 30.7464 44.0084 31.2215C43.9582 31.6967 43.8066 32.147 43.5689 32.5269C43.3312 32.9069 43.0159 33.2029 42.655 33.3849C42.5807 33.4131 42.518 33.475 42.4796 33.558C42.4412 33.6411 42.4301 33.739 42.4485 33.8318C42.4698 33.9243 42.5199 34.0028 42.588 34.0503C42.6561 34.0978 42.7367 34.1104 42.8123 34.0854C43.2846 33.8636 43.6993 33.489 44.0123 33.0012C44.3253 32.5135 44.525 31.9308 44.5902 31.315C44.6554 30.6992 44.5837 30.0732 44.3826 29.5033C44.1816 28.9335 43.8587 28.4411 43.4483 28.0784L43.299 28.7551C44.4612 28.5687 44.9326 26.9811 44.8046 25.709C44.7373 25.0098 44.519 24.3453 44.1723 23.7845C43.8257 23.2236 43.3632 22.7867 42.8329 22.5191C42.2135 22.2268 41.5274 22.2297 40.9097 22.5273C40.8352 22.5551 40.7723 22.6169 40.7338 22.7001C40.6954 22.7832 40.6844 22.8813 40.7031 22.974C40.7245 23.0665 40.7747 23.1449 40.8427 23.1924C40.9108 23.2398 40.9913 23.2525 41.0669 23.2277H41.0663Z" fill="#D7D7D7"/>
<path d="M22.2098 29.4869C24.197 30.9383 26.1563 32.4476 28.171 33.842C28.5853 34.1447 29.0145 34.4154 29.4562 34.6525C29.7913 34.8211 30.1282 34.9842 30.4653 35.1464C31.2154 35.5075 31.9677 35.8615 32.7191 36.2187C33.0015 36.3531 33.2817 36.4973 33.5668 36.6231C33.9993 36.8139 34.4434 36.9648 34.8854 37.1181C35.3402 37.2759 35.7973 37.4288 36.2455 37.6131C36.7856 37.8179 37.3343 37.9871 37.8892 38.1202C39.0631 38.4366 40.2616 38.6768 41.4668 38.6595C42.0014 38.6518 42.597 38.609 42.8512 37.9286C43.0531 37.3887 42.9868 36.8222 42.7896 36.3C42.49 35.497 41.9859 34.8353 41.3533 34.4147C40.5864 33.9214 39.7949 33.4879 38.9836 33.1168C38.712 32.9897 38.4384 32.869 38.163 32.7548C37.8017 32.6044 37.6466 33.3057 38.0057 33.4552C38.907 33.8271 39.7876 34.2707 40.6419 34.7831C40.8629 34.9167 41.0847 35.0524 41.2967 35.2068C41.5658 35.4236 41.7963 35.7052 41.9744 36.0344C42.1011 36.245 42.2085 36.4721 42.2948 36.7115C42.3588 36.8782 42.3897 37.0613 42.385 37.2455C42.3888 37.3472 42.3749 37.4487 42.3445 37.5434C42.3141 37.6381 42.2677 37.7238 42.2085 37.795C42.0322 37.9636 41.7333 37.9276 41.5253 37.9319C40.3805 37.9563 39.2479 37.7396 38.1322 37.4428C37.5803 37.3196 37.0349 37.156 36.4988 36.9531C36.0734 36.7716 35.6388 36.6245 35.2056 36.4743C34.4745 36.2209 33.7622 35.9414 33.0544 35.6036C32.351 35.2679 31.6462 34.9365 30.943 34.6001C30.598 34.435 30.2534 34.2682 29.9092 34.0997C29.766 34.0291 29.6231 33.9575 29.4805 33.8851L29.4066 33.8476C29.4674 33.8789 29.3776 33.8324 29.3659 33.8261C29.2303 33.7459 29.099 33.6467 28.9669 33.5569C27.0075 32.2252 25.105 30.7759 23.1873 29.359C22.9609 29.1919 22.7343 29.0254 22.5073 28.8596C22.1792 28.62 21.8814 29.2478 22.2087 29.4869H22.2098Z" fill="#211916"/>
<path d="M37.9679 38.1611C38.0882 38.2029 38.2035 38.2643 38.3106 38.3436C38.4417 38.4319 38.5602 38.5458 38.6613 38.681C38.7573 38.8087 38.8267 38.9631 38.8634 39.131C38.88 39.2135 38.8897 39.2978 38.8925 39.3827C38.8953 39.3451 38.8718 39.4701 38.8847 39.4308C38.8681 39.477 38.847 39.5206 38.8218 39.5606C38.721 39.7166 38.6003 39.8515 38.4644 39.96C38.3938 40.0205 38.3211 40.0766 38.2462 40.1283C38.2157 40.1493 38.1845 40.1697 38.1537 40.1888C38.14 40.1973 38.0577 40.2401 38.1014 40.2191C37.774 40.3704 37.3961 40.3657 37.0512 40.3575C36.6329 40.3393 36.2161 40.2858 35.8038 40.1974C35.3178 40.1038 34.8303 40.0219 34.3444 39.9261C33.3702 39.7256 32.4073 39.4497 31.4615 39.1C30.7551 38.8486 30.06 38.5521 29.3788 38.2117C28.9262 37.9835 28.4176 37.6893 27.9422 37.422C26.8659 36.8167 25.8138 36.1466 24.7551 35.4955C23.5059 34.7273 22.2514 33.9654 21.0288 33.1347C20.9187 33.0598 20.8091 32.9841 20.7001 32.9077C20.3695 32.6741 20.0716 33.3012 20.4015 33.535C21.6232 34.3989 22.8948 35.1616 24.1544 35.9378C25.2874 36.6359 26.4127 37.362 27.5662 38.0068C28.0907 38.3001 28.6113 38.6021 29.1436 38.8737C29.8496 39.2308 30.5709 39.5405 31.3042 39.8015C32.2951 40.166 33.3043 40.451 34.3254 40.6546C34.8251 40.7507 35.3265 40.8339 35.8257 40.9341C36.2778 41.0309 36.7356 41.0818 37.1945 41.0865C37.5805 41.0856 37.998 41.0636 38.3563 40.871C38.7027 40.6886 39.0097 40.4096 39.2531 40.0562C39.81 39.2067 39.2294 38.1238 38.5643 37.6858C38.4241 37.5938 38.2771 37.5184 38.1253 37.4606C37.761 37.3217 37.6051 38.0227 37.968 38.1611H37.9679Z" fill="#211916"/>
<path d="M1.17074 21.6313C1.92332 22.1729 2.68379 22.7021 3.39521 23.324C3.88052 23.7551 4.3411 24.2267 4.77369 24.7355C5.65529 25.7564 6.49155 26.8373 7.31992 27.9228C7.99265 28.8043 8.65601 29.6964 9.31838 30.5895C9.57397 30.9341 9.82154 31.29 10.098 31.6098C10.6438 32.223 11.2451 32.7573 11.8901 33.2022C12.5913 33.7027 13.3196 34.1433 14.0344 34.6119C14.3956 34.8485 14.7491 35.1397 15.1311 35.3231C15.4392 35.4714 15.7447 35.6258 16.0493 35.7844C16.6778 36.1097 17.3015 36.4467 17.9238 36.7881C18.1703 36.9232 18.4163 37.0594 18.6619 37.1967C18.9998 37.3857 19.3165 37.6274 19.6442 37.842C20.4396 38.3629 21.2557 38.8341 22.0797 39.282C22.7303 39.6357 23.3803 39.9996 24.0486 40.2996C25.2294 40.8292 26.4099 41.3605 27.5996 41.8593C28.2227 42.1205 28.8481 42.3757 29.4805 42.6008C30.0736 42.7931 30.6829 42.8994 31.2962 42.9176C31.7598 42.9594 32.2252 42.9648 32.6894 42.9338C33.4114 42.8631 34.1051 42.3605 34.2276 41.4277C34.2993 40.9531 34.2202 40.4627 34.0067 40.0574C33.7972 39.6696 33.2848 40.0329 33.496 40.424C33.5816 40.5847 33.6356 40.7677 33.6536 40.9585C33.6716 41.1492 33.6532 41.3426 33.5998 41.5231C33.5948 41.5437 33.5874 41.5645 33.5815 41.5844C33.6161 41.4766 33.5569 41.637 33.553 41.6449C33.5206 41.713 33.4807 41.7752 33.4344 41.8298C33.3107 41.9714 33.1611 42.0744 32.9983 42.1302C32.5713 42.2891 32.0702 42.2237 31.631 42.2069C31.0373 42.1842 30.4201 42.1602 29.843 41.9716C29.2579 41.7806 28.6815 41.5403 28.1078 41.3038C26.8908 40.802 25.6844 40.2623 24.4789 39.7207C23.1076 39.0944 21.7677 38.3689 20.4661 37.5481C19.8437 37.1602 19.2461 36.7256 18.6096 36.3733C18.0228 36.0484 17.4338 35.7291 16.8427 35.4156C16.2097 35.0805 15.5424 34.8027 14.9417 34.3908C14.2383 33.9082 13.5172 33.4667 12.8078 32.9975C12.1635 32.593 11.5497 32.1191 10.9736 31.5812C10.5834 31.1818 10.2195 30.745 9.88538 30.2751C9.30618 29.4987 8.73118 28.7185 8.1478 27.9473C7.33545 26.8729 6.51521 25.8069 5.6638 24.7795C5.30716 24.3491 4.94547 23.923 4.56419 23.5253C3.93417 22.8813 3.26288 22.3007 2.55686 21.7893C2.19677 21.5223 1.83225 21.2644 1.46945 21.0032C1.1403 20.7664 0.842324 21.394 1.17086 21.6305L1.17074 21.6313Z" fill="#211916"/>
<path d="M20.6105 31.8259C20.165 31.6644 19.6977 31.614 19.2361 31.6778C18.7745 31.7415 18.328 31.9179 17.9228 32.1968C17.9696 31.4656 17.5736 30.7551 17.0355 30.4357C16.4975 30.1162 15.8515 30.1507 15.2929 30.4101C14.858 30.6121 14.4486 30.9667 14.2501 31.4829C13.9435 32.2799 14.2034 33.2157 14.4647 34.0367C14.2047 34.3824 14.0388 34.8188 13.9901 35.2855C13.9413 35.7522 14.0121 36.226 14.1926 36.641C14.3732 37.056 14.6544 37.3917 14.9974 37.6015C15.3403 37.8113 15.728 37.8847 16.1065 37.8116C17.0172 39.4051 18.3724 40.1173 19.8853 40.3587C20.8387 40.51 22.309 40.1619 22.8675 39.201C23.2943 38.4663 23.5389 37.8159 23.3517 36.9431C23.2539 36.4869 22.7325 35.6364 22.1545 35.9273C22.7024 34.6678 22.2238 32.9648 21.2458 32.1926C21.0479 32.037 20.8343 31.9137 20.6105 31.8259Z" fill="white"/>
<path d="M20.6892 31.4756C20.2055 31.3031 19.6986 31.2502 19.1981 31.3202C18.6976 31.3902 18.2134 31.5816 17.7736 31.8833L18.2186 32.1969C18.2276 31.8981 18.186 31.6003 18.0964 31.3223C18.0069 31.0443 17.8713 30.7921 17.6984 30.5817C17.3181 30.1237 16.8102 29.8604 16.2777 29.8453C15.2752 29.7907 14.0524 30.5004 13.8534 31.8161C13.7329 32.613 13.947 33.3986 14.1799 34.1333L14.256 33.7799C13.95 34.1822 13.7547 34.6923 13.6975 35.2383C13.6404 35.7842 13.7243 36.3384 13.9375 36.8226C14.1506 37.3069 14.4823 37.6966 14.8856 37.9369C15.2888 38.1772 15.7434 38.2559 16.1851 38.1618L15.8511 37.9953C16.8342 39.6972 18.4911 40.6654 20.1778 40.7523C20.9612 40.8046 21.7411 40.5909 22.4321 40.1347C22.7683 39.8923 23.0512 39.5527 23.2561 39.1454C23.5179 38.6913 23.6745 38.1586 23.7094 37.6039C23.7318 37.0516 23.582 36.5095 23.2904 36.0881C22.9969 35.6585 22.5289 35.3686 22.075 35.5772L22.4089 36.1108C22.5783 35.691 22.6689 35.23 22.6743 34.7616C22.6796 34.2931 22.5995 33.8292 22.4397 33.4037C22.2763 32.9479 22.0356 32.5401 21.7336 32.2077C21.4317 31.8752 21.0754 31.6257 20.6886 31.4759C20.3267 31.3279 20.171 32.0292 20.5313 32.1764C20.8382 32.298 21.1202 32.499 21.3584 32.7658C21.5966 33.0326 21.7854 33.359 21.9122 33.723C22.0306 34.0406 22.0908 34.3863 22.0884 34.7357C22.0861 35.085 22.0212 35.4295 21.8985 35.7446C21.7902 36.0007 21.9744 36.3969 22.2326 36.2782C22.4937 36.1581 22.7169 36.3539 22.8857 36.6214C22.9524 36.7307 23.0077 36.8498 23.0502 36.976C23.1086 37.1967 23.1306 37.4295 23.1152 37.6608C23.0867 38.1019 22.8998 38.4996 22.7023 38.8584C22.5406 39.1525 22.3212 39.3919 22.0644 39.5545C20.8991 40.3173 19.4101 40.0773 18.2393 39.4654C17.4871 39.0784 16.8371 38.4426 16.3618 37.6288C16.3268 37.5623 16.2759 37.5106 16.2161 37.4808C16.1563 37.4511 16.0906 37.4446 16.0277 37.4624C15.7126 37.5139 15.3923 37.4453 15.11 37.2659C14.8277 37.0865 14.5971 36.8049 14.4494 36.4593C14.3017 36.1136 14.2441 35.7206 14.2843 35.3334C14.3245 34.9462 14.4605 34.5835 14.6741 34.2944C14.7112 34.2491 14.7378 34.1925 14.7512 34.1304C14.7645 34.0683 14.7642 34.003 14.7501 33.9411C14.5875 33.4279 14.4149 32.8862 14.4078 32.3285C14.4012 32.0889 14.4418 31.8508 14.5262 31.6346C14.6105 31.4183 14.7361 31.2303 14.8923 31.0864C15.4962 30.5172 16.4961 30.3364 17.1299 30.929C17.2913 31.074 17.4211 31.2657 17.5078 31.487C17.5945 31.7083 17.6354 31.9524 17.627 32.1978C17.613 32.4844 17.8858 32.6348 18.072 32.5113C18.4433 32.2576 18.8521 32.0973 19.2745 32.0399C19.6969 31.9825 20.1243 32.0291 20.5318 32.177C20.8961 32.3159 21.0519 31.615 20.6892 31.4756Z" fill="#D7D7D7"/>
<path d="M21.7182 14.5445C22.7629 15.6765 23.7569 16.8771 24.6958 18.141C25.0252 18.585 25.3543 19.0296 25.6995 19.4555C25.8927 19.6938 26.0903 19.9264 26.2924 20.1534C26.5659 20.433 26.8592 20.6818 27.169 20.8967C28.579 21.9863 29.9921 23.0701 31.4082 24.1482C32.0754 24.6573 32.7419 25.1678 33.4076 25.6797C33.7661 25.9554 34.1256 26.229 34.4863 26.5006C34.6746 26.6419 34.8636 26.7821 35.0532 26.9215C35.2693 27.1051 35.4975 27.2662 35.7355 27.4031C35.7663 27.4183 35.8785 27.4773 35.7748 27.4183C35.8364 27.4534 35.8981 27.4858 35.9597 27.5212C36.1364 27.6238 36.3106 27.733 36.4843 27.8423C36.9754 28.1535 37.4601 28.4796 37.9384 28.8203C38.4448 29.1799 38.9465 29.5526 39.4277 29.9614C39.7997 30.2773 40.1576 30.5808 40.4196 31.0971C40.5999 31.4526 40.74 31.9025 40.6025 32.3148C40.5435 32.4745 40.4552 32.6153 40.3445 32.7259C40.2338 32.8366 40.1037 32.9142 39.9644 32.9526C39.3375 33.1605 38.62 32.9152 38.0082 32.7018C37.1508 32.4028 36.3518 31.938 35.5231 31.544C35.1041 31.345 34.6816 31.1657 34.2697 30.9447C33.8303 30.71 33.3982 30.4553 32.9709 30.1891C30.3738 28.5708 27.9763 26.5496 25.6016 24.4904C25.2346 24.1721 24.8678 23.8535 24.5013 23.5346C24.4334 23.4868 24.3529 23.4736 24.2772 23.498C24.2015 23.5224 24.1366 23.5823 24.0966 23.6649C24.0586 23.7485 24.0484 23.8469 24.0682 23.9395C24.088 24.0321 24.1362 24.1117 24.2027 24.1617C25.4444 25.2411 26.6816 26.3298 27.9466 27.3677C29.1461 28.3514 30.3681 29.2957 31.6348 30.1442C32.5076 30.7395 33.4054 31.2778 34.3245 31.7566C34.7503 31.9736 35.1871 32.1529 35.6144 32.3661C36.0416 32.5794 36.4653 32.812 36.8972 33.0152C37.6331 33.3841 38.4071 33.6256 39.1971 33.7327C39.9009 33.8062 40.6647 33.604 41.0556 32.8121C41.494 31.9241 41.1029 30.8217 40.5613 30.1478C40.2013 29.7324 39.8063 29.3652 39.3831 29.0523C38.4396 28.3017 37.4609 27.6197 36.4522 27.0101C36.3002 26.9178 36.1472 26.8272 35.9901 26.748C35.7263 26.589 35.472 26.4075 35.2289 26.2048C34.4911 25.66 33.7624 25.096 33.033 24.5347C31.6019 23.4338 30.1645 22.3451 28.7332 21.2448C28.3824 20.9751 28.0317 20.7051 27.6812 20.4346C27.5219 20.3117 27.3628 20.1887 27.2036 20.0656C27.0582 19.9679 26.9197 19.8552 26.7898 19.7286C26.3915 19.286 26.0112 18.8206 25.6447 18.3384C24.827 17.2626 24.0281 16.1754 23.1535 15.1665C22.8195 14.7811 22.4804 14.4028 22.1362 14.0315C21.8518 13.723 21.4319 14.2348 21.7179 14.5451L21.7182 14.5445Z" fill="#211916"/>
<path d="M41.9302 9.5086C41.9786 9.55032 42.016 9.60857 42.0378 9.67614C42.0595 9.74371 42.0646 9.81763 42.0525 9.88874C42.0376 9.95567 42.005 10.0146 41.9598 10.0562C41.9146 10.0977 41.8593 10.1196 41.8029 10.1183C41.6189 10.1401 41.4339 10.0991 41.2495 10.1251C41.139 10.1343 41.0313 10.1731 40.9342 10.2386C40.8371 10.3042 40.7527 10.395 40.6871 10.5047C40.5742 10.7222 40.5328 10.9843 40.5715 11.2378C40.5986 11.4783 40.7106 11.7005 40.7254 11.9387C40.7325 12.0427 40.7188 12.1472 40.6854 12.2432C40.6521 12.3393 40.6001 12.4238 40.5341 12.4895C40.3937 12.6093 40.2022 12.5694 40.0411 12.5938C39.9196 12.6083 39.8022 12.6555 39.6972 12.7318C39.5922 12.8082 39.5021 12.9119 39.4332 13.0356C39.3621 13.1605 39.3231 13.3086 39.3211 13.461C39.3192 13.6133 39.3545 13.7628 39.4224 13.8903C39.4636 13.9713 39.5284 14.0298 39.6036 14.0541C39.6788 14.0783 39.7587 14.0663 39.8269 14.0206C39.8942 13.9715 39.9431 13.8919 39.963 13.7989C39.9828 13.7059 39.9721 13.607 39.933 13.5237C39.9049 13.4783 39.9024 13.4833 39.933 13.4236C39.9532 13.3916 39.9785 13.3652 40.0075 13.3459C40.0364 13.3266 40.0683 13.315 40.1011 13.3118C40.2831 13.277 40.4779 13.3029 40.6602 13.2162C40.88 13.1014 41.0625 12.9004 41.1793 12.6446C41.296 12.3888 41.3403 12.0927 41.3052 11.8026C41.2787 11.5621 41.1686 11.3486 41.1505 11.1074C41.1369 10.9266 41.1856 10.8565 41.33 10.8421C41.5293 10.8223 41.7263 10.8627 41.9258 10.827C42.0333 10.8105 42.1371 10.7681 42.2312 10.7022C42.3254 10.6364 42.408 10.5483 42.4743 10.4432C42.7596 9.9865 42.6781 9.14904 42.2279 8.88119C42.1597 8.83505 42.0797 8.82284 42.0043 8.84709C41.929 8.87134 41.8642 8.93019 41.8232 9.01149C41.7843 9.09487 41.7737 9.19366 41.7935 9.2866C41.8134 9.37954 41.8621 9.4592 41.9293 9.50845L41.9302 9.5086Z" fill="#38302E"/>
<path d="M42.8528 5.74821C42.7912 5.71174 42.7254 5.6848 42.6643 5.64803C42.6087 5.61446 42.557 5.57197 42.5105 5.52167C42.4614 5.47852 42.4153 5.43033 42.3728 5.3776C42.2825 5.27492 42.2167 5.14387 42.1826 4.99861C42.1486 4.85336 42.1475 4.69942 42.1795 4.55346C42.2489 4.31133 42.4356 4.13882 42.5025 3.89472C42.6239 3.45148 42.2867 2.87143 42.4409 2.44393C42.5743 2.07362 42.7762 1.98283 43.0539 1.91306C43.2751 1.85752 43.5401 1.83392 43.6563 1.59618C43.7012 1.47129 43.7316 1.33932 43.7466 1.20408C43.8275 0.830149 44.067 0.535056 44.3906 0.549281C44.5564 0.531432 44.7229 0.569417 44.8724 0.659146C44.9613 0.741055 45.0592 0.807273 45.1631 0.855875C45.3824 0.9214 45.5821 0.706361 45.77 0.552156C46.0055 0.358454 46.32 0.207882 46.5682 0.37616C46.9024 0.602095 46.964 1.25659 47.3058 1.4624C47.4943 1.5756 47.7248 1.53292 47.9145 1.64309C48.0216 1.71766 48.11 1.82677 48.1702 1.95861C48.2305 2.09046 48.2602 2.24002 48.2562 2.39111C48.2568 2.46529 48.2524 2.5394 48.2429 2.61266C48.2393 2.68862 48.2276 2.76367 48.208 2.83587C48.1601 2.959 48.1263 3.08975 48.1078 3.22433C48.0983 3.50127 48.3091 3.70011 48.4689 3.89593C48.6695 4.14184 48.8202 4.50125 48.7343 4.83312C48.6189 5.27878 48.1388 5.47112 48.0414 5.92269C47.9879 6.17163 48.0669 6.44129 48.0159 6.69099C47.9773 6.83463 47.9075 6.96258 47.814 7.06098C47.7204 7.15939 47.6068 7.22449 47.4853 7.24924C47.1207 7.34458 46.745 7.07204 46.4059 7.18871C46.0751 7.38166 46.0267 7.87726 45.7294 8.11742C45.6298 8.20618 45.5123 8.2598 45.3896 8.2725C45.2669 8.28519 45.1438 8.25648 45.0334 8.18945C44.8529 8.0584 44.7522 7.79993 44.5704 7.67191C44.2401 7.43916 43.7912 7.72351 43.4519 7.51135C43.1992 7.35321 43.0968 6.96898 43.0953 6.62077C43.0941 6.34354 43.127 6.01984 42.9598 5.83386C42.9276 5.79921 42.8916 5.77037 42.8528 5.74821Z" fill="#38302E"/>
<path d="M42.977 5.48688C42.7346 5.3525 42.2762 5.06316 42.4169 4.63399C42.4786 4.44589 42.6166 4.3056 42.6894 4.1234C42.7643 3.93044 42.7905 3.71433 42.7645 3.50295C42.7307 3.17003 42.5408 2.7339 42.7275 2.42851C42.9 2.14855 43.2956 2.19879 43.5379 2.07819C43.6268 2.03772 43.7075 1.97372 43.774 1.89071C43.8406 1.8077 43.8915 1.70772 43.9231 1.59787C43.9781 1.40598 43.9752 1.19836 44.0817 1.03129C44.1208 0.971002 44.171 0.923066 44.2283 0.891477C44.2855 0.859888 44.3481 0.845561 44.4107 0.849692C44.574 0.84186 44.7348 0.900368 44.8683 1.01615C44.9495 1.08621 45.0423 1.13317 45.1401 1.15364C45.2379 1.17411 45.3382 1.16757 45.4337 1.13449C45.6124 1.04463 45.7805 0.925897 45.9336 0.781443C46.0619 0.683079 46.2381 0.564739 46.395 0.616191C46.5191 0.656899 46.5903 0.806412 46.652 0.933983C46.8182 1.27599 46.96 1.63101 47.2838 1.77855C47.4525 1.85528 47.6557 1.81956 47.8156 1.92141C47.8725 1.96697 47.9196 2.02866 47.953 2.10128C47.9863 2.17389 48.0049 2.2553 48.0073 2.33862C48.0278 2.5859 47.9498 2.77627 47.8924 3.00296C47.8646 3.11223 47.8564 3.22761 47.8685 3.34113C47.8805 3.45465 47.9125 3.56361 47.9622 3.66049C48.1218 3.97707 48.5448 4.23796 48.5112 4.66637C48.4865 4.98855 48.14 5.19996 47.9876 5.42953C47.8712 5.59529 47.7989 5.80081 47.7804 6.0185C47.7636 6.2284 47.8344 6.49095 47.7558 6.68571C47.588 7.10081 47.1348 6.94116 46.8528 6.88819C46.6564 6.82915 46.4499 6.84725 46.2623 6.93995C46.1174 7.04313 45.995 7.1879 45.9057 7.36185C45.8305 7.53962 45.7337 7.70233 45.6188 7.84444C45.556 7.91018 45.4794 7.95294 45.3978 7.96787C45.3162 7.9828 45.2328 7.96929 45.1571 7.92889C44.9908 7.81206 44.8949 7.57205 44.7319 7.4407C44.5506 7.30977 44.3405 7.25158 44.131 7.27423C43.9565 7.28165 43.7412 7.34203 43.5755 7.25093C43.5096 7.20059 43.4546 7.13151 43.4152 7.04953C43.3757 6.96755 43.3529 6.87509 43.3487 6.77999C43.3191 6.5421 43.3581 6.30073 43.3209 6.06193C43.3034 5.93999 43.2632 5.82468 43.2033 5.72506C43.1434 5.62544 43.0656 5.54422 42.9758 5.48779C42.6955 5.30619 42.4459 5.82858 42.7271 6.01048C42.874 6.10537 42.8504 6.30769 42.8485 6.48899C42.8386 6.72862 42.8671 6.9683 42.9323 7.19448C43.0932 7.69659 43.4443 7.91648 43.8723 7.89726C44.0473 7.88939 44.2693 7.82553 44.4334 7.92616C44.5936 8.02407 44.6922 8.25697 44.8348 8.38847C45.1798 8.70627 45.6753 8.60033 45.9808 8.25621C46.1002 8.10369 46.2031 7.93289 46.2869 7.74805C46.38 7.57008 46.4589 7.45432 46.6403 7.464C46.8481 7.4752 47.05 7.55843 47.2586 7.57114C47.4659 7.58449 47.6719 7.52328 47.8513 7.395C48.0323 7.26796 48.1701 7.06512 48.2393 6.82358C48.3105 6.55769 48.2309 6.2918 48.2731 6.02743C48.3197 5.86331 48.4076 5.72161 48.5241 5.62278C48.6604 5.48728 48.7807 5.32913 48.8815 5.1529C49.1204 4.68499 48.9677 4.13036 48.6901 3.7469C48.5932 3.61297 48.4014 3.47269 48.3597 3.29291C48.3519 3.20009 48.3693 3.10671 48.409 3.02717C48.4483 2.90354 48.4738 2.77401 48.485 2.64204C48.5352 2.13221 48.3966 1.56109 47.9778 1.35226C47.7981 1.26267 47.5835 1.29642 47.4119 1.19155C47.2827 1.1127 47.212 0.921574 47.1444 0.775238C46.9602 0.371642 46.7232 -0.017123 46.3032 0.000582541C46.0907 0.0181152 45.8853 0.101412 45.7061 0.24271C45.5806 0.33608 45.3876 0.590768 45.2285 0.563074C45.1459 0.549001 45.0683 0.445189 44.9967 0.396612C44.8981 0.33145 44.7912 0.287436 44.6806 0.266468C44.4875 0.219968 44.288 0.231599 44.0993 0.300366C43.9189 0.380436 43.7639 0.528814 43.6567 0.724089C43.6019 0.823896 43.5586 0.932518 43.528 1.04687C43.4955 1.16189 43.4975 1.29823 43.4565 1.40825C43.3964 1.57017 43.1748 1.57623 43.0516 1.60498C42.8821 1.63393 42.7185 1.70109 42.5689 1.80307C42.2153 2.0741 42.111 2.55502 42.1839 3.03368C42.2347 3.2438 42.2677 3.45977 42.2825 3.67819C42.2786 3.88839 42.1386 4.03942 42.0492 4.20527C41.9377 4.42583 41.8932 4.68764 41.9234 4.94457C41.9537 5.20151 42.0569 5.43707 42.2147 5.60976C42.3649 5.77958 42.539 5.91457 42.7284 6.00821C42.7852 6.04634 42.8518 6.05633 42.9145 6.03613C42.9772 6.01593 43.0312 5.96707 43.0655 5.89956C43.0977 5.83023 43.1064 5.74819 43.0899 5.67105C43.0733 5.5939 43.0328 5.52778 42.977 5.48688Z" fill="#38302E"/>
<path d="M47.0164 3.02277L45.9986 4.22357C45.9621 4.26929 45.9417 4.33076 45.9417 4.3948C45.9417 4.45883 45.9621 4.52031 45.9986 4.56603C46.0361 4.61026 46.0861 4.63496 46.1381 4.63496C46.19 4.63496 46.24 4.61026 46.2775 4.56603L47.2953 3.36523C47.3322 3.31981 47.353 3.25822 47.353 3.194C47.353 3.12977 47.3322 3.06818 47.2953 3.02277C47.2583 2.97736 47.2081 2.95184 47.1558 2.95184C47.1035 2.95184 47.0534 2.97736 47.0164 3.02277Z" fill="#BDBDBD"/>
<path d="M46.0862 3.33313C46.3839 3.76744 46.69 4.19283 46.9767 4.63819C46.995 4.66068 47.0167 4.67852 47.0406 4.69069C47.0646 4.70286 47.0902 4.70913 47.1161 4.70913C47.142 4.70913 47.1676 4.70286 47.1916 4.69069C47.2155 4.67852 47.2372 4.66068 47.2555 4.63819C47.2911 4.59191 47.3109 4.53068 47.3109 4.46704C47.3109 4.4034 47.2911 4.34217 47.2555 4.29589C46.9685 3.85037 46.6627 3.42498 46.3651 2.99067C46.328 2.94547 46.2779 2.9201 46.2256 2.9201C46.1734 2.9201 46.1233 2.94547 46.0862 2.99067C46.0504 3.03688 46.0305 3.09817 46.0305 3.1619C46.0305 3.22563 46.0504 3.28692 46.0862 3.33313Z" fill="#BDBDBD"/>
<path d="M44.5957 3.02277L43.578 4.22357C43.5414 4.26929 43.521 4.33076 43.521 4.3948C43.521 4.45883 43.5414 4.52031 43.578 4.56603C43.6154 4.61026 43.6654 4.63496 43.7174 4.63496C43.7694 4.63496 43.8193 4.61026 43.8568 4.56603L44.8746 3.36523C44.8929 3.34274 44.9074 3.31605 44.9174 3.28667C44.9273 3.25729 44.9324 3.2258 44.9324 3.194C44.9324 3.1622 44.9273 3.13071 44.9174 3.10133C44.9074 3.07195 44.8929 3.04526 44.8746 3.02277C44.8563 3.00028 44.8346 2.98245 44.8106 2.97028C44.7867 2.95811 44.7611 2.95184 44.7352 2.95184C44.7093 2.95184 44.6836 2.95811 44.6597 2.97028C44.6358 2.98245 44.614 3.00028 44.5957 3.02277Z" fill="#BDBDBD"/>
<path d="M43.6654 3.33313C43.963 3.76744 44.2692 4.19283 44.5559 4.63819C44.5742 4.66068 44.5959 4.67852 44.6199 4.69069C44.6438 4.70286 44.6694 4.70913 44.6953 4.70913C44.7212 4.70913 44.7469 4.70286 44.7708 4.69069C44.7947 4.67852 44.8164 4.66068 44.8348 4.63819C44.8703 4.59191 44.8901 4.53068 44.8901 4.46704C44.8901 4.4034 44.8703 4.34217 44.8348 4.29589C44.5478 3.85037 44.2419 3.42498 43.9443 2.99067C43.9072 2.94547 43.8571 2.9201 43.8048 2.9201C43.7526 2.9201 43.7025 2.94547 43.6654 2.99067C43.6297 3.03688 43.6097 3.09817 43.6097 3.1619C43.6097 3.22563 43.6297 3.28692 43.6654 3.33313Z" fill="#BDBDBD"/>
</svg>
