<svg width="59" height="59" viewBox="0 0 59 59" fill="none" xmlns="http://www.w3.org/2000/svg">
<g clip-path="url(#clip0_115_408)">
<path d="M46.765 31.1656C46.765 31.1656 46.1384 28.8401 49.351 27.9087C50.4562 27.5884 51.4094 27.6819 52.3264 28.4083C52.7964 28.7899 53.159 29.2873 53.3783 29.8516C53.5977 30.4159 53.6662 31.0276 53.5772 31.6265C53.4509 32.4129 52.9255 33.229 52.1339 33.3156C52.5634 33.6397 52.9005 34.0705 53.1118 34.5653C53.3231 35.06 53.4012 35.6015 53.3383 36.1358C53.2002 37.1991 52.673 37.957 51.4539 38.5544C49.3072 39.6061 47.601 38.5544 47.601 38.5544" fill="white"/>
<path d="M29.1546 44.6853C28.8578 44.601 28.5189 45.0981 28.4247 45.3914C28.246 45.9479 28.2197 46.5421 28.3484 47.1122C28.4772 47.6823 28.7564 48.2075 29.1569 48.6331C29.5575 49.0588 30.0648 49.3693 30.626 49.5325C31.1872 49.6956 31.7819 49.7054 32.3482 49.5608C31.8774 50.284 32.1999 51.2846 32.7728 51.9307C33.2136 52.4166 33.7734 52.7792 34.397 52.983C35.0206 53.1867 35.6865 53.2245 36.3292 53.0926C37.6067 52.8144 38.4133 52.1363 38.8277 50.8288C39.2422 49.5213 38.8734 47.9876 38.8734 47.9876" fill="white"/>
<path d="M11.6328 24.862L35.102 39.6064L45.3845 32.9487C44.7968 31.9292 43.7412 30.0982 42.9547 28.7348C43.0933 28.7631 43.2157 28.7831 43.3181 28.7941C44.0819 28.8701 44.876 28.8845 45.5911 28.6051C46.3061 28.3257 46.9274 27.6935 46.9925 26.9284C47.0045 26.7876 47.0036 26.2806 46.576 26.0198C45.4649 25.3424 44.4779 25.0101 43.3653 24.3352C41.85 23.4162 40.289 22.4552 39.2794 20.9987L36.5996 17.1309L36.2338 16.6658L33.2449 12.8544C32.88 12.3894 32.504 11.9141 31.9985 11.6067C31.3193 11.1933 30.4913 11.1319 29.6987 11.063C26.2355 10.7624 22.4883 10.2863 19.1513 9.31219C16.8976 8.5439 15.3617 7.83777 13.861 6.58591C13.861 6.58591 8.7797 5.55973 8.11215 9.56562C7.98811 10.3094 7.81095 11.1659 7.64551 12.0931C6.92098 16.16 6.42154 21.5883 11.6328 24.862Z" fill="#FCE0CD"/>
<path d="M38.9723 21.1771C40.0812 22.7605 41.7835 23.843 43.436 24.7888C44.339 25.3056 45.3104 25.6896 46.2093 26.2143C46.372 26.2816 46.5063 26.4032 46.5896 26.5583C46.606 26.6076 46.6195 26.6579 46.6299 26.7088C46.654 26.8232 46.6289 26.6494 46.6365 26.7545C46.6391 26.7922 46.6408 26.8299 46.6399 26.8676C46.6141 27.203 46.4686 27.518 46.2301 27.7552C45.4848 28.5464 44.321 28.534 43.3186 28.4366C43.2244 28.4373 43.1342 28.475 43.0675 28.5417C43.0009 28.6083 42.9631 28.6985 42.9625 28.7928C42.9645 28.8866 43.0026 28.976 43.069 29.0424C43.1353 29.1087 43.2248 29.1469 43.3186 29.1489C44.3603 29.2499 45.5097 29.2248 46.3812 28.5671C47.0215 28.0841 47.549 27.2287 47.2863 26.4036C47.1179 25.873 46.6598 25.6409 46.199 25.3925C45.729 25.139 45.2439 24.9155 44.7642 24.6812C43.8189 24.2101 42.9075 23.674 42.0365 23.0767C41.1136 22.4544 40.23 21.7362 39.5868 20.8176C39.5374 20.7379 39.4593 20.6803 39.3686 20.6565C39.2779 20.6327 39.1816 20.6447 39.0995 20.6899C39.0186 20.7381 38.9598 20.8162 38.9359 20.9074C38.912 20.9985 38.9249 21.0954 38.9717 21.1771H38.9723Z" fill="#211916"/>
<path d="M34.1268 26.6447C34.1268 26.6447 32.2942 29.6604 34.6546 33.8827C37.015 38.1051 47.619 37.1313 47.619 37.1313C50.8409 36.4551 50.7385 33.3561 50.518 32.3056C50.0938 30.2849 48.1127 29.2461 47.0956 29.5325C47.5951 28.5499 48.3452 26.1287 46.2727 24.4083C44.0795 22.5877 41.3252 23.5612 40.9587 24.8921C40.4474 23.7698 38.1299 23.7324 36.7372 24.2605C35.168 24.8555 34.5681 25.6711 34.1268 26.6447Z" fill="white"/>
<path d="M13.6102 6.83841C14.7184 7.74132 15.958 8.46983 17.286 8.99879C18.0512 9.32109 18.836 9.59499 19.6357 9.81887C20.4654 10.0438 21.3036 10.2367 22.1465 10.4054C23.889 10.7541 25.6512 11.0011 27.4172 11.1958C28.2818 11.2912 29.1478 11.367 30.0138 11.4467C30.7662 11.516 31.5484 11.6337 32.1379 12.1475C32.4693 12.4572 32.7707 12.7975 33.0381 13.1639L33.9894 14.3764L35.9821 16.9168C36.0491 16.9831 36.1396 17.0203 36.2339 17.0203C36.3282 17.0203 36.4187 16.9831 36.4857 16.9168C36.5504 16.8489 36.5864 16.7588 36.5864 16.665C36.5864 16.5712 36.5504 16.4811 36.4857 16.4132L34.7203 14.1614C34.1752 13.4666 33.652 12.744 33.0709 12.0787C32.5366 11.4459 31.8008 11.0163 30.9871 10.862C30.171 10.7036 29.3253 10.6769 28.4993 10.5958C26.7529 10.4245 25.0103 10.2067 23.2825 9.89736C21.5831 9.59318 19.8855 9.22343 18.2651 8.62013C16.7723 8.06431 15.3458 7.35699 14.1147 6.33512C14.0467 6.27066 13.9565 6.23474 13.8628 6.23474C13.7691 6.23474 13.679 6.27066 13.611 6.33512C13.5449 6.4023 13.5079 6.49272 13.5079 6.58691C13.5079 6.68111 13.5449 6.77153 13.611 6.83871L13.6102 6.83841Z" fill="#211916"/>
<path d="M47.727 37.5383C48.6192 37.3463 49.4832 36.9197 50.0629 36.1975C50.5235 35.6142 50.8189 34.9178 50.9182 34.1812C51.0054 33.592 50.9991 32.9927 50.8996 32.4054C50.7328 31.4785 50.2441 30.6402 49.5197 30.0382C48.8538 29.4878 47.8981 29.0156 47.0139 29.2527L47.4162 29.7758C48.0987 28.422 48.2802 26.738 47.515 25.378C46.5451 23.6539 44.3167 22.6973 42.4139 23.2955C41.6479 23.5363 40.863 24.0502 40.6284 24.8611L41.2792 24.776C40.8183 23.8055 39.4912 23.5927 38.536 23.5963C37.288 23.587 36.0744 24.0055 35.0975 24.7821C34.6312 25.178 34.2515 25.6658 33.9823 26.215C33.7745 26.6223 34.3882 26.9831 34.5973 26.5745C34.7955 26.1663 35.0619 25.795 35.3852 25.4765C35.8043 25.0918 36.2962 24.795 36.832 24.6036C37.7479 24.2584 38.7482 24.2051 39.6957 24.4509C39.9125 24.5055 40.1185 24.5963 40.3049 24.7196C40.4623 24.8206 40.5871 24.9649 40.6643 25.1351C40.8009 25.4227 41.2354 25.3256 41.3151 25.0499C41.3238 25.0203 41.3333 24.9906 41.3433 24.9609C41.3759 24.8646 41.3112 25.022 41.3557 24.9295C41.3838 24.871 41.4155 24.8143 41.4505 24.7597C41.524 24.6505 41.6119 24.5516 41.7118 24.4658C41.9281 24.2828 42.1739 24.138 42.4389 24.0377C43.1556 23.7773 43.9378 23.7585 44.6662 23.9844C45.5284 24.2441 46.2747 24.793 46.7795 25.5387C47.1779 26.1619 47.3596 26.8991 47.2966 27.636C47.2711 27.9785 47.207 28.3169 47.1055 28.645C47.0589 28.8003 47.0043 28.9526 46.9452 29.1036C46.9418 29.1124 46.9007 29.2103 46.9328 29.1349C46.9172 29.1714 46.901 29.2079 46.8846 29.244C46.8579 29.3019 46.8302 29.3594 46.8015 29.4164C46.768 29.4777 46.753 29.5475 46.7584 29.6172C46.7639 29.6869 46.7895 29.7535 46.8321 29.8089C46.8747 29.8644 46.9325 29.9062 46.9984 29.9294C47.0644 29.9525 47.1357 29.956 47.2036 29.9394C47.2353 29.931 47.2674 29.9246 47.2991 29.917C47.368 29.9002 47.2991 29.9148 47.3196 29.913C47.3964 29.9061 47.4736 29.904 47.5506 29.9069C47.583 29.9084 47.6153 29.9114 47.6477 29.9137C47.7178 29.9191 47.6678 29.9151 47.6525 29.9137C47.6695 29.9161 47.6864 29.9186 47.7031 29.9218C47.7904 29.9378 47.8767 29.9563 47.9624 29.9811C48.3 30.0803 48.6169 30.2396 48.8979 30.4515C49.5698 30.9498 50.0323 31.6803 50.1953 32.5009C50.2036 32.5425 50.211 32.5845 50.218 32.6264C50.222 32.6509 50.2254 32.6755 50.2294 32.7006C50.2389 32.7592 50.221 32.6228 50.2294 32.7062C50.2422 32.8225 50.254 32.9386 50.2606 33.0555C50.2758 33.3254 50.2704 33.596 50.2446 33.865C50.241 33.9021 50.2367 33.9392 50.2325 33.9762C50.2322 33.993 50.23 34.0097 50.2259 34.026C50.2138 34.1023 50.2012 34.1783 50.1861 34.2539C50.155 34.4093 50.1154 34.5629 50.0674 34.7139C50.027 34.8468 49.9768 34.9765 49.9174 35.1021C49.8453 35.2548 49.7619 35.4019 49.668 35.5423C49.5696 35.69 49.4561 35.827 49.3294 35.9512C49.1949 36.0888 49.0456 36.2112 48.8842 36.3159C48.4724 36.5772 48.0155 36.7593 47.5368 36.8528C47.089 36.9491 47.2785 37.6357 47.7261 37.5394L47.727 37.5383Z" fill="#D7D7D7"/>
<path d="M46.0345 45.2601C46.2345 45.5993 46.4034 45.956 46.539 46.3257C47.1435 47.6779 47.726 49.0479 48.0942 50.4822C48.2209 50.9753 48.3215 51.5002 48.1743 51.9875C48.0271 52.4748 47.5539 52.8993 47.0508 52.8223C46.7501 52.7858 46.4613 52.6832 46.205 52.522C45.5617 52.0193 44.6111 51.0109 43.6198 49.8574C43.8559 49.8199 43.927 51.6835 43.3459 52.1662C42.6555 52.7396 41.6509 52.1436 41.2983 51.8949C41.0731 51.7362 39.4651 49.8325 38.1542 48.2279C38.1796 48.5456 38.1925 48.8614 37.9809 49.0853C37.4468 49.6504 36.1835 48.9775 35.9036 48.7327C35.5454 48.4199 34.5682 47.5797 33.7318 46.8275L31.7881 45.2601L47.183 40.0966L49.0748 43.1513C49.709 44.2736 50.2846 45.428 50.7995 46.6097C50.8978 46.8667 50.9723 47.1321 51.0221 47.4027C51.084 47.7782 50.9118 48.6314 50.344 48.9013C49.9572 49.0851 49.2478 48.7201 48.9079 48.4595C48.3035 47.9971 46.9318 46.7715 46.4765 46.1631" fill="#FCE0CD"/>
<path d="M1.58947 26.3792C2.7109 27.3266 4.00371 27.7592 5.16862 28.7332C7.16014 30.3969 11.3597 35.1114 11.7962 35.5721C13.403 37.4693 15.6068 38.2319 18.1855 39.7181C19.6316 40.2772 22.0939 41.3848 22.8923 41.7519C24.8973 42.9103 26.8164 43.713 28.643 44.4991C29.8773 44.9442 33.6707 46.3663 35.7999 46.9642C36.8268 47.2527 38.9672 47.2393 39.2999 47.2215C39.917 47.1886 40.525 46.9046 40.7562 46.3946C40.86 46.1667 41.0652 45.4549 40.5738 44.8515C41.5169 45.0257 42.4926 45.145 43.3522 45.2893C44.27 45.4436 45.5106 45.4649 46.0345 45.23C46.428 45.0536 47.1815 44.5345 47.1819 44.1034C47.183 43.1852 46.3319 42.7077 45.8103 42.5501L39.4301 40.6226C39.749 40.746 40.0217 40.8521 40.2196 40.9308C41.1727 41.3232 42.9387 41.7158 44.0095 42.1083C46.0797 42.6147 48.1224 43.0987 50.2504 43.0183C50.5125 43.0307 50.7728 42.9697 51.0021 42.8421C51.3052 42.6358 51.4079 42.2302 51.3901 41.8639C51.3571 41.1836 50.5365 40.08 49.9571 39.7218C48.6485 39.0005 47.2757 38.4027 45.8562 37.9362C47.026 38.2533 48.4231 38.4742 49.0749 37.5442C49.5535 36.8617 49.2253 36.0299 48.6844 35.396C47.7942 34.3527 43.5368 32.1168 43.1203 32.0022C41.4352 31.0153 40.2314 30.2333 38.9337 29.4288C36.8838 28.1581 34.0023 26.361 32.1027 25.1609C30.7185 23.9229 30.1189 23.0931 28.779 21.7266C31.5639 21.6215 34.0866 21.5166 36.8727 21.4119C37.7843 21.3774 38.7302 21.3346 39.5399 20.9144C40.3496 20.4942 40.9807 19.5807 40.7715 18.6929C40.4522 17.3334 38.6783 17.0653 37.2873 16.9459C34.4143 16.6974 31.6193 15.8809 29.0643 14.5439C27.8098 13.8863 26.6071 13.1005 25.2559 12.6753C20.0068 11.0232 14.4944 15.194 9.00343 14.159C7.18952 13.7559 5.45722 12.9513 3.76349 12.1559C3.76349 12.1559 1.60371 11.2595 0.602165 16.2669C-0.399382 21.2743 -0.205008 24.8633 1.58947 26.3792Z" fill="#FCE0CD"/>
<path d="M28.7618 22.0838C30.7637 22.0084 32.7654 21.9303 34.767 21.8495C35.7514 21.8111 36.7424 21.8039 37.7246 21.7232C38.6268 21.649 39.541 21.4551 40.2513 20.8597C40.8731 20.3384 41.276 19.5243 41.1366 18.7054C41.0697 18.3821 40.9291 18.0786 40.7258 17.8184C40.5225 17.5583 40.262 17.3485 39.9645 17.2054C39.3413 16.879 38.6414 16.7471 37.9499 16.659C37.1253 16.5538 36.2992 16.498 35.479 16.3533C33.6377 16.0313 31.8464 15.4703 30.1503 14.6845C28.468 13.9012 26.9261 12.7753 25.1255 12.2649C21.8709 11.3423 18.5262 12.5133 15.373 13.2938C13.7705 13.6904 12.1339 14.0217 10.4746 13.9632C8.64676 13.8987 6.91817 13.2031 5.26925 12.4615C4.82516 12.2618 4.38418 12.0554 3.94335 11.8487C3.86121 11.8036 3.7649 11.7917 3.67426 11.8155C3.58362 11.8393 3.50553 11.8969 3.45608 11.9765C3.40918 12.0582 3.39629 12.1551 3.42019 12.2462C3.44409 12.3373 3.50287 12.4154 3.58383 12.4636C5.29225 13.2648 7.0483 14.1195 8.9088 14.502C10.519 14.833 12.2028 14.6752 13.8033 14.3717C15.4197 14.0653 16.9967 13.5895 18.5959 13.2071C20.1267 12.8411 21.696 12.5543 23.2765 12.6635C24.0716 12.7186 24.8544 12.8895 25.6002 13.1708C26.4215 13.5075 27.2169 13.9043 27.98 14.3578C29.5848 15.2717 31.2891 15.9985 33.0594 16.5241C33.9337 16.7752 34.8229 16.9713 35.7218 17.1112C36.5108 17.2341 37.3094 17.2721 38.0977 17.3916C39.1586 17.5523 40.8204 18.0399 40.3936 19.4415C40.171 20.1718 39.4853 20.6297 38.7852 20.8301C37.9097 21.0808 36.9677 21.0527 36.0656 21.0864C34.118 21.1611 32.1705 21.2373 30.223 21.3152C29.7362 21.334 29.2493 21.3526 28.7624 21.371C28.3056 21.3882 28.3033 22.1004 28.7624 22.0832L28.7618 22.0838Z" fill="#211916"/>
<path d="M33.4794 47.0794C34.1916 47.7198 34.909 48.3574 35.6408 48.9754C35.9107 49.1925 36.2145 49.3636 36.54 49.482C36.9173 49.6505 37.3375 49.6984 37.743 49.6192C37.9972 49.555 38.2174 49.3963 38.3587 49.1754C38.5038 48.8984 38.5581 48.5827 38.514 48.2731C38.5119 48.1794 38.4737 48.09 38.4073 48.0237C38.341 47.9574 38.2517 47.9192 38.1579 47.917C38.0637 47.9178 37.9736 47.9556 37.907 48.0222C37.8403 48.0888 37.8026 48.1789 37.8018 48.2731C37.8225 48.4148 37.8197 48.5589 37.7933 48.6996C37.7765 48.7709 37.7359 48.8343 37.6783 48.8795C37.6206 48.9248 37.5494 48.9491 37.4761 48.9485C37.4395 48.9464 37.4029 48.9464 37.3663 48.9485C37.3236 48.948 37.2809 48.9452 37.2384 48.9401C36.8695 48.8778 36.519 48.7347 36.2119 48.5211C36.1855 48.5033 36.1594 48.4852 36.1339 48.466C36.2204 48.5312 36.128 48.4571 36.1116 48.4429L35.9222 48.2791C35.7409 48.122 35.5599 47.9648 35.3789 47.8074C34.9107 47.4 34.4453 46.9895 33.9827 46.5758C33.6428 46.2702 33.137 46.7723 33.4791 47.0794H33.4794Z" fill="#211916"/>
<path d="M37.1129 47.4813C38.1604 48.7771 39.2157 50.0686 40.303 51.332C40.5793 51.6534 40.8484 52.026 41.2066 52.2619C41.904 52.7205 42.9515 53.0492 43.6357 52.3842C43.9581 52.0708 44.0611 51.5813 44.1158 51.1526C44.1779 50.7486 44.1661 50.3365 44.081 49.9367C43.9718 49.4916 43.2848 49.6803 43.3941 50.126C43.4011 50.1542 43.4266 50.3051 43.4193 50.2465C43.4288 50.3231 43.4342 50.4004 43.4364 50.4774C43.4429 50.6561 43.4373 50.835 43.4198 51.013C43.3916 51.3025 43.3333 51.6386 43.1563 51.8588C43.1962 51.8091 43.1219 51.8898 43.1201 51.8911C43.0927 51.913 43.064 51.9332 43.0342 51.9517C42.9589 51.9971 42.8754 52.0274 42.7885 52.0407C42.6212 52.0615 42.4513 52.0454 42.2909 51.9935C42.1381 51.9493 41.9905 51.889 41.8504 51.8135C41.7787 51.7755 41.7085 51.7351 41.6397 51.6921C41.6028 51.6691 41.4946 51.623 41.4787 51.5855C41.4979 51.631 41.5565 51.6573 41.5013 51.5987C41.4848 51.5812 41.4669 51.565 41.4499 51.5479C41.3847 51.4819 41.3222 51.4129 41.26 51.344C41.0888 51.1544 40.9217 50.9609 40.7555 50.767C40.2674 50.1978 39.7874 49.6215 39.3094 49.0438C38.7417 48.3577 38.1778 47.6683 37.6179 46.9758C37.5509 46.9096 37.4604 46.8724 37.3661 46.8724C37.2719 46.8724 37.1814 46.9096 37.1144 46.9758C37.0496 47.0436 37.0134 47.1338 37.0134 47.2276C37.0134 47.3214 37.0496 47.4116 37.1144 47.4794L37.1129 47.4813Z" fill="#211916"/>
<path d="M40.5813 46.6435C41.9747 48.47 43.4248 50.2869 45.0367 51.9269C45.3111 52.2142 45.6022 52.485 45.9085 52.7381C46.3411 53.0851 47.0582 53.3167 47.5968 53.1056C48.2319 52.8562 48.5681 52.2242 48.6011 51.5669C48.6374 50.8414 48.3727 50.0877 48.1518 49.4068C47.8917 48.6056 47.5765 47.8242 47.2444 47.0506C47.161 46.8561 47.0763 46.6621 46.9904 46.4684C46.9523 46.3823 46.9143 46.2963 46.8757 46.2105C46.8207 46.0882 46.8461 46.1443 46.8576 46.1719C46.842 46.135 46.828 46.0977 46.8131 46.0603C46.6871 45.72 46.5297 45.3921 46.3428 45.0811C46.0973 44.6953 45.4807 45.0523 45.7277 45.4404C46.0318 45.918 46.22 46.4733 46.4471 46.9899C46.7233 47.6186 46.9882 48.2523 47.2238 48.8975C47.4683 49.5404 47.668 50.1996 47.8213 50.8701C47.9285 51.3697 47.9724 52.0187 47.5038 52.3561C47.4198 52.4146 47.3231 52.4523 47.2217 52.4661C47.1202 52.4799 47.017 52.4693 46.9204 52.4354C46.7207 52.3967 46.5316 52.3155 46.3661 52.1972C46.0831 51.959 45.8128 51.7061 45.5562 51.4396C44.8342 50.7066 44.1575 49.9284 43.4938 49.1424C42.7055 48.2085 41.9397 47.256 41.1964 46.2847C41.1467 46.2054 41.0686 46.148 40.9781 46.1243C40.8876 46.1006 40.7914 46.1122 40.7092 46.1569C40.6281 46.205 40.5692 46.2831 40.5453 46.3743C40.5214 46.4654 40.5344 46.5624 40.5814 46.6441L40.5813 46.6435Z" fill="#211916"/>
<path d="M48.7661 43.3307C49.1616 44.0437 49.5433 44.7646 49.9024 45.497C50.0762 45.851 50.2465 46.2076 50.4001 46.5708C50.4687 46.7327 50.5276 46.8984 50.5765 47.0673C50.6032 47.1602 50.6275 47.2539 50.6483 47.3483C50.6591 47.3976 50.6707 47.4474 50.678 47.4967C50.6655 47.406 50.6768 47.5008 50.6765 47.5213C50.6815 47.7927 50.6129 48.0604 50.4778 48.2958C50.3284 48.5465 50.1782 48.6336 49.9214 48.5715C49.7507 48.5281 49.5865 48.4619 49.4334 48.3748C49.3626 48.3359 49.293 48.2944 49.2257 48.2497C49.201 48.2335 49.1767 48.2171 49.1527 48.2C49.1286 48.1829 49.1081 48.1681 49.0869 48.1516C49.1174 48.1751 49.1158 48.1737 49.082 48.1475C48.846 47.9624 48.6175 47.7675 48.3918 47.57C48.0839 47.3008 47.7815 47.0247 47.4886 46.7391C47.3485 46.6024 47.2103 46.4635 47.0769 46.3204C47.0211 46.261 46.966 46.2 46.9125 46.1381C46.8922 46.1147 46.872 46.0911 46.8521 46.0672C46.8438 46.0573 46.7584 45.9485 46.8037 46.0079C46.754 45.9286 46.6759 45.8712 46.5854 45.8475C46.4948 45.8238 46.3987 45.8354 46.3164 45.8801C46.2354 45.9282 46.1765 46.0064 46.1526 46.0975C46.1287 46.1887 46.1416 46.2857 46.1887 46.3674C46.6638 46.9538 47.1956 47.4921 47.7763 47.9743C48.3335 48.4672 48.9083 49.0095 49.6356 49.2312C49.8343 49.3046 50.0493 49.3222 50.2572 49.2821C50.4652 49.242 50.6582 49.1458 50.8154 49.0038C51.0832 48.7405 51.2643 48.4019 51.3347 48.0331C51.511 47.2185 51.129 46.4368 50.7942 45.7138C50.3621 44.7806 49.8807 43.8695 49.382 42.9704C49.1595 42.5698 48.5443 42.9284 48.767 43.33L48.7661 43.3307Z" fill="#211916"/>
<path d="M29.2492 44.3419C28.6493 44.2182 28.2169 44.8483 28.0646 45.3509C27.8921 45.9453 27.8733 46.5737 28.0098 47.1773C28.1438 47.783 28.4318 48.344 28.8459 48.8059C29.2601 49.2679 29.7863 49.6152 30.3739 49.8144C31.0408 50.0416 31.7588 50.0727 32.4429 49.9042L32.0408 49.381C31.6121 50.0691 31.7376 50.9241 32.1114 51.6066C32.4907 52.262 33.0628 52.7846 33.7498 53.1033C35.0555 53.7283 36.7135 53.6749 37.898 52.7941C38.5119 52.3229 38.9584 51.667 39.1716 50.9231C39.3084 50.4846 38.6212 50.2969 38.4848 50.7337C38.3374 51.2464 38.0534 51.7094 37.6631 52.0731C37.2539 52.4186 36.7617 52.6514 36.2351 52.7487C35.6314 52.8708 35.0058 52.8265 34.4253 52.6204C33.8449 52.4144 33.3314 52.0544 32.9398 51.5789C32.5458 51.0744 32.2914 50.3255 32.6556 49.7406C32.6895 49.6793 32.7047 49.6094 32.6994 49.5396C32.6941 49.4697 32.6685 49.403 32.6259 49.3474C32.5832 49.2919 32.5252 49.25 32.4591 49.2269C32.3929 49.2038 32.3215 49.2006 32.2535 49.2175C31.7955 49.3333 31.3162 49.3361 30.8569 49.2255C30.3976 49.1148 29.9721 48.8942 29.6171 48.5825C29.262 48.2708 28.9881 47.8774 28.819 47.4363C28.6499 46.9951 28.5906 46.5195 28.6462 46.0503C28.6633 45.818 28.7207 45.5903 28.8158 45.3776C28.8602 45.2887 28.916 45.2059 28.9817 45.1313C29.0151 45.0951 29.0507 45.0734 29.0815 45.0423C29.1203 45.003 29.1158 45.0411 29.0599 45.0295C29.5072 45.1218 29.6979 44.436 29.2492 44.3427V44.3419Z" fill="#D7D7D7"/>
<path d="M49.4456 28.2521C49.9645 28.0394 50.5383 28 51.0814 28.1399C51.6221 28.304 52.106 28.6162 52.4783 29.0412C53.151 29.7939 53.4576 30.9431 53.1406 31.9155C52.9939 32.3654 52.6461 32.8926 52.1339 32.9595C52.0571 32.9623 51.9832 32.9895 51.923 33.0373C51.8628 33.0851 51.8195 33.1509 51.7994 33.225C51.7794 33.2992 51.7835 33.3779 51.8114 33.4495C51.8392 33.5211 51.8893 33.5819 51.9542 33.623C52.3287 33.9066 52.6216 34.2841 52.8032 34.7174C52.9847 35.1506 53.0485 35.6242 52.988 36.09C52.9275 36.5559 52.745 36.9974 52.4588 37.3699C52.1726 37.7425 51.793 38.0327 51.3585 38.2112C51.269 38.2388 51.1935 38.2995 51.1472 38.3809C51.101 38.4624 51.0876 38.5584 51.1098 38.6493C51.1354 38.7401 51.1957 38.8171 51.2777 38.8636C51.3597 38.9102 51.4568 38.9225 51.5478 38.898C52.1165 38.6805 52.6158 38.3132 52.9926 37.835C53.3695 37.3567 53.61 36.7854 53.6885 36.1816C53.767 35.5778 53.6806 34.964 53.4386 34.4053C53.1965 33.8466 52.8078 33.3639 52.3136 33.0082L52.1339 33.6717C53.5332 33.4889 54.1008 31.9323 53.9466 30.685C53.8656 29.9994 53.6028 29.3479 53.1854 28.798C52.768 28.2481 52.2111 27.8198 51.5726 27.5574C50.8268 27.2708 50.0008 27.2736 49.257 27.5654C49.1673 27.5926 49.0915 27.6533 49.0452 27.7348C48.999 27.8163 48.9858 27.9124 49.0083 28.0034C49.0341 28.0941 49.0944 28.171 49.1764 28.2175C49.2583 28.264 49.3553 28.2764 49.4463 28.2521H49.4456Z" fill="#D7D7D7"/>
<path d="M26.7415 34.3891C29.1343 35.8122 31.4933 37.2921 33.9191 38.6592C34.4179 38.9561 34.9347 39.2215 35.4666 39.454C35.87 39.6192 36.2757 39.7792 36.6815 39.9383C37.5846 40.2923 38.4905 40.6393 39.3951 40.9897C39.7352 41.1214 40.0726 41.2628 40.4158 41.3861C40.9366 41.5732 41.4714 41.7212 42.0035 41.8715C42.5511 42.0262 43.1015 42.1761 43.6411 42.3568C44.2915 42.5576 44.9521 42.7235 45.6202 42.854C47.0336 43.1643 48.4767 43.3998 49.9279 43.3828C50.5715 43.3753 51.2886 43.3333 51.5947 42.6662C51.8378 42.1368 51.7579 41.5814 51.5205 41.0693C51.1597 40.282 50.5528 39.6332 49.7912 39.2209C48.8678 38.7371 47.9148 38.3121 46.9379 37.9482C46.6109 37.8236 46.2815 37.7053 45.9499 37.5933C45.5148 37.4458 45.3282 38.1334 45.7605 38.28C46.8457 38.6447 47.906 39.0796 48.9346 39.582C49.2007 39.713 49.4677 39.8461 49.7229 39.9975C50.047 40.2101 50.3246 40.4861 50.539 40.8089C50.6915 41.0154 50.8209 41.2381 50.9248 41.4728C51.0018 41.6363 51.0391 41.8157 51.0334 41.9964C51.0379 42.0961 51.0212 42.1956 50.9846 42.2885C50.948 42.3813 50.8921 42.4654 50.8208 42.5352C50.6086 42.7005 50.2486 42.6651 49.9982 42.6694C48.6199 42.6933 47.2562 42.4809 45.9128 42.1899C45.2483 42.069 44.5916 41.9087 43.9462 41.7097C43.434 41.5317 42.9106 41.3875 42.3891 41.2403C41.5088 40.9917 40.6512 40.7177 39.7989 40.3865C38.9519 40.0574 38.1034 39.7325 37.2567 39.4026C36.8413 39.2407 36.4264 39.0771 36.012 38.9119C35.8396 38.8427 35.6675 38.7726 35.4958 38.7015L35.4068 38.6647C35.4801 38.6955 35.3719 38.6499 35.3578 38.6437C35.1946 38.565 35.0364 38.4678 34.8774 38.3797C32.5182 37.074 30.2275 35.653 27.9185 34.2637C27.6459 34.0999 27.373 33.9367 27.0997 33.7741C26.7047 33.5392 26.3461 34.1547 26.7402 34.3891H26.7415Z" fill="#211916"/>
<path d="M45.715 42.8942C45.8599 42.9352 45.9987 42.9954 46.1277 43.0731C46.2855 43.1597 46.4281 43.2714 46.5499 43.4039C46.6656 43.5291 46.7491 43.6805 46.7933 43.8451C46.8132 43.926 46.825 44.0087 46.8283 44.0919C46.8317 44.0551 46.8034 44.1777 46.819 44.1391C46.7989 44.1844 46.7735 44.2272 46.7431 44.2664C46.6218 44.4193 46.4765 44.5516 46.3128 44.658C46.2279 44.7173 46.1403 44.7723 46.0501 44.823C46.0134 44.8436 45.9759 44.8636 45.9388 44.8823C45.9223 44.8906 45.8232 44.9326 45.8757 44.912C45.4816 45.0604 45.0266 45.0558 44.6113 45.0477C44.1076 45.0298 43.6058 44.9774 43.1094 44.8908C42.5242 44.7989 41.9372 44.7186 41.3521 44.6247C40.1792 44.4281 39.0198 44.1576 37.881 43.8147C37.0306 43.5682 36.1936 43.2775 35.3734 42.9438C34.8284 42.72 34.2161 42.4316 33.6437 42.1695C32.3477 41.576 31.081 40.919 29.8063 40.2805C28.3022 39.5274 26.7917 38.7803 25.3197 37.9658C25.187 37.8924 25.0551 37.8182 24.9238 37.7433C24.5259 37.5142 24.1671 38.1291 24.5643 38.3583C26.0353 39.2054 27.5664 39.9532 29.083 40.7142C30.4472 41.3987 31.8021 42.1106 33.191 42.7429C33.8224 43.0304 34.4493 43.3266 35.0902 43.5929C35.9403 43.943 36.8087 44.2466 37.6917 44.5026C38.8848 44.86 40.0999 45.1394 41.3293 45.339C41.931 45.4332 42.5347 45.5148 43.1358 45.6131C43.6801 45.708 44.2313 45.7579 44.7838 45.7625C45.2485 45.7616 45.7512 45.7401 46.1827 45.5512C46.5998 45.3724 46.9695 45.0988 47.2625 44.7523C47.933 43.9193 47.234 42.8576 46.4332 42.4281C46.2644 42.3379 46.0873 42.264 45.9045 42.2074C45.4659 42.0712 45.2782 42.7584 45.7152 42.8942H45.715Z" fill="#211916"/>
<path d="M1.40966 26.6868C2.3158 27.2179 3.23144 27.7368 4.08802 28.3466C4.67236 28.7693 5.22692 29.2317 5.74777 29.7305C6.80926 30.7315 7.81615 31.7913 8.81354 32.8556C9.62353 33.7199 10.4222 34.5946 11.2198 35.4703C11.5275 35.8082 11.8256 36.1572 12.1584 36.4707C12.8156 37.0719 13.5396 37.5958 14.3163 38.0321C15.1605 38.5227 16.0374 38.9548 16.898 39.4142C17.3329 39.6463 17.7586 39.9317 18.2186 40.1116C18.5895 40.257 18.9574 40.4083 19.3241 40.5638C20.0809 40.8828 20.8318 41.2133 21.5811 41.548C21.8779 41.6805 22.1741 41.814 22.4697 41.9486C22.8766 42.134 23.2579 42.3709 23.6525 42.5813C24.6102 43.092 25.5928 43.5541 26.585 43.9933C27.3683 44.34 28.151 44.6969 28.9556 44.991C30.3774 45.5103 31.7987 46.0312 33.2311 46.5203C33.9814 46.7764 34.7345 47.0265 35.4958 47.2473C36.2099 47.4358 36.9436 47.54 37.682 47.5579C38.2402 47.5989 38.8006 47.6042 39.3595 47.5738C40.2289 47.5045 41.0641 47.0117 41.2116 46.0971C41.2979 45.6317 41.2027 45.1509 40.9455 44.7536C40.6933 44.3733 40.0763 44.7295 40.3307 45.1129C40.4338 45.2705 40.4988 45.4499 40.5204 45.637C40.5421 45.8241 40.5199 46.0136 40.4556 46.1906C40.4497 46.2108 40.4408 46.2312 40.4336 46.2507C40.4753 46.145 40.404 46.3023 40.3994 46.31C40.3603 46.3768 40.3122 46.4378 40.2565 46.4913C40.1075 46.6301 39.9274 46.7311 39.7314 46.7859C39.2172 46.9417 38.6139 46.8776 38.0851 46.8611C37.3702 46.8388 36.6272 46.8153 35.9323 46.6304C35.2278 46.4431 34.5339 46.2075 33.843 45.9756C32.3778 45.4836 30.9252 44.9545 29.4737 44.4234C27.8226 43.8093 26.2092 43.0979 24.6421 42.2932C23.8927 41.9129 23.1732 41.4867 22.4068 41.1413C21.7003 40.8227 20.9911 40.5097 20.2794 40.2022C19.5172 39.8737 18.7137 39.6013 17.9905 39.1974C17.1436 38.7242 16.2753 38.2914 15.4212 37.8313C14.6454 37.4348 13.9063 36.9701 13.2128 36.4426C12.7429 36.051 12.3047 35.6228 11.9025 35.162C11.2051 34.4008 10.5128 33.6358 9.81034 32.8797C8.83224 31.8262 7.84464 30.781 6.8195 29.7737C6.39009 29.3517 5.95461 28.9339 5.49553 28.5439C4.73695 27.9125 3.92869 27.3433 3.07861 26.8417C2.64505 26.58 2.20615 26.3272 1.76933 26.0711C1.37301 25.8389 1.01424 26.4542 1.40981 26.6861L1.40966 26.6868Z" fill="#211916"/>
<path d="M24.816 36.6826C24.2796 36.5243 23.7169 36.4749 23.1612 36.5373C22.6054 36.5998 22.0677 36.7729 21.5799 37.0463C21.6363 36.3294 21.1594 35.6327 20.5116 35.3195C19.8637 35.0063 19.086 35.0401 18.4134 35.2944C17.8897 35.4925 17.3968 35.8402 17.1578 36.3463C16.7886 37.1278 17.1016 38.0453 17.4161 38.8503C17.1031 39.1892 16.9034 39.6171 16.8447 40.0747C16.786 40.5323 16.8713 40.9968 17.0886 41.4037C17.3059 41.8107 17.6446 42.1398 18.0575 42.3455C18.4705 42.5512 18.9372 42.6232 19.3929 42.5516C20.4895 44.114 22.1212 44.8122 23.9428 45.0489C25.0908 45.1973 26.8611 44.856 27.5335 43.9138C28.0473 43.1934 28.3419 42.5557 28.1165 41.7C27.9987 41.2527 27.3709 40.4188 26.675 40.704C27.3347 39.469 26.7584 37.7993 25.5809 37.0422C25.3426 36.8896 25.0855 36.7687 24.816 36.6826Z" fill="white"/>
<path d="M24.9106 36.3391C24.3282 36.1699 23.7179 36.1181 23.1153 36.1868C22.5127 36.2554 21.9297 36.4431 21.4002 36.7389L21.936 37.0463C21.9468 36.7534 21.8967 36.4614 21.7888 36.1888C21.681 35.9162 21.5178 35.669 21.3095 35.4627C20.8517 35.0136 20.2402 34.7555 19.599 34.7407C18.392 34.6871 16.9196 35.383 16.68 36.673C16.5349 37.4543 16.7928 38.2246 17.0732 38.9449L17.1647 38.5985C16.7964 38.9929 16.5611 39.4931 16.4923 40.0284C16.4235 40.5637 16.5246 41.1071 16.7813 41.5818C17.0379 42.0566 17.4372 42.4388 17.9228 42.6744C18.4084 42.91 18.9557 42.9871 19.4874 42.8949L19.0853 42.7317C20.2691 44.4003 22.264 45.3496 24.2949 45.4348C25.2381 45.4861 26.1772 45.2766 27.0091 44.8293C27.414 44.5917 27.7546 44.2587 28.0013 43.8593C28.3165 43.4141 28.5051 42.8917 28.5471 42.3478C28.5741 41.8063 28.3937 41.2749 28.0426 40.8617C27.6891 40.4404 27.1258 40.1561 26.5791 40.3608L26.9812 40.8839C27.1851 40.4723 27.2943 40.0203 27.3007 39.561C27.3071 39.1017 27.2107 38.6468 27.0183 38.2296C26.8216 37.7827 26.5318 37.3829 26.1682 37.0569C25.8046 36.7309 25.3756 36.4863 24.9099 36.3394C24.4741 36.1943 24.2867 36.8819 24.7206 37.0263C25.09 37.1455 25.4295 37.3426 25.7163 37.6042C26.0031 37.8657 26.2305 38.1858 26.3831 38.5427C26.5258 38.8541 26.5982 39.1931 26.5954 39.5356C26.5925 39.8781 26.5144 40.2158 26.3667 40.5249C26.2362 40.7759 26.4581 41.1644 26.7689 41.048C27.0833 40.9302 27.352 41.1222 27.5553 41.3846C27.6356 41.4917 27.7022 41.6085 27.7534 41.7322C27.8237 41.9486 27.8502 42.1768 27.8316 42.4036C27.7973 42.8361 27.5722 43.2261 27.3345 43.5779C27.1398 43.8663 26.8757 44.101 26.5664 44.2604C25.1633 45.0084 23.3705 44.7731 21.9609 44.173C21.0552 43.7936 20.2726 43.1702 19.7002 42.3723C19.6581 42.3071 19.5968 42.2564 19.5249 42.2272C19.4529 42.198 19.3737 42.1917 19.298 42.2091C18.9186 42.2596 18.5329 42.1924 18.193 42.0164C17.8531 41.8405 17.5755 41.5644 17.3976 41.2256C17.2198 40.8867 17.1504 40.5013 17.1988 40.1217C17.2472 39.742 17.411 39.3864 17.6682 39.103C17.7129 39.0586 17.7449 39.0031 17.761 38.9422C17.7771 38.8813 17.7767 38.8172 17.7597 38.7565C17.5639 38.2534 17.3562 37.7222 17.3475 37.1754C17.3396 36.9404 17.3885 36.707 17.4901 36.495C17.5916 36.283 17.7429 36.0986 17.931 35.9575C18.658 35.3995 19.8619 35.2222 20.6251 35.8032C20.8194 35.9454 20.9757 36.1333 21.0801 36.3503C21.1845 36.5672 21.2338 36.8066 21.2236 37.0472C21.2067 37.3282 21.5352 37.4757 21.7594 37.3546C22.2065 37.1058 22.6987 36.9487 23.2073 36.8924C23.7158 36.8362 24.2305 36.8819 24.7212 37.0269C25.1598 37.1631 25.3473 36.4758 24.9106 36.3391Z" fill="#D7D7D7"/>
<path d="M26.1496 19.7383C27.4075 20.8482 28.6043 22.0254 29.7348 23.2647C30.1315 23.7 30.5276 24.136 30.9432 24.5535C31.1759 24.7871 31.4139 25.0152 31.6572 25.2378C31.9864 25.5119 32.3397 25.7558 32.7126 25.9666C34.4104 27.0349 36.1118 28.0976 37.8168 29.1547C38.6201 29.6538 39.4226 30.1543 40.2242 30.6562C40.6558 30.9266 41.0887 31.1949 41.523 31.4612C41.7497 31.5997 41.9772 31.7372 42.2055 31.8738C42.4657 32.0539 42.7405 32.2118 43.0271 32.3461C43.0642 32.3609 43.1992 32.4188 43.0744 32.361C43.1486 32.3954 43.2228 32.4271 43.297 32.4618C43.5097 32.5624 43.7196 32.6696 43.9286 32.7767C44.5199 33.0819 45.1036 33.4015 45.6795 33.7357C46.2891 34.0882 46.8932 34.4537 47.4726 34.8544C47.9206 35.1642 48.3514 35.4617 48.6669 35.968C48.884 36.3165 49.0527 36.7577 48.8871 37.162C48.8162 37.3186 48.7098 37.4565 48.5765 37.565C48.4432 37.6735 48.2865 37.7496 48.1188 37.7873C47.364 37.9911 46.5001 37.7506 45.7634 37.5414C44.7312 37.2482 43.7691 36.7925 42.7713 36.4062C42.2668 36.211 41.7582 36.0352 41.2621 35.8186C40.7332 35.5885 40.2128 35.3387 39.6984 35.0777C36.5713 33.491 33.6846 31.5093 30.8254 29.4901C30.3836 29.1781 29.9419 28.8657 29.5006 28.553C29.4188 28.5061 29.3219 28.4933 29.2308 28.5171C29.1396 28.541 29.0615 28.5998 29.0133 28.6807C28.9676 28.7627 28.9553 28.8592 28.9792 28.95C29.003 29.0408 29.061 29.1189 29.141 29.1679C30.6361 30.2262 32.1258 31.2937 33.6489 32.3114C35.0932 33.2758 36.5645 34.2017 38.0897 35.0337C39.1405 35.6174 40.2215 36.1451 41.3282 36.6146C41.8408 36.8274 42.3668 37.0032 42.8812 37.2123C43.3956 37.4214 43.9058 37.6494 44.4258 37.8487C45.3118 38.2104 46.2438 38.4472 47.195 38.5521C48.0424 38.6243 48.962 38.426 49.4327 37.6496C49.9606 36.7789 49.4896 35.698 48.8375 35.0372C48.404 34.6299 47.9285 34.2699 47.4189 33.9631C46.2829 33.2271 45.1045 32.5585 43.89 31.9608C43.7069 31.8703 43.5228 31.7814 43.3336 31.7038C43.016 31.5479 42.7098 31.3699 42.4171 31.1711C41.5288 30.637 40.6514 30.084 39.7732 29.5336C38.0501 28.4542 36.3194 27.3868 34.596 26.3079C34.1736 26.0435 33.7514 25.7787 33.3293 25.5135C33.1376 25.393 32.9459 25.2724 32.7543 25.1517C32.5792 25.0559 32.4125 24.9454 32.2561 24.8213C31.7765 24.3873 31.3186 23.931 30.8774 23.4582C29.8927 22.4034 28.9308 21.3374 27.8778 20.3482C27.4757 19.9703 27.0674 19.5994 26.6529 19.2353C26.3104 18.9328 25.8049 19.4346 26.1493 19.7389L26.1496 19.7383Z" fill="#211916"/>
<path d="M50.4857 14.8006C50.544 14.8415 50.5891 14.8987 50.6153 14.9649C50.6415 15.0312 50.6476 15.1036 50.6331 15.1734C50.6151 15.239 50.5758 15.2967 50.5214 15.3375C50.4669 15.3783 50.4005 15.3997 50.3324 15.3984C50.1109 15.4198 49.8882 15.3796 49.6662 15.4051C49.5331 15.4142 49.4035 15.4521 49.2865 15.5164C49.1696 15.5807 49.0681 15.6697 48.989 15.7773C48.853 15.9905 48.8033 16.2475 48.8499 16.4961C48.8825 16.7319 49.0174 16.9497 49.0352 17.1833C49.0437 17.2853 49.0272 17.3878 48.987 17.4819C48.9469 17.5761 48.8843 17.659 48.8048 17.7234C48.6357 17.8409 48.4052 17.8017 48.2112 17.8256C48.065 17.8399 47.9236 17.8861 47.7972 17.961C47.6707 18.0358 47.5622 18.1375 47.4793 18.2589C47.3937 18.3813 47.3467 18.5265 47.3443 18.6759C47.342 18.8252 47.3845 18.9719 47.4662 19.0969C47.5159 19.1763 47.5939 19.2337 47.6845 19.2574C47.775 19.2812 47.8712 19.2694 47.9534 19.2247C48.0344 19.1765 48.0932 19.0984 48.1171 19.0072C48.141 18.916 48.1281 18.8191 48.0811 18.7374C48.0473 18.6929 48.0442 18.6978 48.0811 18.6393C48.1053 18.6079 48.1359 18.582 48.1707 18.5631C48.2056 18.5442 48.244 18.5328 48.2835 18.5297C48.5027 18.4955 48.7371 18.5209 48.9567 18.4359C49.2213 18.3234 49.4411 18.1263 49.5816 17.8755C49.7221 17.6246 49.7755 17.3343 49.7333 17.0499C49.7014 16.8141 49.5687 16.6048 49.5469 16.3682C49.5306 16.1909 49.5892 16.1222 49.7631 16.1081C50.003 16.0887 50.2403 16.1283 50.4805 16.0933C50.6099 16.0771 50.7349 16.0355 50.8482 15.971C50.9616 15.9064 51.061 15.8201 51.141 15.717C51.4844 15.2692 51.3862 14.4481 50.8442 14.1855C50.7621 14.1402 50.6657 14.1283 50.575 14.152C50.4844 14.1758 50.4063 14.2335 50.3569 14.3132C50.3101 14.395 50.2973 14.4918 50.3212 14.583C50.3451 14.6741 50.4038 14.7522 50.4847 14.8005L50.4857 14.8006Z" fill="#38302E"/>
<path d="M51.5966 11.1136C51.5225 11.0778 51.4432 11.0514 51.3696 11.0154C51.3027 10.9825 51.2404 10.9408 51.1844 10.8915C51.1253 10.8492 51.0699 10.8019 51.0187 10.7502C50.9099 10.6496 50.8307 10.5211 50.7897 10.3786C50.7487 10.2362 50.7474 10.0853 50.7859 9.94216C50.8694 9.70476 51.0942 9.53561 51.1748 9.29628C51.321 8.86168 50.915 8.29295 51.1006 7.87379C51.2613 7.51071 51.5043 7.42168 51.8388 7.35328C52.1051 7.29882 52.4241 7.27568 52.5641 7.04258C52.6181 6.92013 52.6547 6.79072 52.6728 6.65813C52.7702 6.29149 53.0586 6.00215 53.4482 6.0161C53.6478 5.9986 53.8483 6.03584 54.0282 6.12382C54.1354 6.20413 54.2532 6.26906 54.3783 6.31671C54.6424 6.38096 54.8828 6.17012 55.109 6.01892C55.3926 5.829 55.7712 5.68136 56.0701 5.84636C56.4725 6.06789 56.5467 6.70962 56.9583 6.91141C57.1851 7.0224 57.4627 6.98055 57.6911 7.08857C57.82 7.16169 57.9265 7.26867 57.999 7.39794C58.0716 7.52721 58.1073 7.67385 58.1025 7.822C58.1033 7.89473 58.0979 7.9674 58.0865 8.03923C58.0822 8.11371 58.0681 8.1873 58.0445 8.25808C57.9868 8.37881 57.9462 8.50701 57.9239 8.63897C57.9125 8.9105 58.1662 9.10546 58.3586 9.29747C58.6002 9.53858 58.7817 9.89097 58.6782 10.2164C58.5392 10.6533 57.9611 10.8419 57.8439 11.2847C57.7795 11.5288 57.8746 11.7932 57.8132 12.038C57.7668 12.1788 57.6827 12.3043 57.5701 12.4008C57.4575 12.4973 57.3206 12.5611 57.1743 12.5854C56.7354 12.6788 56.283 12.4116 55.8747 12.526C55.4764 12.7152 55.4181 13.2011 55.0602 13.4366C54.9402 13.5236 54.7987 13.5762 54.651 13.5886C54.5033 13.6011 54.355 13.5729 54.2222 13.5072C54.0048 13.3787 53.8836 13.1253 53.6647 12.9998C53.2669 12.7716 52.7265 13.0504 52.3179 12.8423C52.0137 12.6873 51.8904 12.3106 51.8886 11.9691C51.8872 11.6973 51.9268 11.3799 51.7254 11.1976C51.6867 11.1636 51.6433 11.1353 51.5966 11.1136Z" fill="#38302E"/>
<path d="M51.7463 10.8574C51.4544 10.7256 50.9025 10.4419 51.0719 10.0211C51.1461 9.83669 51.3123 9.69915 51.4 9.5205C51.4902 9.3313 51.5217 9.11941 51.4903 8.91215C51.4497 8.58572 51.221 8.1581 51.4458 7.85868C51.6535 7.58418 52.1298 7.63344 52.4215 7.51518C52.5287 7.47551 52.6258 7.41275 52.7059 7.33137C52.7861 7.24998 52.8473 7.15195 52.8854 7.04423C52.9515 6.85609 52.9481 6.65252 53.0763 6.48871C53.1234 6.4296 53.1839 6.3826 53.2528 6.35162C53.3217 6.32065 53.397 6.3066 53.4725 6.31066C53.6691 6.30298 53.8627 6.36034 54.0234 6.47387C54.1212 6.54255 54.233 6.5886 54.3507 6.60868C54.4685 6.62875 54.5892 6.62233 54.7042 6.5899C54.9193 6.50179 55.1218 6.38537 55.3061 6.24374C55.4606 6.14729 55.6728 6.03126 55.8617 6.08171C56.0111 6.12162 56.0968 6.26822 56.171 6.3933C56.3712 6.72863 56.542 7.07673 56.9318 7.22139C57.1349 7.29662 57.3796 7.26161 57.5722 7.36146C57.6406 7.40613 57.6973 7.46662 57.7375 7.53782C57.7776 7.60902 57.8001 7.68884 57.8029 7.77054C57.8277 8.01299 57.7337 8.19965 57.6646 8.42192C57.6311 8.52905 57.6213 8.64218 57.6358 8.75349C57.6503 8.8648 57.6888 8.97163 57.7486 9.06661C57.9407 9.37702 58.4501 9.63282 58.4096 10.0529C58.3799 10.3688 57.9627 10.5761 57.7792 10.8011C57.639 10.9637 57.552 11.1652 57.5297 11.3786C57.5095 11.5844 57.5947 11.8419 57.5001 12.0328C57.2981 12.4398 56.7524 12.2833 56.4129 12.2314C56.1764 12.1735 55.9277 12.1912 55.7019 12.2821C55.5274 12.3833 55.3801 12.5252 55.2725 12.6958C55.1819 12.8701 55.0655 13.0296 54.927 13.169C54.8514 13.2334 54.7593 13.2753 54.661 13.29C54.5627 13.3046 54.4623 13.2914 54.3712 13.2517C54.1709 13.1372 54.0555 12.9019 53.8592 12.7731C53.6409 12.6447 53.388 12.5876 53.1357 12.6099C52.9256 12.6171 52.6664 12.6763 52.4668 12.587C52.3875 12.5377 52.3213 12.4699 52.2738 12.3895C52.2263 12.3092 52.1988 12.2185 52.1938 12.1253C52.1582 11.892 52.2051 11.6554 52.1602 11.4212C52.1392 11.3017 52.0908 11.1886 52.0187 11.0909C51.9466 10.9932 51.8528 10.9136 51.7448 10.8583C51.4072 10.6802 51.1068 11.1924 51.4454 11.3708C51.6222 11.4638 51.5937 11.6622 51.5915 11.8399C51.5796 12.0749 51.6139 12.3099 51.6924 12.5317C51.8862 13.024 52.3089 13.2396 52.8242 13.2207C53.0349 13.213 53.3022 13.1504 53.4998 13.2491C53.6927 13.3451 53.8114 13.5734 53.9831 13.7024C54.3985 14.014 54.9951 13.9101 55.363 13.5727C55.5067 13.4231 55.6306 13.2557 55.7315 13.0744C55.8436 12.8999 55.9385 12.7864 56.1569 12.7959C56.4073 12.8069 56.6503 12.8885 56.9015 12.901C57.1511 12.9141 57.3991 12.854 57.615 12.7283C57.833 12.6037 57.9989 12.4048 58.0823 12.168C58.168 11.9073 58.0722 11.6466 58.1229 11.3874C58.1791 11.2265 58.285 11.0875 58.4252 10.9906C58.5893 10.8578 58.7341 10.7027 58.8555 10.5299C59.1432 10.0711 58.9593 9.52733 58.625 9.15134C58.5084 9.02002 58.2774 8.88248 58.2272 8.70621C58.2179 8.6152 58.2388 8.52364 58.2866 8.44566C58.3339 8.32444 58.3646 8.19743 58.3781 8.06804C58.4385 7.56815 58.2716 7.00818 57.7674 6.80342C57.5511 6.71558 57.2926 6.74866 57.0861 6.64584C56.9304 6.56853 56.8454 6.38113 56.764 6.23765C56.5421 5.84193 56.2568 5.46075 55.7511 5.47811C55.4953 5.4953 55.248 5.57697 55.0322 5.71551C54.881 5.80706 54.6487 6.05678 54.4571 6.02963C54.3577 6.01583 54.2642 5.91404 54.178 5.86641C54.0594 5.80252 53.9306 5.75937 53.7974 5.73881C53.5649 5.69322 53.3247 5.70462 53.0976 5.77205C52.8804 5.85055 52.6937 5.99604 52.5646 6.1875C52.4986 6.28536 52.4465 6.39187 52.4097 6.50399C52.3705 6.61676 52.3729 6.75045 52.3236 6.85832C52.2512 7.01708 51.9844 7.02301 51.836 7.05121C51.632 7.07959 51.435 7.14544 51.2549 7.24543C50.8292 7.51118 50.7035 7.98272 50.7913 8.45204C50.8524 8.65806 50.8922 8.86982 50.91 9.08397C50.9053 9.29007 50.7367 9.43815 50.6291 9.60077C50.4949 9.81703 50.4412 10.0737 50.4777 10.3257C50.5141 10.5776 50.6384 10.8085 50.8284 10.9779C51.0093 11.1444 51.2188 11.2767 51.4469 11.3685C51.5153 11.4059 51.5955 11.4157 51.671 11.3959C51.7465 11.3761 51.8115 11.3282 51.8528 11.262C51.8915 11.194 51.902 11.1136 51.8821 11.038C51.8622 10.9623 51.8134 10.8975 51.7463 10.8574Z" fill="#38302E"/>
<path d="M56.6098 8.44137L55.3844 9.61874C55.3404 9.66357 55.3158 9.72385 55.3158 9.78663C55.3158 9.84941 55.3404 9.90969 55.3844 9.95452C55.4295 9.99789 55.4897 10.0221 55.5523 10.0221C55.6149 10.0221 55.675 9.99789 55.7202 9.95452L56.9456 8.77715C56.9901 8.73262 57.0152 8.67223 57.0152 8.60926C57.0152 8.54629 56.9901 8.4859 56.9456 8.44137C56.9011 8.39684 56.8407 8.37183 56.7777 8.37183C56.7147 8.37183 56.6544 8.39684 56.6098 8.44137Z" fill="#BDBDBD"/>
<path d="M55.4898 8.74566C55.8482 9.17151 56.2168 9.58859 56.5619 10.0253C56.584 10.0473 56.6101 10.0648 56.639 10.0767C56.6678 10.0887 56.6986 10.0948 56.7298 10.0948C56.761 10.0948 56.7919 10.0887 56.8207 10.0767C56.8495 10.0648 56.8757 10.0473 56.8977 10.0253C56.9405 9.97989 56.9644 9.91985 56.9644 9.85745C56.9644 9.79506 56.9405 9.73502 56.8977 9.68964C56.5521 9.25282 56.1839 8.83573 55.8255 8.40989C55.7809 8.36557 55.7205 8.3407 55.6576 8.3407C55.5947 8.3407 55.5344 8.36557 55.4898 8.40989C55.4467 8.45519 55.4227 8.51529 55.4227 8.57777C55.4227 8.64026 55.4467 8.70036 55.4898 8.74566Z" fill="#BDBDBD"/>
<path d="M53.6952 8.44137L52.4697 9.61874C52.4257 9.66357 52.4011 9.72385 52.4011 9.78663C52.4011 9.84941 52.4257 9.90969 52.4697 9.95452C52.5148 9.99789 52.575 10.0221 52.6376 10.0221C52.7002 10.0221 52.7604 9.99789 52.8055 9.95452L54.0309 8.77715C54.053 8.7551 54.0705 8.72892 54.0824 8.70012C54.0943 8.67131 54.1005 8.64044 54.1005 8.60926C54.1005 8.57808 54.0943 8.5472 54.0824 8.5184C54.0705 8.48959 54.053 8.46342 54.0309 8.44137C54.0089 8.41932 53.9827 8.40183 53.9539 8.3899C53.9251 8.37797 53.8942 8.37183 53.863 8.37183C53.8319 8.37183 53.801 8.37797 53.7722 8.3899C53.7434 8.40183 53.7172 8.41932 53.6952 8.44137Z" fill="#BDBDBD"/>
<path d="M52.5751 8.74566C52.9334 9.17151 53.3021 9.58859 53.6473 10.0253C53.6693 10.0473 53.6955 10.0648 53.7243 10.0767C53.7531 10.0887 53.784 10.0948 53.8151 10.0948C53.8463 10.0948 53.8772 10.0887 53.906 10.0767C53.9348 10.0648 53.961 10.0473 53.983 10.0253C54.0259 9.97989 54.0497 9.91985 54.0497 9.85745C54.0497 9.79506 54.0259 9.73502 53.983 9.68964C53.6375 9.25282 53.2692 8.83573 52.9109 8.40989C52.8662 8.36557 52.8059 8.3407 52.743 8.3407C52.6801 8.3407 52.6197 8.36557 52.5751 8.40989C52.5321 8.45519 52.5081 8.51529 52.5081 8.57777C52.5081 8.64026 52.5321 8.70036 52.5751 8.74566Z" fill="#BDBDBD"/>
</g>
<defs>
<clipPath id="clip0_115_408">
<rect width="59" height="59" fill="white"/>
</clipPath>
</defs>
</svg>
