<svg width="100" height="100" viewBox="0 0 100 100" fill="none" xmlns="http://www.w3.org/2000/svg">
<path d="M50 79.1666C45.5555 79.1666 41.1458 78.993 36.7708 78.6458C32.3958 78.2986 28.0208 77.7778 23.6458 77.0833C21.6319 76.8055 19.9652 75.8854 18.6458 74.3229C17.3263 72.7604 16.6666 70.9375 16.6666 68.8541V66.1458C12.9166 65.1736 9.89579 63.1944 7.60413 60.2083C5.31246 57.2222 4.16663 53.8194 4.16663 50C4.16663 46.25 5.31246 42.8819 7.60413 39.8958C9.89579 36.9097 12.9166 34.9305 16.6666 33.9583V29.1666C16.6666 26.9444 17.4479 25 19.0104 23.3333C20.5729 21.6666 22.5 20.8333 24.7916 20.8333C26.8055 20.8333 28.8194 21.0243 30.8333 21.4062C32.8472 21.7882 34.8958 22.0486 36.9791 22.1875C39.1319 22.4653 41.2847 22.6215 43.4375 22.6562C45.5902 22.691 47.7777 22.7083 50 22.7083C52.1527 22.7083 54.3055 22.6736 56.4583 22.6041C58.6111 22.5347 60.7986 22.3958 63.0208 22.1875C65.0347 22.0486 67.0312 21.7882 69.0104 21.4062C70.9895 21.0243 72.9861 20.8333 75 20.8333C77.2916 20.8333 79.2534 21.6493 80.8854 23.2812C82.5173 24.9132 83.3333 26.875 83.3333 29.1666V33.9583C87.0138 34.9305 90.0173 36.9097 92.3437 39.8958C94.6701 42.8819 95.8333 46.25 95.8333 50C95.8333 53.8194 94.6701 57.2048 92.3437 60.1562C90.0173 63.1076 87.0138 65.0694 83.3333 66.0416V68.75C83.3333 70.8333 82.6562 72.6562 81.302 74.2187C79.9479 75.7812 78.2638 76.7361 76.25 77.0833C71.875 77.8472 67.5 78.3854 63.125 78.6979C58.75 79.0104 54.375 79.1666 50 79.1666ZM50 70.8333C54.1666 70.8333 58.3333 70.6597 62.5 70.3125C66.6666 69.9653 70.8333 69.4444 75 68.75V29.1666C70.8333 29.7916 66.6666 30.2604 62.5 30.5729C58.3333 30.8854 54.1666 31.0416 50 31.0416C45.7638 31.0416 41.5625 30.8854 37.3958 30.5729C33.2291 30.2604 29.0972 29.7916 25 29.1666C24.9305 29.1666 24.9132 29.184 24.9479 29.2187C24.9826 29.2535 25 29.2361 25 29.1666V68.75C29.1666 69.4444 33.3159 69.9653 37.4479 70.3125C41.5798 70.6597 45.7638 70.8333 50 70.8333ZM50 64.5833C52.9861 64.5833 55.9548 64.4097 58.9062 64.0625C61.8576 63.7153 64.7916 63.1597 67.7083 62.3958C68.8888 62.0486 69.7569 61.3889 70.3125 60.4166C70.868 59.4444 70.9722 58.4028 70.625 57.2916C70.2777 56.1805 69.618 55.3298 68.6458 54.7396C67.6736 54.1493 66.6319 54.0278 65.5208 54.375C62.9513 55.0694 60.3819 55.5555 57.8125 55.8333C55.243 56.1111 52.6388 56.25 50 56.25C47.3611 56.25 44.7395 56.1285 42.1354 55.8854C39.5312 55.6423 36.9444 55.1389 34.375 54.375C33.2638 54.0278 32.2222 54.1319 31.25 54.6875C30.2777 55.243 29.618 56.0764 29.2708 57.1875C28.9236 58.2986 29.0451 59.3403 29.6354 60.3125C30.2257 61.2847 31.0763 61.9444 32.1875 62.2916C35.1041 63.1944 38.0382 63.8021 40.9895 64.1146C43.9409 64.4271 46.9444 64.5833 50 64.5833ZM16.6666 57.1875V42.9166C15.3472 43.6805 14.3229 44.6875 13.5937 45.9375C12.8645 47.1875 12.5 48.5416 12.5 50C12.5 51.5278 12.8645 52.9166 13.5937 54.1666C14.3229 55.4166 15.3472 56.4236 16.6666 57.1875ZM83.3333 57.1875C84.5833 56.4236 85.5902 55.4166 86.3541 54.1666C87.118 52.9166 87.5 51.5278 87.5 50C87.5 48.5416 87.118 47.1875 86.3541 45.9375C85.5902 44.6875 84.5833 43.6805 83.3333 42.9166V57.1875ZM50 47.9166C52.9861 47.9166 55.9548 47.743 58.9062 47.3958C61.8576 47.0486 64.7916 46.493 67.7083 45.7291C68.8888 45.3819 69.7569 44.7222 70.3125 43.75C70.868 42.7778 70.9722 41.7361 70.625 40.625C70.2777 39.5139 69.618 38.6632 68.6458 38.0729C67.6736 37.4826 66.6319 37.3611 65.5208 37.7083C62.9513 38.4028 60.3819 38.8889 57.8125 39.1666C55.243 39.4444 52.6388 39.5833 50 39.5833C47.3611 39.5833 44.7395 39.4444 42.1354 39.1666C39.5312 38.8889 36.9444 38.4028 34.375 37.7083C33.2638 37.3611 32.2222 37.4653 31.25 38.0208C30.2777 38.5764 29.618 39.4444 29.2708 40.625C28.9236 41.7361 29.0277 42.7778 29.5833 43.75C30.1388 44.7222 31.0069 45.3819 32.1875 45.7291C35.1041 46.493 38.0382 47.0486 40.9895 47.3958C43.9409 47.743 46.9444 47.9166 50 47.9166Z" fill="#4891DA"/>
</svg>
