<svg width="67" height="67" viewBox="0 0 67 67" fill="none" xmlns="http://www.w3.org/2000/svg">
<path d="M21.3393 66.7143C15.5949 66.7143 10.7212 64.7129 6.71846 60.7101C2.71568 56.7074 0.714294 51.8337 0.714294 46.0893C0.714294 43.3393 1.23374 40.7115 2.27263 38.206C3.31152 35.7004 4.80874 33.4699 6.76429 31.5143L31.5143 6.76429C33.4699 4.80874 35.7004 3.31152 38.206 2.27263C40.7115 1.23374 43.3393 0.714294 46.0893 0.714294C51.8337 0.714294 56.7074 2.71568 60.7101 6.71846C64.7129 10.7212 66.7143 15.5949 66.7143 21.3393C66.7143 24.0893 66.1949 26.7171 65.156 29.2226C64.1171 31.7282 62.6199 33.9587 60.6643 35.9143L35.9143 60.6643C33.9587 62.6199 31.7282 64.1171 29.2226 65.156C26.7171 66.1949 24.0893 66.7143 21.3393 66.7143ZM45.7226 40.4976L55.531 30.781C56.7532 29.5587 57.7004 28.1226 58.3726 26.4726C59.0448 24.8226 59.381 23.1115 59.381 21.3393C59.381 17.6726 58.0824 14.5407 55.4851 11.9435C52.8879 9.34624 49.756 8.04763 46.0893 8.04763C44.3171 8.04763 42.606 8.38374 40.956 9.05596C39.306 9.72818 37.8699 10.6754 36.6476 11.8976L26.931 21.706L45.7226 40.4976ZM21.3393 59.381C23.1115 59.381 24.8226 59.0448 26.4726 58.3726C28.1226 57.7004 29.5587 56.7532 30.781 55.531L40.4976 45.7226L21.706 26.931L11.8976 36.6476C10.6754 37.8699 9.72818 39.306 9.05596 40.956C8.38374 42.606 8.04763 44.3171 8.04763 46.0893C8.04763 49.756 9.34624 52.8879 11.9435 55.4851C14.5407 58.0824 17.6726 59.381 21.3393 59.381Z" fill="#4891DA"/>
</svg>
