<svg width="49" height="49" viewBox="0 0 49 49" fill="none" xmlns="http://www.w3.org/2000/svg">
<g clip-path="url(#clip0_113_177)">
<g clip-path="url(#clip1_113_177)">
<path d="M-1.72992 37.8311C-2.84942 36.7116 -4.66449 36.7116 -5.784 37.8311C-6.9035 38.9506 -6.9035 40.7657 -5.784 41.8852L7.61332 55.2825C8.73282 56.402 10.5479 56.402 11.6674 55.2825C12.7869 54.163 12.7869 52.3479 11.6674 51.2284L-1.72992 37.8311Z" fill="#575072"/>
<path d="M11.6666 51.2266L-1.72678 37.8333C-2.26435 37.2959 -2.99334 36.994 -3.75344 36.994C-4.51355 36.994 -5.24254 37.2959 -5.78011 37.8333C-6.09084 38.1593 -6.31937 38.5546 -6.44678 38.9866C-5.94784 38.8196 -5.4125 38.7935 -4.89968 38.9111C-4.38685 39.0287 -3.91641 39.2855 -3.54011 39.6533L9.85989 53.0533C10.2276 53.4296 10.4844 53.9 10.6021 54.4128C10.7197 54.9257 10.6936 55.461 10.5266 55.9599C10.9585 55.8325 11.3539 55.604 11.6799 55.2933C11.9471 55.026 12.1588 54.7085 12.3029 54.359C12.4469 54.0096 12.5204 53.6351 12.5192 53.2572C12.5179 52.8792 12.442 52.5052 12.2956 52.1567C12.1493 51.8083 11.9355 51.4921 11.6666 51.2266Z" fill="#363354"/>
<path d="M-1.72992 37.8311C-2.84942 36.7116 -4.66449 36.7116 -5.784 37.8311C-6.9035 38.9506 -6.9035 40.7657 -5.784 41.8852L7.61332 55.2825C8.73282 56.402 10.5479 56.402 11.6674 55.2825C12.7869 54.163 12.7869 52.3479 11.6674 51.2284L-1.72992 37.8311Z" stroke="#281A3B" stroke-width="2.66667" stroke-linecap="round" stroke-linejoin="round"/>
<path d="M11.0487 34.3946L2.93579 42.5074L6.98987 46.5615L15.1027 38.4487L11.0487 34.3946Z" fill="#EAEAEA"/>
<path d="M11.0487 34.3946L2.93579 42.5074L6.98987 46.5615L15.1027 38.4487L11.0487 34.3946Z" stroke="#281A3B" stroke-width="2.66667" stroke-linecap="round" stroke-linejoin="round"/>
<path d="M19.1667 42.5L7 30.3333L31.04 6.28664C31.5725 5.75348 32.2048 5.33051 32.9009 5.04192C33.597 4.75334 34.3431 4.6048 35.0967 4.6048C35.8502 4.6048 36.5963 4.75334 37.2924 5.04192C37.9885 5.33051 38.6209 5.75348 39.1533 6.28664L43.2133 10.3333C43.7465 10.8658 44.1695 11.4982 44.4581 12.1942C44.7466 12.8903 44.8952 13.6364 44.8952 14.39C44.8952 15.1435 44.7466 15.8896 44.4581 16.5857C44.1695 17.2818 43.7465 17.9142 43.2133 18.4466L19.1667 42.5Z" fill="#EAEAEA"/>
<path d="M29.8132 27.8533L22.4799 35.1867C21.7797 35.8873 20.9483 36.4432 20.0331 36.8224C19.118 37.2016 18.1372 37.3968 17.1466 37.3968C16.156 37.3968 15.1751 37.2016 14.26 36.8224C13.3449 36.4432 12.5135 35.8873 11.8132 35.1867L19.1466 42.52L31.8132 29.8533L29.8132 27.8533Z" fill="#C2D2D3"/>
<path d="M19.1667 42.5L7 30.3333L31.04 6.28664C31.5725 5.75348 32.2048 5.33051 32.9009 5.04192C33.597 4.75334 34.3431 4.6048 35.0967 4.6048C35.8502 4.6048 36.5963 4.75334 37.2924 5.04192C37.9885 5.33051 38.6209 5.75348 39.1533 6.28664L43.2133 10.3333C43.7465 10.8658 44.1695 11.4982 44.4581 12.1942C44.7466 12.8903 44.8952 13.6364 44.8952 14.39C44.8952 15.1435 44.7466 15.8896 44.4581 16.5857C44.1695 17.2818 43.7465 17.9142 43.2133 18.4466L19.1667 42.5Z" stroke="#281A3B" stroke-width="2.66667" stroke-linecap="round" stroke-linejoin="round"/>
<path d="M31.8134 29.8533L19.6467 17.6666L31.0401 6.28664C31.5725 5.75348 32.2049 5.33051 32.901 5.04192C33.5971 4.75334 34.3432 4.6048 35.0967 4.6048C35.8503 4.6048 36.5964 4.75334 37.2925 5.04192C37.9885 5.33051 38.6209 5.75348 39.1534 6.28664L43.2134 10.3333C43.7466 10.8658 44.1695 11.4982 44.4581 12.1942C44.7467 12.8903 44.8952 13.6364 44.8952 14.39C44.8952 15.1435 44.7467 15.8896 44.4581 16.5857C44.1695 17.2818 43.7466 17.9142 43.2134 18.4466L31.8134 29.8533Z" fill="#AAE1E9"/>
<path d="M54.6667 -5.16669L45.24 4.25998" stroke="#281A3B" stroke-width="2.66667" stroke-linecap="round" stroke-linejoin="round"/>
<path d="M43.2132 10.3333L39.1599 6.27999L41.1599 4.27999C41.6975 3.74261 42.4265 3.44073 43.1866 3.44073C43.9467 3.44073 44.6757 3.74261 45.2132 4.27999C45.7506 4.81756 46.0525 5.54655 46.0525 6.30666C46.0525 7.06676 45.7506 7.79575 45.2132 8.33332L43.2132 10.3333Z" fill="#EAEAEA"/>
<path d="M43.2132 10.3333L39.1599 6.27999L41.1599 4.27999C41.6975 3.74261 42.4265 3.44073 43.1866 3.44073C43.9467 3.44073 44.6757 3.74261 45.2132 4.27999C45.7506 4.81756 46.0525 5.54655 46.0525 6.30666C46.0525 7.06676 45.7506 7.79575 45.2132 8.33332L43.2132 10.3333Z" stroke="#281A3B" stroke-width="2.66667" stroke-linecap="round" stroke-linejoin="round"/>
<path d="M26.8867 10.44L29.6001 13.1533" stroke="#281A3B" stroke-width="2.66667" stroke-linecap="round" stroke-linejoin="round"/>
<path d="M23.2732 14.06L27.7932 18.5733" stroke="#281A3B" stroke-width="2.66667" stroke-linecap="round" stroke-linejoin="round"/>
<path d="M19.6599 17.6733L22.3732 20.38" stroke="#281A3B" stroke-width="2.66667" stroke-linecap="round" stroke-linejoin="round"/>
<path d="M16.0466 21.2866L20.5666 25.8" stroke="#281A3B" stroke-width="2.66667" stroke-linecap="round" stroke-linejoin="round"/>
<path d="M12.4333 24.9L15.14 27.6066" stroke="#281A3B" stroke-width="2.66667" stroke-linecap="round" stroke-linejoin="round"/>
<path d="M43.2132 18.46L31.9999 29.6667L31.7266 29.7933L31.5732 29.8667L29.5732 27.8667L36.0799 21.36C37.1551 20.2837 37.759 18.8246 37.759 17.3033C37.759 15.782 37.1551 14.323 36.0799 13.2467L35.4133 12.58C34.713 11.8793 33.8816 11.3235 32.9665 10.9443C32.0514 10.565 31.0705 10.3698 30.0799 10.3698C29.0893 10.3698 28.1085 10.565 27.1933 10.9443C26.2782 11.3235 25.4468 11.8793 24.7466 12.58L31.0332 6.29334C32.1095 5.21818 33.5686 4.61426 35.0899 4.61426C36.6112 4.61426 38.0703 5.21818 39.1466 6.29334L43.2132 10.3333C43.7476 10.8665 44.1716 11.4999 44.4608 12.1971C44.7501 12.8943 44.899 13.6418 44.899 14.3967C44.899 15.1515 44.7501 15.899 44.4608 16.5962C44.1716 17.2935 43.7476 17.9268 43.2132 18.46Z" fill="#75C9C9"/>
<path d="M43.2134 18.46L32.0001 29.6667L31.8001 29.8667L19.6467 17.6667L24.7534 12.56L31.0401 6.27332C32.1163 5.19816 33.5754 4.59424 35.0967 4.59424C36.618 4.59424 38.0771 5.19816 39.1534 6.27332L43.2134 10.3333C43.7478 10.8665 44.1717 11.4998 44.461 12.1971C44.7503 12.8943 44.8991 13.6418 44.8991 14.3967C44.8991 15.1515 44.7503 15.899 44.461 16.5962C44.1717 17.2935 43.7478 17.9268 43.2134 18.46Z" stroke="#281A3B" stroke-width="2.66667" stroke-linecap="round" stroke-linejoin="round"/>
<path d="M30.5 6.82666L35.02 11.3467" stroke="#281A3B" stroke-width="2.66667" stroke-linecap="round" stroke-linejoin="round"/>
<path d="M2.93994 26.28L23.2199 46.56" stroke="#281A3B" stroke-width="2.66667" stroke-linecap="round" stroke-linejoin="round"/>
</g>
</g>
<defs>
<clipPath id="clip0_113_177">
<rect width="49" height="49" fill="white"/>
</clipPath>
<clipPath id="clip1_113_177">
<rect width="64" height="64" fill="white" transform="translate(-8 -7)"/>
</clipPath>
</defs>
</svg>
