<svg width="64" height="64" viewBox="0 0 64 64" fill="none" xmlns="http://www.w3.org/2000/svg">
<g clip-path="url(#clip0_123_698)">
<path d="M32 64C49.6731 64 64 49.6731 64 32C64 14.3269 49.6731 0 32 0C14.3269 0 0 14.3269 0 32C0 49.6731 14.3269 64 32 64Z" fill="#273B7A"/>
<path d="M36.872 63.6315C48.9432 61.7876 58.7931 53.1977 62.4592 41.8307L35.2051 14.5767L35.0325 44.1152L25.7685 52.5283L36.872 63.6315Z" fill="#121149"/>
<path d="M37.2795 33.8836V29.1411C37.2795 28.6834 37.389 28.2323 37.5984 27.8254L38.792 25.5083C39.0016 25.1014 39.1109 24.6501 39.1109 24.1925V20.6511C39.1109 19.0643 37.8244 17.7778 36.2377 17.7778H27.762C26.1751 17.7778 24.8889 19.0643 24.8889 20.6511V24.1925C24.8889 24.6503 24.9984 25.1014 25.2077 25.5083L26.4014 27.8254C26.611 28.2323 26.7202 28.6835 26.7202 29.1411V33.8836C26.7202 34.3414 26.6107 34.7925 26.4014 35.1994L25.2077 37.5165C24.9981 37.9234 24.8889 38.3746 24.8889 38.8323V50.46C24.8889 52.0469 26.1754 53.3331 27.762 53.3331H36.2377C37.8246 53.3331 39.1109 52.0466 39.1109 50.46V38.8323C39.1109 38.3745 39.0014 37.9234 38.792 37.5165L37.5984 35.1994C37.3889 34.7925 37.2795 34.3413 37.2795 33.8836Z" fill="#71E2EF"/>
<path d="M37.5984 27.8251L38.792 25.508C39.0016 25.1011 39.1109 24.6499 39.1109 24.1923V20.6509C39.1109 19.064 37.8244 17.7778 36.2378 17.7778H32V53.3333H36.2378C37.8246 53.3333 39.1109 52.0468 39.1109 50.4601V38.8321C39.1109 38.3744 39.0014 37.9233 38.792 37.5164L37.5984 35.1993C37.3887 34.7924 37.2795 34.3411 37.2795 33.8835V29.141C37.2795 28.6833 37.3889 28.2321 37.5984 27.8251Z" fill="#38C6D9"/>
<path d="M35.5555 17.7777H28.4444V15.4252C28.4444 14.7609 28.9831 14.2221 29.6475 14.2221H34.3525C35.0169 14.2221 35.5556 14.7609 35.5556 15.4252V17.7777H35.5555Z" fill="white"/>
<path d="M35.5555 15.4252C35.5555 14.7609 35.0168 14.2221 34.3524 14.2221H32V17.7776H35.5555V15.4252Z" fill="#D0D1D3"/>
<path d="M37.3663 28.4445H26.6334C26.6903 28.6716 26.7203 28.9053 26.7203 29.141V33.8835C26.7203 34.3413 26.6108 34.7924 26.4014 35.1993L26.218 35.5556H37.782L37.5986 35.1994C37.389 34.7925 37.2798 34.3413 37.2798 33.8836V29.1411C37.2795 28.9051 37.3096 28.6716 37.3663 28.4445Z" fill="#02B2B2"/>
<path d="M37.5984 35.1994C37.3887 34.7925 37.2795 34.3413 37.2795 33.8836V29.1411C37.2795 28.9054 37.3096 28.6716 37.3664 28.4446H32V35.5558H37.782L37.5984 35.1994Z" fill="#386895"/>
</g>
<defs>
<clipPath id="clip0_123_698">
<rect width="64" height="64" fill="white"/>
</clipPath>
</defs>
</svg>
