<svg width="223" height="179" viewBox="0 0 223 179" fill="none" xmlns="http://www.w3.org/2000/svg">
<g clip-path="url(#clip0_176_125)">
<path d="M160.587 67.661C159.925 66.9724 159.139 66.4264 158.272 66.0544C157.406 65.6825 156.477 65.4919 155.539 65.4938V61.1835C155.54 60.197 155.353 59.22 154.989 58.3085C154.625 57.397 154.092 56.5687 153.419 55.8712C152.746 55.1736 151.947 54.6204 151.068 54.2432C150.188 53.866 149.246 53.6721 148.294 53.6728V50.4244H150.019C150.756 50.4244 151.464 50.1206 151.985 49.5799C152.507 49.0392 152.8 48.3059 152.8 47.5412C152.8 46.7765 152.507 46.0432 151.985 45.5025C151.464 44.9618 150.756 44.658 150.019 44.658H148.294V42.4044H147.441V44.658H145.383C144.646 44.658 143.938 44.9618 143.417 45.5025C142.895 46.0432 142.602 46.7765 142.602 47.5412C142.602 48.3059 142.895 49.0392 143.417 49.5799C143.938 50.1206 144.646 50.4244 145.383 50.4244H147.441V53.6728H142.129C141.624 53.6727 141.124 53.7758 140.657 53.9762C140.19 54.1766 139.766 54.4704 139.409 54.8408C139.051 55.2111 138.768 55.6509 138.575 56.1348C138.381 56.6187 138.282 57.1374 138.282 57.6612V65.4938H137.054C135.158 65.4937 133.281 65.8806 131.53 66.6325C129.778 67.3845 128.187 68.4867 126.847 69.8762C125.506 71.2658 124.443 72.9154 123.718 74.731C122.992 76.5465 122.619 78.4924 122.619 80.4575V90.9253C119.996 91.7088 117.623 93.2048 115.745 95.2585C113.867 97.3121 112.552 99.8488 111.937 102.606H105.61V95.9785H101.774V93.1915H104.129C104.867 93.1915 105.574 92.8878 106.096 92.3471C106.617 91.8064 106.91 91.073 106.91 90.3084C106.91 89.5437 106.617 88.8103 106.096 88.2696C105.574 87.7289 104.867 87.4252 104.129 87.4252H101.774V85.5955H100.922V87.4252H99.4937C98.756 87.4252 98.0486 87.7289 97.5271 88.2696C97.0055 88.8103 96.7125 89.5437 96.7125 90.3084C96.7125 91.073 97.0055 91.8064 97.5271 92.3471C98.0486 92.8878 98.756 93.1915 99.4937 93.1915H100.922V95.9903C99.9426 96.0492 99.022 96.4939 98.3485 97.2333C97.6751 97.9728 97.2997 98.9511 97.2992 99.968V102.63C93.6144 102.841 90.1475 104.507 87.611 107.286C85.0745 110.065 83.661 113.746 83.6608 117.572V178.822H122.619V178.822H162.678V72.894C162.68 71.9219 162.496 70.959 162.137 70.0609C161.778 69.1628 161.251 68.3471 160.587 67.661Z" fill="#F2F2F2"/>
<path d="M80.0212 65.4923V61.1844C80.0212 60.198 79.8338 59.2213 79.4697 58.31C79.1056 57.3987 78.5719 56.5707 77.8991 55.8733C77.2263 55.1758 76.4276 54.6225 75.5485 54.2451C74.6695 53.8676 73.7273 53.6733 72.7758 53.6733V49.4633H74.4629C75.2005 49.4633 75.9079 49.1596 76.4295 48.6188C76.9511 48.0781 77.2441 47.3448 77.2441 46.5801C77.2441 45.8155 76.9511 45.0821 76.4295 44.5414C75.9079 44.0007 75.2005 43.697 74.4629 43.697H72.7758V42.4067H71.9235V43.697H69.8276C69.09 43.697 68.3826 44.0007 67.861 44.5414C67.3394 45.0821 67.0464 45.8155 67.0464 46.5801C67.0464 47.3448 67.3394 48.0781 67.861 48.6188C68.3826 49.1596 69.09 49.4633 69.8276 49.4633H71.9235V53.6733H66.6085C66.1031 53.6733 65.6027 53.7765 65.1358 53.977C64.6689 54.1775 64.2446 54.4714 63.8873 54.8418C63.5299 55.2123 63.2464 55.6521 63.053 56.1361C62.8596 56.6202 62.7601 57.1389 62.7601 57.6629V65.4923H61.5335C57.7048 65.4923 54.0329 67.069 51.3255 69.8756C48.6182 72.6822 47.0972 76.4888 47.0972 80.4579V90.1547C44.6709 91.2385 42.5564 92.9547 40.9594 95.1366C39.3624 97.3185 38.3373 99.8917 37.9838 102.606H30.0903V95.9785H26.2545V92.2305H27.6462C28.3838 92.2305 29.0912 91.9267 29.6128 91.386C30.1344 90.8453 30.4274 90.1119 30.4274 89.3473C30.4274 88.5826 30.1344 87.8493 29.6128 87.3086C29.0912 86.7679 28.3838 86.4641 27.6462 86.4641H26.2545V85.5955H25.4021V86.4641H23.0109C22.2733 86.4641 21.5658 86.7679 21.0443 87.3086C20.5227 87.8493 20.2297 88.5826 20.2297 89.3473C20.2297 90.1119 20.5227 90.8453 21.0443 91.386C21.5658 91.9267 22.2733 92.2305 23.0109 92.2305H25.4021V95.9903C24.4228 96.0492 23.5021 96.4938 22.8287 97.2333C22.1552 97.9727 21.7799 98.9511 21.7794 99.968V102.63C18.0945 102.841 14.6277 104.507 12.0912 107.286C9.5547 110.065 8.14114 113.746 8.14096 117.572V178.822H87.1602V72.8929C87.1602 71.921 86.9755 70.9587 86.6167 70.0608C86.258 69.1629 85.7321 68.347 85.0692 67.6598C84.4063 66.9726 83.6193 66.4275 82.7532 66.0556C81.887 65.6837 80.9587 65.4922 80.0212 65.4923Z" fill="#F2F2F2"/>
<path d="M27.5331 129.116H32.8606V124.697H27.5331V129.116Z" fill="white"/>
<path d="M18.796 129.116H24.1235V124.697H18.796V129.116Z" fill="white"/>
<path d="M27.5331 140.382H32.8606V135.964H27.5331V140.382Z" fill="white"/>
<path d="M18.796 140.382H24.1235V135.964H18.796V140.382Z" fill="white"/>
<path d="M27.5331 151.649H32.8606V147.231H27.5331V151.649Z" fill="white"/>
<path d="M18.796 151.649H24.1235V147.231H18.796V151.649Z" fill="white"/>
<path d="M18.796 162.916H24.1235V158.497H18.796V162.916Z" fill="white"/>
<path d="M18.796 174.182H24.1235V169.764H18.796V174.182Z" fill="white"/>
<path d="M58.4981 116.634H75.7592V115.309H58.4981V116.634Z" fill="white"/>
<path d="M58.4981 124.808H75.7592V123.482H58.4981V124.808Z" fill="white"/>
<path d="M58.4981 132.982H75.7592V131.656H58.4981V132.982Z" fill="white"/>
<path d="M68.7269 60.5217H74.0544V56.1034H68.7269V60.5217Z" fill="white"/>
<path d="M103.053 140.382H108.38V135.964H103.053V140.382Z" fill="white"/>
<path d="M94.3158 140.382H99.6433V135.964H94.3158V140.382Z" fill="white"/>
<path d="M103.053 151.649H108.38V147.231H103.053V151.649Z" fill="white"/>
<path d="M94.3158 151.649H99.6433V147.231H94.3158V151.649Z" fill="white"/>
<path d="M103.053 162.916H108.38V158.497H103.053V162.916Z" fill="white"/>
<path d="M94.3158 162.916H99.6433V158.497H94.3158V162.916Z" fill="white"/>
<path d="M103.053 174.182H108.38V169.764H103.053V174.182Z" fill="white"/>
<path d="M94.3158 174.182H99.6433V169.764H94.3158V174.182Z" fill="white"/>
<path d="M144.247 60.5217H149.574V56.1034H144.247V60.5217Z" fill="white"/>
<path d="M162.678 74.9314H149.555V77.8146H162.678V74.9314Z" fill="white"/>
<path d="M162.678 83.5809H149.555V86.4641H162.678V83.5809Z" fill="white"/>
<path d="M162.678 92.2305H149.555V95.1137H162.678V92.2305Z" fill="white"/>
<path d="M162.678 100.88H149.555V103.763H162.678V100.88Z" fill="white"/>
<path d="M162.678 109.53H149.555V112.413H162.678V109.53Z" fill="white"/>
<path d="M162.678 118.179H149.555V121.062H162.678V118.179Z" fill="white"/>
<path d="M86.7794 134.568L89.7943 137.183L101.177 126.104L96.7276 122.244L86.7794 134.568Z" fill="#FFB6B6"/>
<path d="M95.6991 133.683L89.3142 129.114L106.126 101.483C93.941 94.1414 85.5616 85.185 78.7244 75.347C76.4009 72.0268 74.9845 68.1629 78.226 65.6722C78.3775 65.5557 78.5331 65.4454 78.6926 65.3413C82.389 62.9536 81.1891 66.532 86.2558 64.7745L90.8338 69.8372L100.725 79.8143L117.596 90.9789C120.989 93.2241 121.93 97.9468 119.699 101.527C119.581 101.716 119.455 101.9 119.322 102.078L95.6991 133.683Z" fill="#2F2E41"/>
<path d="M87.1613 132.437L92.4476 136.494L90.6424 138.73L92.6625 146.31C92.7623 146.684 92.7441 147.082 92.6104 147.445C92.4768 147.808 92.2348 148.117 91.9198 148.327C91.6047 148.537 91.2331 148.638 90.8591 148.613C90.4852 148.589 90.1285 148.441 89.8412 148.192L83.847 142.992L84.5995 139.883L82.4104 141.745L80.1504 139.785L87.1613 132.437Z" fill="#2F2E41"/>
<path d="M79.7831 104.829L47.1765 116.917L48.1214 119.656L80.728 107.568L79.7831 104.829Z" fill="#3F3D56"/>
<path d="M87.4088 151.589L78.9128 143.984C78.3216 143.454 77.9576 142.703 77.9006 141.895C77.8437 141.088 78.0985 140.289 78.6091 139.676C79.1197 139.063 79.8442 138.686 80.6234 138.626C81.4025 138.567 82.1725 138.831 82.7641 139.36L91.2601 146.965C91.5531 147.227 91.7935 147.546 91.9674 147.905C92.1413 148.263 92.2455 148.654 92.2738 149.054C92.3022 149.454 92.2542 149.856 92.1327 150.237C92.0111 150.618 91.8184 150.97 91.5654 151.274C91.3125 151.577 91.0043 151.827 90.6585 152.007C90.3127 152.187 89.936 152.295 89.55 152.324C89.164 152.353 88.7762 152.303 88.4088 152.177C88.0414 152.051 87.7016 151.851 87.4088 151.589Z" fill="#3F3D56"/>
<path d="M135.671 63.7288C135.134 63.9207 134.563 63.9884 133.998 63.9268C133.433 63.8653 132.888 63.6761 132.402 63.3727C131.915 63.0692 131.498 62.6588 131.181 62.1703C130.864 61.6819 130.654 61.1273 130.566 60.5456L100.216 52.4439L105.166 47.06L134.072 55.8592C135.025 55.7707 135.976 56.0474 136.744 56.6369C137.513 57.2265 138.046 58.0879 138.244 59.0579C138.441 60.0279 138.288 61.0392 137.813 61.9C137.339 62.7609 136.577 63.4116 135.671 63.7288Z" fill="#FFB6B6"/>
<path d="M89.5647 26.1118C89.5647 26.1118 84.6297 26.7045 84.7184 32.5999C84.8071 38.4953 96.9043 51.9252 98.7916 54.1503C100.679 56.3754 119.514 57.5122 119.514 57.5122L125.397 52.149L107.952 46.0557L89.5647 26.1118Z" fill="#6C63FF"/>
<path d="M79.5546 53.7827L78.4412 59.1959C78.4412 59.1959 76.4151 63.7012 76.8083 64.9049C77.1978 66.1021 94.735 72.6097 94.735 72.6097C94.735 72.6097 96.2375 64.4923 98.7448 59.0169L79.5546 53.7827Z" fill="#FFB6B6"/>
<path d="M135.759 138.45L125.63 143.466C124.925 143.815 124.115 143.86 123.378 143.59C122.642 143.32 122.038 142.757 121.702 142.027C121.365 141.296 121.322 140.456 121.582 139.692C121.842 138.928 122.385 138.303 123.09 137.954L133.218 132.937C133.923 132.588 134.733 132.543 135.47 132.813C136.207 133.083 136.81 133.646 137.147 134.377C137.484 135.108 137.527 135.947 137.267 136.711C137.006 137.475 136.464 138.1 135.759 138.45Z" fill="#3F3D56"/>
<path d="M174.177 178.493C167.851 178.493 161.667 176.548 156.408 172.904C151.148 169.261 147.048 164.083 144.627 158.024C142.206 151.965 141.573 145.298 142.807 138.866C144.041 132.434 147.087 126.526 151.561 121.889C156.034 117.251 161.733 114.093 167.937 112.814C174.142 111.535 180.573 112.191 186.418 114.701C192.262 117.211 197.257 121.461 200.772 126.913C204.286 132.366 206.162 138.777 206.162 145.335C206.153 154.126 202.78 162.554 196.784 168.77C190.787 174.986 182.657 178.483 174.177 178.493ZM174.177 115.247C168.437 115.247 162.826 117.012 158.053 120.318C153.28 123.624 149.56 128.323 147.363 133.821C145.167 139.319 144.592 145.368 145.712 151.205C146.832 157.041 149.596 162.402 153.655 166.61C157.714 170.818 162.885 173.683 168.515 174.844C174.145 176.005 179.981 175.409 185.284 173.132C190.588 170.855 195.12 166.998 198.309 162.051C201.499 157.103 203.201 151.286 203.201 145.335C203.192 137.358 200.131 129.71 194.69 124.07C189.249 118.429 181.872 115.256 174.177 115.247Z" fill="#3F3D56"/>
<path d="M175.586 152.311C178.066 152.311 180.076 150.227 180.076 147.656C180.076 145.086 178.066 143.002 175.586 143.002C173.107 143.002 171.096 145.086 171.096 147.656C171.096 150.227 173.107 152.311 175.586 152.311Z" fill="#3F3D56"/>
<path d="M42.7239 178.945C36.7298 178.945 30.8703 177.102 25.8863 173.65C20.9024 170.197 17.0179 165.291 14.724 159.55C12.4301 153.809 11.83 147.491 12.9994 141.397C14.1688 135.302 17.0552 129.704 21.2937 125.31C25.5322 120.916 30.9324 117.924 36.8114 116.712C42.6903 115.499 48.784 116.122 54.3219 118.5C59.8598 120.878 64.5931 124.905 67.9232 130.071C71.2534 135.238 73.0309 141.312 73.0309 147.526C73.0218 155.856 69.8258 163.842 64.1441 169.732C58.4625 175.622 50.759 178.935 42.7239 178.945ZM42.7239 119.017C37.2848 119.017 31.9678 120.689 27.4454 123.822C22.9229 126.954 19.398 131.407 17.3166 136.616C15.2351 141.826 14.6905 147.558 15.7516 153.088C16.8128 158.618 19.432 163.698 23.278 167.685C27.124 171.672 32.0242 174.388 37.3588 175.488C42.6934 176.588 48.2229 176.023 53.248 173.865C58.2731 171.708 62.5681 168.053 65.59 163.365C68.6118 158.677 70.2247 153.165 70.2247 147.526C70.2164 139.968 67.3164 132.721 62.1608 127.377C57.0052 122.032 50.0151 119.026 42.7239 119.017Z" fill="#3F3D56"/>
<path d="M42.7239 152.181C45.2036 152.181 47.2138 150.097 47.2138 147.526C47.2138 144.956 45.2036 142.872 42.7239 142.872C40.2442 142.872 38.234 144.956 38.234 147.526C38.234 150.097 40.2442 152.181 42.7239 152.181Z" fill="#3F3D56"/>
<path d="M103.618 152.342C106.494 152.342 108.825 149.925 108.825 146.944C108.825 143.963 106.494 141.547 103.618 141.547C100.743 141.547 98.4119 143.963 98.4119 146.944C98.4119 149.925 100.743 152.342 103.618 152.342Z" fill="#3F3D56"/>
<path d="M43.8768 147.196L41.8294 145.207L78.3759 104.79L143.595 84.555L175.963 143.445L173.525 144.885L142.262 88.0055L79.9059 107.352L43.8768 147.196Z" fill="#3F3D56"/>
<path d="M99.1967 145.361H71.6195V148.27H99.1967V145.361Z" fill="#3F3D56"/>
<path d="M80.544 90.8611H77.7378V106.071H80.544V90.8611Z" fill="#3F3D56"/>
<path d="M135.109 56.4453L132.439 57.3392L141.593 86.7272L144.264 85.8333L135.109 56.4453Z" fill="#3F3D56"/>
<path d="M80.2638 104.157L77.8423 105.628L100.853 146.355L103.275 144.885L80.2638 104.157Z" fill="#3F3D56"/>
<path d="M155.993 110.089L106.606 145.002L108.187 147.405L157.574 112.492L155.993 110.089Z" fill="#3F3D56"/>
<path d="M84.5252 92.6742H73.3004C72.5189 92.6742 71.7695 92.3524 71.2169 91.7795C70.6643 91.2067 70.3539 90.4297 70.3539 89.6196C70.3539 88.8095 70.6643 88.0326 71.2169 87.4597C71.7695 86.8869 72.5189 86.5651 73.3004 86.5651H84.5252C85.3066 86.5651 86.0561 86.8869 86.6087 87.4597C87.1612 88.0326 87.4717 88.8095 87.4717 89.6196C87.4717 90.4297 87.1612 91.2067 86.6087 91.7795C86.0561 92.3524 85.3066 92.6742 84.5252 92.6742Z" fill="#6C63FF"/>
<path d="M139.246 59.8014H128.021C127.24 59.8014 126.49 59.4796 125.938 58.9067C125.385 58.3339 125.075 57.5569 125.075 56.7468C125.075 55.9367 125.385 55.1598 125.938 54.5869C126.49 54.0141 127.24 53.6923 128.021 53.6923H139.246C140.027 53.6923 140.777 54.0141 141.329 54.5869C141.882 55.1598 142.193 55.9367 142.193 56.7468C142.193 57.5569 141.882 58.3339 141.329 58.9067C140.777 59.4796 140.027 59.8014 139.246 59.8014Z" fill="#6C63FF"/>
<path d="M211.638 160.406L211.959 152.924C215.305 151.07 219.037 150.091 222.831 150.071C217.609 154.497 218.262 163.028 214.722 168.98C213.604 170.828 212.099 172.391 210.319 173.553C208.539 174.716 206.53 175.449 204.44 175.697L200.07 178.471C199.47 175.005 199.603 171.446 200.458 168.039C201.312 164.632 202.87 161.457 205.022 158.734C206.244 157.218 207.646 155.869 209.193 154.716C210.24 157.577 211.638 160.406 211.638 160.406Z" fill="#F2F2F2"/>
<path d="M223 178.654C223 178.699 222.992 178.744 222.975 178.786C222.958 178.829 222.934 178.867 222.902 178.899C222.871 178.931 222.835 178.957 222.794 178.974C222.753 178.991 222.71 179 222.666 179H0.333938C0.245372 179 0.160433 178.964 0.0978075 178.899C0.0351821 178.834 0 178.746 0 178.654C0 178.562 0.0351821 178.474 0.0978075 178.409C0.160433 178.344 0.245372 178.308 0.333938 178.308H222.666C222.71 178.307 222.753 178.316 222.794 178.334C222.835 178.351 222.871 178.377 222.902 178.409C222.934 178.441 222.958 178.479 222.975 178.521C222.992 178.563 223 178.608 223 178.654Z" fill="#CCCCCC"/>
<path d="M97.6017 21.7819C102.119 20.9857 105.159 16.5436 104.391 11.8603C103.623 7.177 99.3379 4.0259 94.8203 4.82211C90.3027 5.61833 87.263 10.0604 88.0311 14.7437C88.7991 19.427 93.084 22.5781 97.6017 21.7819Z" fill="#FFB6B6"/>
<path d="M186.573 53.6746C190.712 53.6746 194.066 50.1969 194.066 45.907C194.066 41.6172 190.712 38.1395 186.573 38.1395C182.435 38.1395 179.081 41.6172 179.081 45.907C179.081 50.1969 182.435 53.6746 186.573 53.6746Z" fill="#FD6584"/>
<path d="M203.344 42.2294C203.132 41.5109 202.722 40.8723 202.165 40.3921C201.607 39.912 200.927 39.6111 200.207 39.5266C200.19 39.5243 200.175 39.5274 200.159 39.5263C200.138 39.5197 200.117 39.5146 200.095 39.511C196.668 39.052 192.713 40.7509 191.285 44.1185C190.936 43.626 190.478 43.2288 189.948 42.9612C189.418 42.6936 188.834 42.5638 188.245 42.5828C187.485 42.6352 186.76 42.929 186.168 43.4241C185.575 43.9192 185.144 44.5916 184.933 45.3497C184.911 45.4425 184.918 45.5403 184.952 45.6289C184.987 45.7175 185.048 45.7923 185.127 45.8425C185.353 46.0414 185.621 46.1824 185.91 46.2545C186.532 46.3911 187.156 46.5163 187.783 46.63C189.006 46.8519 190.235 47.0313 191.471 47.1682C193.979 47.4468 196.503 47.5457 199.025 47.4641C199.865 47.437 200.674 47.4081 201.444 47.0239C202.004 46.7373 202.482 46.3046 202.832 45.7685C203.161 45.2531 203.378 44.6692 203.466 44.0578C203.555 43.4464 203.513 42.8223 203.344 42.2294Z" fill="#F0F0F0"/>
<path d="M187.771 52.5861C187.559 51.8676 187.149 51.229 186.592 50.7488C186.034 50.2687 185.354 49.9678 184.634 49.8833C184.617 49.8809 184.602 49.8841 184.586 49.883C184.565 49.8764 184.543 49.8713 184.522 49.8677C181.095 49.4086 177.14 51.1075 175.712 54.4752C175.363 53.9826 174.904 53.5854 174.375 53.3179C173.845 53.0503 173.261 52.9204 172.672 52.9395C171.912 52.9919 171.187 53.2857 170.594 53.7808C170.002 54.2759 169.571 54.9483 169.36 55.7064C169.338 55.7992 169.345 55.897 169.379 55.9856C169.414 56.0742 169.475 56.149 169.554 56.1992C169.78 56.398 170.048 56.5391 170.337 56.6111C170.959 56.7478 171.583 56.873 172.21 56.9867C173.433 57.2086 174.662 57.3879 175.898 57.5248C178.406 57.8035 180.93 57.9024 183.452 57.8208C184.291 57.7937 185.101 57.7648 185.871 57.3806C186.431 57.0939 186.909 56.6613 187.259 56.1251C187.588 55.6098 187.805 55.0259 187.893 54.4145C187.982 53.8031 187.94 53.179 187.771 52.5861Z" fill="#F0F0F0"/>
<path d="M147.569 95.591L138.198 75.0847L138.325 75.0225C138.974 74.7035 139.678 74.5203 140.396 74.4832C141.114 74.4462 141.831 74.556 142.508 74.8066C143.185 75.0571 143.807 75.4434 144.34 75.9433C144.873 76.4433 145.305 77.0471 145.613 77.7203L150.298 87.9736C150.606 88.6468 150.783 89.3763 150.818 90.1203C150.854 90.8643 150.748 91.6084 150.507 92.3099C150.265 93.0115 149.892 93.6568 149.41 94.2091C148.928 94.7614 148.345 95.2097 147.696 95.5286L147.569 95.591Z" fill="#3F3D56"/>
<path d="M118.924 99.1952C117.744 99.192 116.597 98.7941 115.653 98.0609C114.709 97.3276 114.018 96.298 113.683 95.1252L113.643 94.9857L134.637 88.5642L134.677 88.7037C134.88 89.4182 134.946 90.1672 134.87 90.908C134.794 91.6488 134.578 92.3669 134.235 93.0212C133.891 93.6755 133.426 94.2532 132.868 94.7214C132.309 95.1896 131.666 95.5391 130.977 95.7499L120.48 98.9605C119.975 99.1157 119.451 99.1947 118.924 99.1952Z" fill="#3F3D56"/>
<path d="M121.622 134.535L125.442 133.558L123.676 117.472L118.038 118.914L121.622 134.535Z" fill="#FFB6B6"/>
<path d="M119.813 129.919L125.775 127.04L126.809 129.751L134.198 131.529C134.563 131.617 134.892 131.823 135.135 132.118C135.379 132.413 135.526 132.781 135.553 133.168C135.581 133.556 135.489 133.942 135.29 134.271C135.091 134.6 134.795 134.855 134.447 134.997L127.178 137.976L124.902 135.807L125.436 138.69L122.695 139.813L119.813 129.919Z" fill="#2F2E41"/>
<path d="M125.656 120.04L117.511 125.104L108.824 93.2982C94.7309 93.1737 81.7004 91.5378 71.0614 86.4998C67.4569 84.8078 65.8535 80.3332 67.4801 76.5054C67.5561 76.3264 67.6386 76.1508 67.7275 75.9783C69.7986 72.0066 73.8135 69.6741 77.3761 65.5465L95.0484 72.3105L93.7821 77.2439L113.772 78.2842C117.793 78.4934 120.866 82.1133 120.637 86.3695C120.625 86.5943 120.604 86.8182 120.573 87.0413L125.656 120.04Z" fill="#2F2E41"/>
<path d="M91.1005 21.6988L96.5313 24.6426C96.8314 24.7667 97.0866 24.9848 97.2614 25.2664C97.4362 25.548 97.5219 25.8792 97.5065 26.2137L98.9212 32.0819L103.899 43.0036C103.899 43.0036 105.195 48.8164 102.72 54.3046C100.245 59.7928 94.7678 73.4741 94.7678 73.4741C91.1951 82.3451 61.87 75.4945 69.512 67.9468C70.4213 67.0487 75.5321 59.4629 77.4021 59.0269L81.9904 31.8077C82.2217 30.3706 82.7568 29.0044 83.5575 27.807C84.3581 26.6097 85.4045 25.6108 86.6214 24.882C87.3566 24.4512 88.038 24.1962 88.5051 24.3263C89.5696 24.5835 90.0727 22.0843 91.1005 21.6988Z" fill="#6C63FF"/>
<path d="M138.267 57.7648C137.773 58.0556 137.224 58.2307 136.658 58.2776C136.091 58.3246 135.522 58.2422 134.99 58.0365C134.458 57.8307 133.976 57.5065 133.578 57.0866C133.179 56.6668 132.875 56.1616 132.685 55.6065L101.417 53.4143L105.329 47.1805L135.303 50.3328C136.223 50.0646 137.207 50.1559 138.067 50.5892C138.927 51.0225 139.604 51.7678 139.969 52.6839C140.335 53.6 140.363 54.6232 140.049 55.5596C139.736 56.4961 139.101 57.2807 138.267 57.7648Z" fill="#FFB6B6"/>
<path d="M86.2862 29.5549C86.2862 29.5549 81.5398 31.0761 82.6703 36.8546C83.8008 42.6331 98.0693 53.5343 100.318 55.3627C102.567 57.1911 121.284 54.7266 121.284 54.7266L126.118 48.3355L107.89 45.6635L86.2862 29.5549Z" fill="#6C63FF"/>
<path d="M105.061 10.4563C103.809 11.0962 102.39 10.1688 101.294 9.24662L101.686 9.5906C99.7839 11.5488 98.9134 14.3461 98.5017 17.0951C98.0896 19.8412 98.0684 22.6453 97.5423 25.3731C97.0157 28.0981 95.8945 30.8423 93.7661 32.5305C90.9148 34.7918 86.9502 34.6909 83.417 34.0447C83.3699 34.0353 83.3261 34.0283 83.279 34.0189C84.1996 31.1687 84.5555 28.1552 84.3252 25.159C83.4098 28.1737 81.8277 30.9252 79.7052 33.194C77.3606 32.5519 75.0699 31.7142 72.8557 30.689C71.423 30.0238 69.8783 29.1098 69.4669 27.5387C69.0547 25.9796 69.9597 24.3299 71.1819 23.3296C72.4041 22.3292 73.911 21.7981 75.3075 21.0798C76.7018 20.3649 78.0784 19.3521 78.6245 17.8394C79.8841 14.3597 76.1584 10.4219 77.5613 6.99953C78.2531 5.3166 79.9792 4.38679 81.6032 3.6668C84.0823 2.57053 86.6302 1.64926 89.2292 0.909279C91.5108 0.259275 93.8948 -0.252365 96.2294 0.132887C98.5641 0.518136 100.862 1.96331 101.724 4.24886C103.128 4.72429 104.619 5.26113 105.53 6.47281C106.439 7.68162 106.388 9.77991 105.061 10.4563Z" fill="#2F2E41"/>
<path d="M66.337 158.282H18.986V158.864H66.337V158.282Z" fill="#3F3D56"/>
<path d="M66.337 164.1H18.986V164.682H66.337V164.1Z" fill="#3F3D56"/>
<path d="M199.351 158.282H152V158.864H199.351V158.282Z" fill="#3F3D56"/>
<path d="M199.351 164.1H152V164.682H199.351V164.1Z" fill="#3F3D56"/>
<path d="M149.954 88.2974C151.626 87.6568 152.218 84.9996 151.278 82.3623C150.338 79.7251 148.22 78.1066 146.548 78.7472C144.877 79.3879 144.284 82.0451 145.224 84.6823C146.165 87.3195 148.282 88.9381 149.954 88.2974Z" fill="#6C63FF"/>
</g>
<defs>
<clipPath id="clip0_176_125">
<rect width="223" height="179" fill="white"/>
</clipPath>
</defs>
</svg>
